<?xml version="1.0" encoding="UTF-8" standalone="no"?>
<!DOCTYPE svg PUBLIC "-//W3C//DTD SVG 1.1//EN"
 "http://www.w3.org/Graphics/SVG/1.1/DTD/svg11.dtd">
<!-- Generated by graphviz version 2.43.0 (0)
 -->
<!-- Title: include/gempyre_bitmap.h Pages: 1 -->
<svg width="382pt" height="140pt"
 viewBox="0.00 0.00 382.00 140.00" xmlns="http://www.w3.org/2000/svg" xmlns:xlink="http://www.w3.org/1999/xlink">
<g id="graph0" class="graph" transform="scale(1 1) rotate(0) translate(4 136)">
<title>include/gempyre_bitmap.h</title>
<!-- Node1 -->
<g id="node1" class="node">
<title>Node1</title>
<g id="a_node1"><a xlink:title=" ">
<polygon fill="#bfbfbf" stroke="black" points="95.5,-112.5 95.5,-131.5 242.5,-131.5 242.5,-112.5 95.5,-112.5"/>
<text text-anchor="middle" x="169" y="-119.5" font-family="Helvetica,sans-Serif" font-size="10.00">include/gempyre_bitmap.h</text>
</a>
</g>
</g>
<!-- Node2 -->
<g id="node2" class="node">
<title>Node2</title>
<g id="a_node2"><a xlink:title=" ">
<polygon fill="none" stroke="#bfbfbf" points="0,-56.5 0,-75.5 44,-75.5 44,-56.5 0,-56.5"/>
<text text-anchor="middle" x="22" y="-63.5" font-family="Helvetica,sans-Serif" font-size="10.00">string</text>
</a>
</g>
</g>
<!-- Node1&#45;&gt;Node2 -->
<g id="edge1" class="edge">
<title>Node1&#45;&gt;Node2</title>
<path fill="none" stroke="midnightblue" d="M145.71,-112.44C120.9,-103.33 81.49,-88.85 53.83,-78.69"/>
<polygon fill="midnightblue" stroke="midnightblue" points="54.81,-75.33 44.22,-75.16 52.4,-81.9 54.81,-75.33"/>
</g>
<!-- Node3 -->
<g id="node3" class="node">
<title>Node3</title>
<g id="a_node3"><a xlink:title=" ">
<polygon fill="none" stroke="#bfbfbf" points="62,-56.5 62,-75.5 126,-75.5 126,-56.5 62,-56.5"/>
<text text-anchor="middle" x="94" y="-63.5" font-family="Helvetica,sans-Serif" font-size="10.00">algorithm</text>
</a>
</g>
</g>
<!-- Node1&#45;&gt;Node3 -->
<g id="edge2" class="edge">
<title>Node1&#45;&gt;Node3</title>
<path fill="none" stroke="midnightblue" d="M156.95,-112.32C145.54,-104.11 128.17,-91.6 114.57,-81.81"/>
<polygon fill="midnightblue" stroke="midnightblue" points="116.43,-78.84 106.27,-75.83 112.34,-84.52 116.43,-78.84"/>
</g>
<!-- Node4 -->
<g id="node4" class="node">
<title>Node4</title>
<g id="a_node4"><a xlink:title=" ">
<polygon fill="none" stroke="#bfbfbf" points="144,-56.5 144,-75.5 194,-75.5 194,-56.5 144,-56.5"/>
<text text-anchor="middle" x="169" y="-63.5" font-family="Helvetica,sans-Serif" font-size="10.00">cstring</text>
</a>
</g>
</g>
<!-- Node1&#45;&gt;Node4 -->
<g id="edge3" class="edge">
<title>Node1&#45;&gt;Node4</title>
<path fill="none" stroke="midnightblue" d="M169,-112.08C169,-105.01 169,-94.86 169,-85.99"/>
<polygon fill="midnightblue" stroke="midnightblue" points="172.5,-85.75 169,-75.75 165.5,-85.75 172.5,-85.75"/>
</g>
<!-- Node5 -->
<g id="node5" class="node">
<title>Node5</title>
<g id="a_node5"><a xlink:href="gempyre__types_8h_source.html" target="_top" xlink:title=" ">
<polygon fill="none" stroke="black" points="212.5,-56.5 212.5,-75.5 313.5,-75.5 313.5,-56.5 212.5,-56.5"/>
<text text-anchor="middle" x="263" y="-63.5" font-family="Helvetica,sans-Serif" font-size="10.00">gempyre_types.h</text>
</a>
</g>
</g>
<!-- Node1&#45;&gt;Node5 -->
<g id="edge4" class="edge">
<title>Node1&#45;&gt;Node5</title>
<path fill="none" stroke="midnightblue" d="M184.1,-112.32C198.9,-103.82 221.69,-90.73 238.98,-80.8"/>
<polygon fill="midnightblue" stroke="midnightblue" points="241.01,-83.67 247.93,-75.65 237.52,-77.6 241.01,-83.67"/>
</g>
<!-- Node8 -->
<g id="node8" class="node">
<title>Node8</title>
<g id="a_node8"><a xlink:title=" ">
<polygon fill="none" stroke="#bfbfbf" points="332,-56.5 332,-75.5 374,-75.5 374,-56.5 332,-56.5"/>
<text text-anchor="middle" x="353" y="-63.5" font-family="Helvetica,sans-Serif" font-size="10.00">array</text>
</a>
</g>
</g>
<!-- Node1&#45;&gt;Node8 -->
<g id="edge7" class="edge">
<title>Node1&#45;&gt;Node8</title>
<path fill="none" stroke="midnightblue" d="M198.54,-112.44C227.62,-103.99 273.54,-90.62 321.98,-76.29"/>
<polygon fill="midnightblue" stroke="midnightblue" points="323.11,-79.61 331.7,-73.41 321.12,-72.89 323.11,-79.61"/>
</g>
<!-- Node6 -->
<g id="node6" class="node">
<title>Node6</title>
<g id="a_node6"><a xlink:title=" ">
<polygon fill="none" stroke="#bfbfbf" points="202,-0.5 202,-19.5 252,-19.5 252,-0.5 202,-0.5"/>
<text text-anchor="middle" x="227" y="-7.5" font-family="Helvetica,sans-Serif" font-size="10.00">cstdint</text>
</a>
</g>
</g>
<!-- Node5&#45;&gt;Node6 -->
<g id="edge5" class="edge">
<title>Node5&#45;&gt;Node6</title>
<path fill="none" stroke="midnightblue" d="M257.06,-56.08C252.02,-48.53 244.66,-37.49 238.49,-28.23"/>
<polygon fill="midnightblue" stroke="midnightblue" points="241.29,-26.13 232.83,-19.75 235.47,-30.01 241.29,-26.13"/>
</g>
<!-- Node7 -->
<g id="node7" class="node">
<title>Node7</title>
<g id="a_node7"><a xlink:title=" ">
<polygon fill="none" stroke="#bfbfbf" points="270,-0.5 270,-19.5 328,-19.5 328,-0.5 270,-0.5"/>
<text text-anchor="middle" x="299" y="-7.5" font-family="Helvetica,sans-Serif" font-size="10.00">memory</text>
</a>
</g>
</g>
<!-- Node5&#45;&gt;Node7 -->
<g id="edge6" class="edge">
<title>Node5&#45;&gt;Node7</title>
<path fill="none" stroke="midnightblue" d="M268.94,-56.08C273.98,-48.53 281.34,-37.49 287.51,-28.23"/>
<polygon fill="midnightblue" stroke="midnightblue" points="290.53,-30.01 293.17,-19.75 284.71,-26.13 290.53,-30.01"/>
</g>
</g>
</svg>
