<?xml version="1.0" encoding="UTF-8" standalone="no"?>
<!DOCTYPE svg PUBLIC "-//W3C//DTD SVG 1.1//EN"
 "http://www.w3.org/Graphics/SVG/1.1/DTD/svg11.dtd">
<!-- Generated by graphviz version 2.43.0 (0)
 -->
<!-- Title: include/gempyre_bitmap.h Pages: 1 -->
<svg width="268pt" height="140pt"
 viewBox="0.00 0.00 268.00 140.00" xmlns="http://www.w3.org/2000/svg" xmlns:xlink="http://www.w3.org/1999/xlink">
<g id="graph0" class="graph" transform="scale(1 1) rotate(0) translate(4 136)">
<title>include/gempyre_bitmap.h</title>
<!-- Node1 -->
<g id="node1" class="node">
<title>Node1</title>
<g id="a_node1"><a xlink:title=" ">
<polygon fill="#bfbfbf" stroke="black" points="20.5,-112.5 20.5,-131.5 167.5,-131.5 167.5,-112.5 20.5,-112.5"/>
<text text-anchor="middle" x="94" y="-119.5" font-family="Helvetica,sans-Serif" font-size="10.00">include/gempyre_bitmap.h</text>
</a>
</g>
</g>
<!-- Node2 -->
<g id="node2" class="node">
<title>Node2</title>
<g id="a_node2"><a xlink:title=" ">
<polygon fill="none" stroke="#bfbfbf" points="0,-56.5 0,-75.5 44,-75.5 44,-56.5 0,-56.5"/>
<text text-anchor="middle" x="22" y="-63.5" font-family="Helvetica,sans-Serif" font-size="10.00">string</text>
</a>
</g>
</g>
<!-- Node1&#45;&gt;Node2 -->
<g id="edge1" class="edge">
<title>Node1&#45;&gt;Node2</title>
<path fill="none" stroke="midnightblue" d="M82.43,-112.32C71.58,-104.18 55.12,-91.84 42.12,-82.09"/>
<polygon fill="midnightblue" stroke="midnightblue" points="43.88,-79.03 33.78,-75.83 39.68,-84.63 43.88,-79.03"/>
</g>
<!-- Node3 -->
<g id="node3" class="node">
<title>Node3</title>
<g id="a_node3"><a xlink:title=" ">
<polygon fill="none" stroke="#bfbfbf" points="62,-56.5 62,-75.5 126,-75.5 126,-56.5 62,-56.5"/>
<text text-anchor="middle" x="94" y="-63.5" font-family="Helvetica,sans-Serif" font-size="10.00">algorithm</text>
</a>
</g>
</g>
<!-- Node1&#45;&gt;Node3 -->
<g id="edge2" class="edge">
<title>Node1&#45;&gt;Node3</title>
<path fill="none" stroke="midnightblue" d="M94,-112.08C94,-105.01 94,-94.86 94,-85.99"/>
<polygon fill="midnightblue" stroke="midnightblue" points="97.5,-85.75 94,-75.75 90.5,-85.75 97.5,-85.75"/>
</g>
<!-- Node4 -->
<g id="node4" class="node">
<title>Node4</title>
<g id="a_node4"><a xlink:href="gempyre__types_8h_source.html" target="_top" xlink:title=" ">
<polygon fill="none" stroke="black" points="144.5,-56.5 144.5,-75.5 245.5,-75.5 245.5,-56.5 144.5,-56.5"/>
<text text-anchor="middle" x="195" y="-63.5" font-family="Helvetica,sans-Serif" font-size="10.00">gempyre_types.h</text>
</a>
</g>
</g>
<!-- Node1&#45;&gt;Node4 -->
<g id="edge3" class="edge">
<title>Node1&#45;&gt;Node4</title>
<path fill="none" stroke="midnightblue" d="M110.23,-112.32C126.35,-103.7 151.3,-90.36 169.96,-80.39"/>
<polygon fill="midnightblue" stroke="midnightblue" points="171.64,-83.46 178.81,-75.65 168.34,-77.28 171.64,-83.46"/>
</g>
<!-- Node5 -->
<g id="node5" class="node">
<title>Node5</title>
<g id="a_node5"><a xlink:title=" ">
<polygon fill="none" stroke="#bfbfbf" points="134,-0.5 134,-19.5 184,-19.5 184,-0.5 134,-0.5"/>
<text text-anchor="middle" x="159" y="-7.5" font-family="Helvetica,sans-Serif" font-size="10.00">cstdint</text>
</a>
</g>
</g>
<!-- Node4&#45;&gt;Node5 -->
<g id="edge4" class="edge">
<title>Node4&#45;&gt;Node5</title>
<path fill="none" stroke="midnightblue" d="M189.06,-56.08C184.02,-48.53 176.66,-37.49 170.49,-28.23"/>
<polygon fill="midnightblue" stroke="midnightblue" points="173.29,-26.13 164.83,-19.75 167.47,-30.01 173.29,-26.13"/>
</g>
<!-- Node6 -->
<g id="node6" class="node">
<title>Node6</title>
<g id="a_node6"><a xlink:title=" ">
<polygon fill="none" stroke="#bfbfbf" points="202,-0.5 202,-19.5 260,-19.5 260,-0.5 202,-0.5"/>
<text text-anchor="middle" x="231" y="-7.5" font-family="Helvetica,sans-Serif" font-size="10.00">memory</text>
</a>
</g>
</g>
<!-- Node4&#45;&gt;Node6 -->
<g id="edge5" class="edge">
<title>Node4&#45;&gt;Node6</title>
<path fill="none" stroke="midnightblue" d="M200.94,-56.08C205.98,-48.53 213.34,-37.49 219.51,-28.23"/>
<polygon fill="midnightblue" stroke="midnightblue" points="222.53,-30.01 225.17,-19.75 216.71,-26.13 222.53,-30.01"/>
</g>
</g>
</svg>
