<?xml version="1.0" encoding="UTF-8" standalone="no"?>
<!DOCTYPE svg PUBLIC "-//W3C//DTD SVG 1.1//EN"
 "http://www.w3.org/Graphics/SVG/1.1/DTD/svg11.dtd">
<!-- Generated by graphviz version 2.43.0 (0)
 -->
<!-- Title: include/gempyre_graphics.h Pages: 1 -->
<svg width="1101pt" height="196pt"
 viewBox="0.00 0.00 1100.50 196.00" xmlns="http://www.w3.org/2000/svg" xmlns:xlink="http://www.w3.org/1999/xlink">
<g id="graph0" class="graph" transform="scale(1 1) rotate(0) translate(4 192)">
<title>include/gempyre_graphics.h</title>
<!-- Node1 -->
<g id="node1" class="node">
<title>Node1</title>
<g id="a_node1"><a xlink:title=" ">
<polygon fill="#bfbfbf" stroke="black" points="597,-168.5 597,-187.5 751,-187.5 751,-168.5 597,-168.5"/>
<text text-anchor="middle" x="674" y="-175.5" font-family="Helvetica,sans-Serif" font-size="10.00">include/gempyre_graphics.h</text>
</a>
</g>
</g>
<!-- Node2 -->
<g id="node2" class="node">
<title>Node2</title>
<g id="a_node2"><a xlink:href="gempyre_8h.html" target="_top" xlink:title=" ">
<polygon fill="none" stroke="black" points="592.5,-112.5 592.5,-131.5 661.5,-131.5 661.5,-112.5 592.5,-112.5"/>
<text text-anchor="middle" x="627" y="-119.5" font-family="Helvetica,sans-Serif" font-size="10.00">gempyre.h</text>
</a>
</g>
</g>
<!-- Node1&#45;&gt;Node2 -->
<g id="edge1" class="edge">
<title>Node1&#45;&gt;Node2</title>
<path fill="none" stroke="midnightblue" d="M666.24,-168.08C659.46,-160.3 649.46,-148.8 641.24,-139.37"/>
<polygon fill="midnightblue" stroke="midnightblue" points="643.82,-137 634.62,-131.75 638.54,-141.59 643.82,-137"/>
</g>
<!-- Node16 -->
<g id="node16" class="node">
<title>Node16</title>
<g id="a_node16"><a xlink:href="gempyre__bitmap_8h.html" target="_top" xlink:title=" ">
<polygon fill="none" stroke="black" points="147.5,-112.5 147.5,-131.5 256.5,-131.5 256.5,-112.5 147.5,-112.5"/>
<text text-anchor="middle" x="202" y="-119.5" font-family="Helvetica,sans-Serif" font-size="10.00">gempyre_bitmap.h</text>
</a>
</g>
</g>
<!-- Node1&#45;&gt;Node16 -->
<g id="edge16" class="edge">
<title>Node1&#45;&gt;Node16</title>
<path fill="none" stroke="midnightblue" d="M599.47,-168.47C507.76,-157.98 353.56,-140.34 266.64,-130.4"/>
<polygon fill="midnightblue" stroke="midnightblue" points="266.97,-126.91 256.64,-129.25 266.18,-133.87 266.97,-126.91"/>
</g>
<!-- Node20 -->
<g id="node20" class="node">
<title>Node20</title>
<g id="a_node20"><a xlink:title=" ">
<polygon fill="none" stroke="#bfbfbf" points="679.5,-112.5 679.5,-131.5 762.5,-131.5 762.5,-112.5 679.5,-112.5"/>
<text text-anchor="middle" x="721" y="-119.5" font-family="Helvetica,sans-Serif" font-size="10.00">initializer_list</text>
</a>
</g>
</g>
<!-- Node1&#45;&gt;Node20 -->
<g id="edge22" class="edge">
<title>Node1&#45;&gt;Node20</title>
<path fill="none" stroke="midnightblue" d="M681.76,-168.08C688.54,-160.3 698.54,-148.8 706.76,-139.37"/>
<polygon fill="midnightblue" stroke="midnightblue" points="709.46,-141.59 713.38,-131.75 704.18,-137 709.46,-141.59"/>
</g>
<!-- Node21 -->
<g id="node21" class="node">
<title>Node21</title>
<g id="a_node21"><a xlink:title=" ">
<polygon fill="none" stroke="#bfbfbf" points="780.5,-112.5 780.5,-131.5 831.5,-131.5 831.5,-112.5 780.5,-112.5"/>
<text text-anchor="middle" x="806" y="-119.5" font-family="Helvetica,sans-Serif" font-size="10.00">variant</text>
</a>
</g>
</g>
<!-- Node1&#45;&gt;Node21 -->
<g id="edge23" class="edge">
<title>Node1&#45;&gt;Node21</title>
<path fill="none" stroke="midnightblue" d="M694.92,-168.44C716.74,-159.52 751.15,-145.44 775.89,-135.32"/>
<polygon fill="midnightblue" stroke="midnightblue" points="777.25,-138.54 785.18,-131.52 774.6,-132.06 777.25,-138.54"/>
</g>
<!-- Node3 -->
<g id="node3" class="node">
<title>Node3</title>
<g id="a_node3"><a xlink:title=" ">
<polygon fill="none" stroke="#bfbfbf" points="210,-56.5 210,-75.5 254,-75.5 254,-56.5 210,-56.5"/>
<text text-anchor="middle" x="232" y="-63.5" font-family="Helvetica,sans-Serif" font-size="10.00">string</text>
</a>
</g>
</g>
<!-- Node2&#45;&gt;Node3 -->
<g id="edge2" class="edge">
<title>Node2&#45;&gt;Node3</title>
<path fill="none" stroke="midnightblue" d="M592.32,-118.57C528.9,-113.72 389.89,-101.24 264.05,-75.92"/>
<polygon fill="midnightblue" stroke="midnightblue" points="264.74,-72.49 254.24,-73.92 263.34,-79.35 264.74,-72.49"/>
</g>
<!-- Node4 -->
<g id="node4" class="node">
<title>Node4</title>
<g id="a_node4"><a xlink:title=" ">
<polygon fill="none" stroke="#bfbfbf" points="794.5,-56.5 794.5,-75.5 887.5,-75.5 887.5,-56.5 794.5,-56.5"/>
<text text-anchor="middle" x="841" y="-63.5" font-family="Helvetica,sans-Serif" font-size="10.00">unordered_map</text>
</a>
</g>
</g>
<!-- Node2&#45;&gt;Node4 -->
<g id="edge3" class="edge">
<title>Node2&#45;&gt;Node4</title>
<path fill="none" stroke="midnightblue" d="M660.91,-112.44C697.85,-103.12 757.05,-88.18 797.42,-78"/>
<polygon fill="midnightblue" stroke="midnightblue" points="798.41,-81.36 807.25,-75.52 796.7,-74.57 798.41,-81.36"/>
</g>
<!-- Node5 -->
<g id="node5" class="node">
<title>Node5</title>
<g id="a_node5"><a xlink:title=" ">
<polygon fill="none" stroke="#bfbfbf" points="905.5,-56.5 905.5,-75.5 970.5,-75.5 970.5,-56.5 905.5,-56.5"/>
<text text-anchor="middle" x="938" y="-63.5" font-family="Helvetica,sans-Serif" font-size="10.00">functional</text>
</a>
</g>
</g>
<!-- Node2&#45;&gt;Node5 -->
<g id="edge4" class="edge">
<title>Node2&#45;&gt;Node5</title>
<path fill="none" stroke="midnightblue" d="M661.56,-113.78C664.75,-113.16 667.93,-112.56 671,-112 767.94,-94.37 795.37,-94.86 895.44,-76.21"/>
<polygon fill="midnightblue" stroke="midnightblue" points="896.18,-79.63 905.36,-74.34 894.89,-72.75 896.18,-79.63"/>
</g>
<!-- Node6 -->
<g id="node6" class="node">
<title>Node6</title>
<g id="a_node6"><a xlink:title=" ">
<polygon fill="none" stroke="#bfbfbf" points="551,-0.5 551,-19.5 609,-19.5 609,-0.5 551,-0.5"/>
<text text-anchor="middle" x="580" y="-7.5" font-family="Helvetica,sans-Serif" font-size="10.00">memory</text>
</a>
</g>
</g>
<!-- Node2&#45;&gt;Node6 -->
<g id="edge5" class="edge">
<title>Node2&#45;&gt;Node6</title>
<path fill="none" stroke="midnightblue" d="M661.59,-112.7C693.35,-104.29 736.96,-90.49 747,-76 752.06,-68.69 752.41,-63.06 747,-56 731.57,-35.86 663.77,-22.71 619.44,-16.09"/>
<polygon fill="midnightblue" stroke="midnightblue" points="619.67,-12.58 609.27,-14.62 618.67,-19.51 619.67,-12.58"/>
</g>
<!-- Node7 -->
<g id="node7" class="node">
<title>Node7</title>
<g id="a_node7"><a xlink:title=" ">
<polygon fill="none" stroke="#bfbfbf" points="989,-56.5 989,-75.5 1039,-75.5 1039,-56.5 989,-56.5"/>
<text text-anchor="middle" x="1014" y="-63.5" font-family="Helvetica,sans-Serif" font-size="10.00">chrono</text>
</a>
</g>
</g>
<!-- Node2&#45;&gt;Node7 -->
<g id="edge6" class="edge">
<title>Node2&#45;&gt;Node7</title>
<path fill="none" stroke="midnightblue" d="M661.54,-113.64C664.73,-113.05 667.92,-112.49 671,-112 804.32,-90.64 842.39,-101.23 978.84,-75.97"/>
<polygon fill="midnightblue" stroke="midnightblue" points="979.66,-79.38 988.84,-74.09 978.37,-72.5 979.66,-79.38"/>
</g>
<!-- Node8 -->
<g id="node8" class="node">
<title>Node8</title>
<g id="a_node8"><a xlink:title=" ">
<polygon fill="none" stroke="#bfbfbf" points="1057.5,-56.5 1057.5,-75.5 1092.5,-75.5 1092.5,-56.5 1057.5,-56.5"/>
<text text-anchor="middle" x="1075" y="-63.5" font-family="Helvetica,sans-Serif" font-size="10.00">any</text>
</a>
</g>
</g>
<!-- Node2&#45;&gt;Node8 -->
<g id="edge7" class="edge">
<title>Node2&#45;&gt;Node8</title>
<path fill="none" stroke="midnightblue" d="M661.53,-113.58C664.72,-113 667.92,-112.46 671,-112 834.21,-87.59 881.49,-109.93 1047.38,-75.61"/>
<polygon fill="midnightblue" stroke="midnightblue" points="1048.38,-78.98 1057.44,-73.49 1046.93,-72.13 1048.38,-78.98"/>
</g>
<!-- Node9 -->
<g id="node9" class="node">
<title>Node9</title>
<g id="a_node9"><a xlink:title=" ">
<polygon fill="none" stroke="#bfbfbf" points="392,-56.5 392,-75.5 448,-75.5 448,-56.5 392,-56.5"/>
<text text-anchor="middle" x="420" y="-63.5" font-family="Helvetica,sans-Serif" font-size="10.00">optional</text>
</a>
</g>
</g>
<!-- Node2&#45;&gt;Node9 -->
<g id="edge8" class="edge">
<title>Node2&#45;&gt;Node9</title>
<path fill="none" stroke="midnightblue" d="M594.2,-112.44C557.26,-102.81 497.3,-87.17 458.26,-76.98"/>
<polygon fill="midnightblue" stroke="midnightblue" points="458.88,-73.53 448.32,-74.39 457.11,-80.3 458.88,-73.53"/>
</g>
<!-- Node10 -->
<g id="node10" class="node">
<title>Node10</title>
<g id="a_node10"><a xlink:title=" ">
<polygon fill="none" stroke="#bfbfbf" points="466.5,-56.5 466.5,-75.5 513.5,-75.5 513.5,-56.5 466.5,-56.5"/>
<text text-anchor="middle" x="490" y="-63.5" font-family="Helvetica,sans-Serif" font-size="10.00">vector</text>
</a>
</g>
</g>
<!-- Node2&#45;&gt;Node10 -->
<g id="edge9" class="edge">
<title>Node2&#45;&gt;Node10</title>
<path fill="none" stroke="midnightblue" d="M605.29,-112.44C582.65,-103.52 546.93,-89.44 521.25,-79.32"/>
<polygon fill="midnightblue" stroke="midnightblue" points="522.19,-75.93 511.61,-75.52 519.63,-82.44 522.19,-75.93"/>
</g>
<!-- Node11 -->
<g id="node11" class="node">
<title>Node11</title>
<g id="a_node11"><a xlink:title=" ">
<polygon fill="none" stroke="#bfbfbf" points="531.5,-56.5 531.5,-75.5 572.5,-75.5 572.5,-56.5 531.5,-56.5"/>
<text text-anchor="middle" x="552" y="-63.5" font-family="Helvetica,sans-Serif" font-size="10.00">tuple</text>
</a>
</g>
</g>
<!-- Node2&#45;&gt;Node11 -->
<g id="edge10" class="edge">
<title>Node2&#45;&gt;Node11</title>
<path fill="none" stroke="midnightblue" d="M614.95,-112.32C603.54,-104.11 586.17,-91.6 572.57,-81.81"/>
<polygon fill="midnightblue" stroke="midnightblue" points="574.43,-78.84 564.27,-75.83 570.34,-84.52 574.43,-78.84"/>
</g>
<!-- Node12 -->
<g id="node12" class="node">
<title>Node12</title>
<g id="a_node12"><a xlink:title=" ">
<polygon fill="none" stroke="#bfbfbf" points="590.5,-56.5 590.5,-75.5 663.5,-75.5 663.5,-56.5 590.5,-56.5"/>
<text text-anchor="middle" x="627" y="-63.5" font-family="Helvetica,sans-Serif" font-size="10.00">string_view</text>
</a>
</g>
</g>
<!-- Node2&#45;&gt;Node12 -->
<g id="edge11" class="edge">
<title>Node2&#45;&gt;Node12</title>
<path fill="none" stroke="midnightblue" d="M627,-112.08C627,-105.01 627,-94.86 627,-85.99"/>
<polygon fill="midnightblue" stroke="midnightblue" points="630.5,-85.75 627,-75.75 623.5,-85.75 630.5,-85.75"/>
</g>
<!-- Node13 -->
<g id="node13" class="node">
<title>Node13</title>
<g id="a_node13"><a xlink:title=" ">
<polygon fill="none" stroke="#bfbfbf" points="682,-56.5 682,-75.5 738,-75.5 738,-56.5 682,-56.5"/>
<text text-anchor="middle" x="710" y="-63.5" font-family="Helvetica,sans-Serif" font-size="10.00">sstream</text>
</a>
</g>
</g>
<!-- Node2&#45;&gt;Node13 -->
<g id="edge12" class="edge">
<title>Node2&#45;&gt;Node13</title>
<path fill="none" stroke="midnightblue" d="M640.34,-112.32C653.16,-103.98 672.78,-91.21 687.94,-81.35"/>
<polygon fill="midnightblue" stroke="midnightblue" points="690.22,-84.04 696.7,-75.65 686.41,-78.17 690.22,-84.04"/>
</g>
<!-- Node14 -->
<g id="node14" class="node">
<title>Node14</title>
<g id="a_node14"><a xlink:href="gempyre__types_8h_source.html" target="_top" xlink:title=" ">
<polygon fill="none" stroke="black" points="272.5,-56.5 272.5,-75.5 373.5,-75.5 373.5,-56.5 272.5,-56.5"/>
<text text-anchor="middle" x="323" y="-63.5" font-family="Helvetica,sans-Serif" font-size="10.00">gempyre_types.h</text>
</a>
</g>
</g>
<!-- Node2&#45;&gt;Node14 -->
<g id="edge13" class="edge">
<title>Node2&#45;&gt;Node14</title>
<path fill="none" stroke="midnightblue" d="M592.42,-114.86C540.98,-105.72 443.64,-88.43 381.12,-77.32"/>
<polygon fill="midnightblue" stroke="midnightblue" points="381.48,-73.83 371.02,-75.53 380.25,-80.72 381.48,-73.83"/>
</g>
<!-- Node14&#45;&gt;Node6 -->
<g id="edge15" class="edge">
<title>Node14&#45;&gt;Node6</title>
<path fill="none" stroke="midnightblue" d="M363.72,-56.44C412.25,-46.25 492.76,-29.33 540.67,-19.26"/>
<polygon fill="midnightblue" stroke="midnightblue" points="541.59,-22.65 550.66,-17.16 540.15,-15.8 541.59,-22.65"/>
</g>
<!-- Node15 -->
<g id="node15" class="node">
<title>Node15</title>
<g id="a_node15"><a xlink:title=" ">
<polygon fill="none" stroke="#bfbfbf" points="298,-0.5 298,-19.5 348,-19.5 348,-0.5 298,-0.5"/>
<text text-anchor="middle" x="323" y="-7.5" font-family="Helvetica,sans-Serif" font-size="10.00">cstdint</text>
</a>
</g>
</g>
<!-- Node14&#45;&gt;Node15 -->
<g id="edge14" class="edge">
<title>Node14&#45;&gt;Node15</title>
<path fill="none" stroke="midnightblue" d="M323,-56.08C323,-49.01 323,-38.86 323,-29.99"/>
<polygon fill="midnightblue" stroke="midnightblue" points="326.5,-29.75 323,-19.75 319.5,-29.75 326.5,-29.75"/>
</g>
<!-- Node16&#45;&gt;Node3 -->
<g id="edge17" class="edge">
<title>Node16&#45;&gt;Node3</title>
<path fill="none" stroke="midnightblue" d="M206.95,-112.08C211.1,-104.61 217.15,-93.72 222.27,-84.52"/>
<polygon fill="midnightblue" stroke="midnightblue" points="225.34,-86.19 227.14,-75.75 219.22,-82.79 225.34,-86.19"/>
</g>
<!-- Node16&#45;&gt;Node14 -->
<g id="edge20" class="edge">
<title>Node16&#45;&gt;Node14</title>
<path fill="none" stroke="midnightblue" d="M221.17,-112.44C240.91,-103.64 271.89,-89.81 294.49,-79.72"/>
<polygon fill="midnightblue" stroke="midnightblue" points="296.21,-82.79 303.92,-75.52 293.36,-76.4 296.21,-82.79"/>
</g>
<!-- Node17 -->
<g id="node17" class="node">
<title>Node17</title>
<g id="a_node17"><a xlink:title=" ">
<polygon fill="none" stroke="#bfbfbf" points="0,-56.5 0,-75.5 64,-75.5 64,-56.5 0,-56.5"/>
<text text-anchor="middle" x="32" y="-63.5" font-family="Helvetica,sans-Serif" font-size="10.00">algorithm</text>
</a>
</g>
</g>
<!-- Node16&#45;&gt;Node17 -->
<g id="edge18" class="edge">
<title>Node16&#45;&gt;Node17</title>
<path fill="none" stroke="midnightblue" d="M175.06,-112.44C146.34,-103.32 100.67,-88.81 68.68,-78.65"/>
<polygon fill="midnightblue" stroke="midnightblue" points="69.4,-75.21 58.81,-75.52 67.28,-81.88 69.4,-75.21"/>
</g>
<!-- Node18 -->
<g id="node18" class="node">
<title>Node18</title>
<g id="a_node18"><a xlink:title=" ">
<polygon fill="none" stroke="#bfbfbf" points="82,-56.5 82,-75.5 132,-75.5 132,-56.5 82,-56.5"/>
<text text-anchor="middle" x="107" y="-63.5" font-family="Helvetica,sans-Serif" font-size="10.00">cstring</text>
</a>
</g>
</g>
<!-- Node16&#45;&gt;Node18 -->
<g id="edge19" class="edge">
<title>Node16&#45;&gt;Node18</title>
<path fill="none" stroke="midnightblue" d="M186.74,-112.32C171.78,-103.82 148.75,-90.73 131.27,-80.8"/>
<polygon fill="midnightblue" stroke="midnightblue" points="132.65,-77.55 122.23,-75.65 129.19,-83.64 132.65,-77.55"/>
</g>
<!-- Node19 -->
<g id="node19" class="node">
<title>Node19</title>
<g id="a_node19"><a xlink:title=" ">
<polygon fill="none" stroke="#bfbfbf" points="150,-56.5 150,-75.5 192,-75.5 192,-56.5 150,-56.5"/>
<text text-anchor="middle" x="171" y="-63.5" font-family="Helvetica,sans-Serif" font-size="10.00">array</text>
</a>
</g>
</g>
<!-- Node16&#45;&gt;Node19 -->
<g id="edge21" class="edge">
<title>Node16&#45;&gt;Node19</title>
<path fill="none" stroke="midnightblue" d="M196.88,-112.08C192.59,-104.61 186.34,-93.72 181.06,-84.52"/>
<polygon fill="midnightblue" stroke="midnightblue" points="184.04,-82.68 176.02,-75.75 177.97,-86.17 184.04,-82.68"/>
</g>
</g>
</svg>
