<?xml version="1.0" encoding="UTF-8" standalone="no"?>
<!DOCTYPE svg PUBLIC "-//W3C//DTD SVG 1.1//EN"
 "http://www.w3.org/Graphics/SVG/1.1/DTD/svg11.dtd">
<!-- Generated by graphviz version 2.43.0 (0)
 -->
<!-- Title: include/gempyre.h Pages: 1 -->
<svg width="644pt" height="84pt"
 viewBox="0.00 0.00 643.50 84.00" xmlns="http://www.w3.org/2000/svg" xmlns:xlink="http://www.w3.org/1999/xlink">
<g id="graph0" class="graph" transform="scale(1 1) rotate(0) translate(4 80)">
<title>include/gempyre.h</title>
<!-- Node1 -->
<g id="node1" class="node">
<title>Node1</title>
<g id="a_node1"><a xlink:title=" ">
<polygon fill="#bfbfbf" stroke="black" points="304.5,-56.5 304.5,-75.5 411.5,-75.5 411.5,-56.5 304.5,-56.5"/>
<text text-anchor="middle" x="358" y="-63.5" font-family="Helvetica,sans-Serif" font-size="10.00">include/gempyre.h</text>
</a>
</g>
</g>
<!-- Node2 -->
<g id="node2" class="node">
<title>Node2</title>
<g id="a_node2"><a xlink:title=" ">
<polygon fill="none" stroke="#bfbfbf" points="0,-0.5 0,-19.5 44,-19.5 44,-0.5 0,-0.5"/>
<text text-anchor="middle" x="22" y="-7.5" font-family="Helvetica,sans-Serif" font-size="10.00">string</text>
</a>
</g>
</g>
<!-- Node1&#45;&gt;Node2 -->
<g id="edge1" class="edge">
<title>Node1&#45;&gt;Node2</title>
<path fill="none" stroke="midnightblue" d="M304.43,-59.33C245.3,-52.58 147.2,-39.9 54.12,-20"/>
<polygon fill="midnightblue" stroke="midnightblue" points="54.77,-16.56 44.26,-17.86 53.29,-23.4 54.77,-16.56"/>
</g>
<!-- Node3 -->
<g id="node3" class="node">
<title>Node3</title>
<g id="a_node3"><a xlink:title=" ">
<polygon fill="none" stroke="#bfbfbf" points="62.5,-0.5 62.5,-19.5 155.5,-19.5 155.5,-0.5 62.5,-0.5"/>
<text text-anchor="middle" x="109" y="-7.5" font-family="Helvetica,sans-Serif" font-size="10.00">unordered_map</text>
</a>
</g>
</g>
<!-- Node1&#45;&gt;Node3 -->
<g id="edge2" class="edge">
<title>Node1&#45;&gt;Node3</title>
<path fill="none" stroke="midnightblue" d="M318.55,-56.44C275.11,-47.02 205.21,-31.87 158.22,-21.68"/>
<polygon fill="midnightblue" stroke="midnightblue" points="158.78,-18.22 148.27,-19.52 157.3,-25.06 158.78,-18.22"/>
</g>
<!-- Node4 -->
<g id="node4" class="node">
<title>Node4</title>
<g id="a_node4"><a xlink:title=" ">
<polygon fill="none" stroke="#bfbfbf" points="173.5,-0.5 173.5,-19.5 238.5,-19.5 238.5,-0.5 173.5,-0.5"/>
<text text-anchor="middle" x="206" y="-7.5" font-family="Helvetica,sans-Serif" font-size="10.00">functional</text>
</a>
</g>
</g>
<!-- Node1&#45;&gt;Node4 -->
<g id="edge3" class="edge">
<title>Node1&#45;&gt;Node4</title>
<path fill="none" stroke="midnightblue" d="M333.92,-56.44C308.46,-47.4 268.11,-33.06 239.54,-22.92"/>
<polygon fill="midnightblue" stroke="midnightblue" points="240.57,-19.57 229.97,-19.52 238.22,-26.16 240.57,-19.57"/>
</g>
<!-- Node5 -->
<g id="node5" class="node">
<title>Node5</title>
<g id="a_node5"><a xlink:title=" ">
<polygon fill="none" stroke="#bfbfbf" points="257,-0.5 257,-19.5 315,-19.5 315,-0.5 257,-0.5"/>
<text text-anchor="middle" x="286" y="-7.5" font-family="Helvetica,sans-Serif" font-size="10.00">memory</text>
</a>
</g>
</g>
<!-- Node1&#45;&gt;Node5 -->
<g id="edge4" class="edge">
<title>Node1&#45;&gt;Node5</title>
<path fill="none" stroke="midnightblue" d="M346.43,-56.32C335.58,-48.18 319.12,-35.84 306.12,-26.09"/>
<polygon fill="midnightblue" stroke="midnightblue" points="307.88,-23.03 297.78,-19.83 303.68,-28.63 307.88,-23.03"/>
</g>
<!-- Node6 -->
<g id="node6" class="node">
<title>Node6</title>
<g id="a_node6"><a xlink:title=" ">
<polygon fill="none" stroke="#bfbfbf" points="333,-0.5 333,-19.5 383,-19.5 383,-0.5 333,-0.5"/>
<text text-anchor="middle" x="358" y="-7.5" font-family="Helvetica,sans-Serif" font-size="10.00">chrono</text>
</a>
</g>
</g>
<!-- Node1&#45;&gt;Node6 -->
<g id="edge5" class="edge">
<title>Node1&#45;&gt;Node6</title>
<path fill="none" stroke="midnightblue" d="M358,-56.08C358,-49.01 358,-38.86 358,-29.99"/>
<polygon fill="midnightblue" stroke="midnightblue" points="361.5,-29.75 358,-19.75 354.5,-29.75 361.5,-29.75"/>
</g>
<!-- Node7 -->
<g id="node7" class="node">
<title>Node7</title>
<g id="a_node7"><a xlink:title=" ">
<polygon fill="none" stroke="#bfbfbf" points="401.5,-0.5 401.5,-19.5 436.5,-19.5 436.5,-0.5 401.5,-0.5"/>
<text text-anchor="middle" x="419" y="-7.5" font-family="Helvetica,sans-Serif" font-size="10.00">any</text>
</a>
</g>
</g>
<!-- Node1&#45;&gt;Node7 -->
<g id="edge6" class="edge">
<title>Node1&#45;&gt;Node7</title>
<path fill="none" stroke="midnightblue" d="M367.8,-56.32C376.82,-48.34 390.41,-36.31 401.32,-26.65"/>
<polygon fill="midnightblue" stroke="midnightblue" points="403.85,-29.08 409.02,-19.83 399.21,-23.84 403.85,-29.08"/>
</g>
<!-- Node8 -->
<g id="node8" class="node">
<title>Node8</title>
<g id="a_node8"><a xlink:title=" ">
<polygon fill="none" stroke="#bfbfbf" points="455,-0.5 455,-19.5 511,-19.5 511,-0.5 455,-0.5"/>
<text text-anchor="middle" x="483" y="-7.5" font-family="Helvetica,sans-Serif" font-size="10.00">optional</text>
</a>
</g>
</g>
<!-- Node1&#45;&gt;Node8 -->
<g id="edge7" class="edge">
<title>Node1&#45;&gt;Node8</title>
<path fill="none" stroke="midnightblue" d="M377.81,-56.44C398.29,-47.6 430.48,-33.69 453.86,-23.59"/>
<polygon fill="midnightblue" stroke="midnightblue" points="455.49,-26.7 463.29,-19.52 452.72,-20.27 455.49,-26.7"/>
</g>
<!-- Node9 -->
<g id="node9" class="node">
<title>Node9</title>
<g id="a_node9"><a xlink:title=" ">
<polygon fill="none" stroke="#bfbfbf" points="529.5,-0.5 529.5,-19.5 576.5,-19.5 576.5,-0.5 529.5,-0.5"/>
<text text-anchor="middle" x="553" y="-7.5" font-family="Helvetica,sans-Serif" font-size="10.00">vector</text>
</a>
</g>
</g>
<!-- Node1&#45;&gt;Node9 -->
<g id="edge8" class="edge">
<title>Node1&#45;&gt;Node9</title>
<path fill="none" stroke="midnightblue" d="M388.9,-56.44C424.53,-46.58 482.9,-30.41 519.57,-20.26"/>
<polygon fill="midnightblue" stroke="midnightblue" points="520.6,-23.6 529.3,-17.56 518.73,-16.86 520.6,-23.6"/>
</g>
<!-- Node10 -->
<g id="node10" class="node">
<title>Node10</title>
<g id="a_node10"><a xlink:title=" ">
<polygon fill="none" stroke="#bfbfbf" points="594.5,-0.5 594.5,-19.5 635.5,-19.5 635.5,-0.5 594.5,-0.5"/>
<text text-anchor="middle" x="615" y="-7.5" font-family="Helvetica,sans-Serif" font-size="10.00">tuple</text>
</a>
</g>
</g>
<!-- Node1&#45;&gt;Node10 -->
<g id="edge9" class="edge">
<title>Node1&#45;&gt;Node10</title>
<path fill="none" stroke="midnightblue" d="M409.51,-56.44C453.68,-48.74 519.18,-36.47 584.44,-20.2"/>
<polygon fill="midnightblue" stroke="midnightblue" points="585.64,-23.51 594.48,-17.66 583.93,-16.72 585.64,-23.51"/>
</g>
</g>
</svg>
