<?xml version="1.0" encoding="UTF-8" standalone="no"?>
<!DOCTYPE svg PUBLIC "-//W3C//DTD SVG 1.1//EN"
 "http://www.w3.org/Graphics/SVG/1.1/DTD/svg11.dtd">
<!-- Generated by graphviz version 2.43.0 (0)
 -->
<!-- Title: include/gempyre_utils.h Pages: 1 -->
<svg width="953pt" height="84pt"
 viewBox="0.00 0.00 952.50 84.00" xmlns="http://www.w3.org/2000/svg" xmlns:xlink="http://www.w3.org/1999/xlink">
<g id="graph0" class="graph" transform="scale(1 1) rotate(0) translate(4 80)">
<title>include/gempyre_utils.h</title>
<!-- Node1 -->
<g id="node1" class="node">
<title>Node1</title>
<g id="a_node1"><a xlink:title=" ">
<polygon fill="#bfbfbf" stroke="black" points="397,-56.5 397,-75.5 531,-75.5 531,-56.5 397,-56.5"/>
<text text-anchor="middle" x="464" y="-63.5" font-family="Helvetica,sans-Serif" font-size="10.00">include/gempyre_utils.h</text>
</a>
</g>
</g>
<!-- Node2 -->
<g id="node2" class="node">
<title>Node2</title>
<g id="a_node2"><a xlink:title=" ">
<polygon fill="none" stroke="#bfbfbf" points="0,-0.5 0,-19.5 44,-19.5 44,-0.5 0,-0.5"/>
<text text-anchor="middle" x="22" y="-7.5" font-family="Helvetica,sans-Serif" font-size="10.00">ctime</text>
</a>
</g>
</g>
<!-- Node1&#45;&gt;Node2 -->
<g id="edge1" class="edge">
<title>Node1&#45;&gt;Node2</title>
<path fill="none" stroke="midnightblue" d="M396.9,-61.24C317.16,-55.97 180.05,-44.38 54.06,-19.9"/>
<polygon fill="midnightblue" stroke="midnightblue" points="54.73,-16.46 44.24,-17.96 53.37,-23.33 54.73,-16.46"/>
</g>
<!-- Node3 -->
<g id="node3" class="node">
<title>Node3</title>
<g id="a_node3"><a xlink:title=" ">
<polygon fill="none" stroke="#bfbfbf" points="62,-0.5 62,-19.5 112,-19.5 112,-0.5 62,-0.5"/>
<text text-anchor="middle" x="87" y="-7.5" font-family="Helvetica,sans-Serif" font-size="10.00">chrono</text>
</a>
</g>
</g>
<!-- Node1&#45;&gt;Node3 -->
<g id="edge2" class="edge">
<title>Node1&#45;&gt;Node3</title>
<path fill="none" stroke="midnightblue" d="M396.87,-58.77C329.66,-51.94 223.15,-39.56 122.23,-20.02"/>
<polygon fill="midnightblue" stroke="midnightblue" points="122.65,-16.54 112.17,-18.05 121.31,-23.41 122.65,-16.54"/>
</g>
<!-- Node4 -->
<g id="node4" class="node">
<title>Node4</title>
<g id="a_node4"><a xlink:title=" ">
<polygon fill="none" stroke="#bfbfbf" points="130.5,-0.5 130.5,-19.5 177.5,-19.5 177.5,-0.5 130.5,-0.5"/>
<text text-anchor="middle" x="154" y="-7.5" font-family="Helvetica,sans-Serif" font-size="10.00">vector</text>
</a>
</g>
</g>
<!-- Node1&#45;&gt;Node4 -->
<g id="edge3" class="edge">
<title>Node1&#45;&gt;Node4</title>
<path fill="none" stroke="midnightblue" d="M399.55,-56.49C345.49,-48.9 266.09,-36.73 187.76,-19.97"/>
<polygon fill="midnightblue" stroke="midnightblue" points="188.23,-16.49 177.72,-17.79 186.75,-23.33 188.23,-16.49"/>
</g>
<!-- Node5 -->
<g id="node5" class="node">
<title>Node5</title>
<g id="a_node5"><a xlink:title=" ">
<polygon fill="none" stroke="#bfbfbf" points="196,-0.5 196,-19.5 234,-19.5 234,-0.5 196,-0.5"/>
<text text-anchor="middle" x="215" y="-7.5" font-family="Helvetica,sans-Serif" font-size="10.00">map</text>
</a>
</g>
</g>
<!-- Node1&#45;&gt;Node5 -->
<g id="edge4" class="edge">
<title>Node1&#45;&gt;Node5</title>
<path fill="none" stroke="midnightblue" d="M414.05,-56.45C371.22,-48.76 307.72,-36.49 244.01,-20.04"/>
<polygon fill="midnightblue" stroke="midnightblue" points="244.76,-16.62 234.2,-17.48 242.99,-23.39 244.76,-16.62"/>
</g>
<!-- Node6 -->
<g id="node6" class="node">
<title>Node6</title>
<g id="a_node6"><a xlink:title=" ">
<polygon fill="none" stroke="#bfbfbf" points="252,-0.5 252,-19.5 308,-19.5 308,-0.5 252,-0.5"/>
<text text-anchor="middle" x="280" y="-7.5" font-family="Helvetica,sans-Serif" font-size="10.00">sstream</text>
</a>
</g>
</g>
<!-- Node1&#45;&gt;Node6 -->
<g id="edge5" class="edge">
<title>Node1&#45;&gt;Node6</title>
<path fill="none" stroke="midnightblue" d="M434.84,-56.44C403.21,-47.16 352.59,-32.3 317.89,-22.12"/>
<polygon fill="midnightblue" stroke="midnightblue" points="318.69,-18.71 308.11,-19.25 316.72,-25.43 318.69,-18.71"/>
</g>
<!-- Node7 -->
<g id="node7" class="node">
<title>Node7</title>
<g id="a_node7"><a xlink:title=" ">
<polygon fill="none" stroke="#bfbfbf" points="326.5,-0.5 326.5,-19.5 381.5,-19.5 381.5,-0.5 326.5,-0.5"/>
<text text-anchor="middle" x="354" y="-7.5" font-family="Helvetica,sans-Serif" font-size="10.00">fstream</text>
</a>
</g>
</g>
<!-- Node1&#45;&gt;Node7 -->
<g id="edge6" class="edge">
<title>Node1&#45;&gt;Node7</title>
<path fill="none" stroke="midnightblue" d="M446.33,-56.32C428.61,-47.62 401.1,-34.12 380.71,-24.11"/>
<polygon fill="midnightblue" stroke="midnightblue" points="382.15,-20.92 371.63,-19.65 379.06,-27.2 382.15,-20.92"/>
</g>
<!-- Node8 -->
<g id="node8" class="node">
<title>Node8</title>
<g id="a_node8"><a xlink:title=" ">
<polygon fill="none" stroke="#bfbfbf" points="400,-0.5 400,-19.5 456,-19.5 456,-0.5 400,-0.5"/>
<text text-anchor="middle" x="428" y="-7.5" font-family="Helvetica,sans-Serif" font-size="10.00">optional</text>
</a>
</g>
</g>
<!-- Node1&#45;&gt;Node8 -->
<g id="edge7" class="edge">
<title>Node1&#45;&gt;Node8</title>
<path fill="none" stroke="midnightblue" d="M458.06,-56.08C453.02,-48.53 445.66,-37.49 439.49,-28.23"/>
<polygon fill="midnightblue" stroke="midnightblue" points="442.29,-26.13 433.83,-19.75 436.47,-30.01 442.29,-26.13"/>
</g>
<!-- Node9 -->
<g id="node9" class="node">
<title>Node9</title>
<g id="a_node9"><a xlink:title=" ">
<polygon fill="none" stroke="#bfbfbf" points="474.5,-0.5 474.5,-19.5 525.5,-19.5 525.5,-0.5 474.5,-0.5"/>
<text text-anchor="middle" x="500" y="-7.5" font-family="Helvetica,sans-Serif" font-size="10.00">variant</text>
</a>
</g>
</g>
<!-- Node1&#45;&gt;Node9 -->
<g id="edge8" class="edge">
<title>Node1&#45;&gt;Node9</title>
<path fill="none" stroke="midnightblue" d="M469.94,-56.08C474.98,-48.53 482.34,-37.49 488.51,-28.23"/>
<polygon fill="midnightblue" stroke="midnightblue" points="491.53,-30.01 494.17,-19.75 485.71,-26.13 491.53,-30.01"/>
</g>
<!-- Node10 -->
<g id="node10" class="node">
<title>Node10</title>
<g id="a_node10"><a xlink:title=" ">
<polygon fill="none" stroke="#bfbfbf" points="543.5,-0.5 543.5,-19.5 608.5,-19.5 608.5,-0.5 543.5,-0.5"/>
<text text-anchor="middle" x="576" y="-7.5" font-family="Helvetica,sans-Serif" font-size="10.00">functional</text>
</a>
</g>
</g>
<!-- Node1&#45;&gt;Node10 -->
<g id="edge9" class="edge">
<title>Node1&#45;&gt;Node10</title>
<path fill="none" stroke="midnightblue" d="M481.99,-56.32C500.04,-47.62 528.05,-34.12 548.8,-24.11"/>
<polygon fill="midnightblue" stroke="midnightblue" points="550.56,-27.15 558.05,-19.65 547.52,-20.84 550.56,-27.15"/>
</g>
<!-- Node11 -->
<g id="node11" class="node">
<title>Node11</title>
<g id="a_node11"><a xlink:title=" ">
<polygon fill="none" stroke="#bfbfbf" points="627,-0.5 627,-19.5 691,-19.5 691,-0.5 627,-0.5"/>
<text text-anchor="middle" x="659" y="-7.5" font-family="Helvetica,sans-Serif" font-size="10.00">algorithm</text>
</a>
</g>
</g>
<!-- Node1&#45;&gt;Node11 -->
<g id="edge10" class="edge">
<title>Node1&#45;&gt;Node11</title>
<path fill="none" stroke="midnightblue" d="M494.9,-56.44C528.27,-47.2 581.59,-32.44 618.35,-22.26"/>
<polygon fill="midnightblue" stroke="midnightblue" points="619.54,-25.56 628.25,-19.52 617.67,-18.81 619.54,-25.56"/>
</g>
<!-- Node12 -->
<g id="node12" class="node">
<title>Node12</title>
<g id="a_node12"><a xlink:title=" ">
<polygon fill="none" stroke="#bfbfbf" points="709,-0.5 709,-19.5 755,-19.5 755,-0.5 709,-0.5"/>
<text text-anchor="middle" x="732" y="-7.5" font-family="Helvetica,sans-Serif" font-size="10.00">future</text>
</a>
</g>
</g>
<!-- Node1&#45;&gt;Node12 -->
<g id="edge11" class="edge">
<title>Node1&#45;&gt;Node12</title>
<path fill="none" stroke="midnightblue" d="M515.83,-56.43C561.58,-48.58 630.26,-36.06 698.87,-20.11"/>
<polygon fill="midnightblue" stroke="midnightblue" points="700.06,-23.42 708.99,-17.73 698.45,-16.61 700.06,-23.42"/>
</g>
<!-- Node13 -->
<g id="node13" class="node">
<title>Node13</title>
<g id="a_node13"><a xlink:title=" ">
<polygon fill="none" stroke="#bfbfbf" points="773,-0.5 773,-19.5 817,-19.5 817,-0.5 773,-0.5"/>
<text text-anchor="middle" x="795" y="-7.5" font-family="Helvetica,sans-Serif" font-size="10.00">limits</text>
</a>
</g>
</g>
<!-- Node1&#45;&gt;Node13 -->
<g id="edge12" class="edge">
<title>Node1&#45;&gt;Node13</title>
<path fill="none" stroke="midnightblue" d="M531.19,-57.53C590.04,-50.39 677.95,-38.3 762.93,-19.99"/>
<polygon fill="midnightblue" stroke="midnightblue" points="763.72,-23.4 772.74,-17.85 762.22,-16.56 763.72,-23.4"/>
</g>
<!-- Node14 -->
<g id="node14" class="node">
<title>Node14</title>
<g id="a_node14"><a xlink:title=" ">
<polygon fill="none" stroke="#bfbfbf" points="835,-0.5 835,-19.5 891,-19.5 891,-0.5 835,-0.5"/>
<text text-anchor="middle" x="863" y="-7.5" font-family="Helvetica,sans-Serif" font-size="10.00">iomanip</text>
</a>
</g>
</g>
<!-- Node1&#45;&gt;Node14 -->
<g id="edge13" class="edge">
<title>Node1&#45;&gt;Node14</title>
<path fill="none" stroke="midnightblue" d="M531.07,-58.99C601.8,-52.13 716.62,-39.51 824.69,-20.06"/>
<polygon fill="midnightblue" stroke="midnightblue" points="825.58,-23.45 834.79,-18.22 824.32,-16.57 825.58,-23.45"/>
</g>
<!-- Node15 -->
<g id="node15" class="node">
<title>Node15</title>
<g id="a_node15"><a xlink:title=" ">
<polygon fill="none" stroke="#bfbfbf" points="909.5,-0.5 909.5,-19.5 944.5,-19.5 944.5,-0.5 909.5,-0.5"/>
<text text-anchor="middle" x="927" y="-7.5" font-family="Helvetica,sans-Serif" font-size="10.00">any</text>
</a>
</g>
</g>
<!-- Node1&#45;&gt;Node15 -->
<g id="edge14" class="edge">
<title>Node1&#45;&gt;Node15</title>
<path fill="none" stroke="midnightblue" d="M531.19,-62.62C615.33,-58.64 763.84,-48.26 899.29,-19.65"/>
<polygon fill="midnightblue" stroke="midnightblue" points="900.4,-22.99 909.44,-17.47 898.92,-16.15 900.4,-22.99"/>
</g>
</g>
</svg>
