<?xml version="1.0" encoding="UTF-8" standalone="no"?>
<!DOCTYPE svg PUBLIC "-//W3C//DTD SVG 1.1//EN"
 "http://www.w3.org/Graphics/SVG/1.1/DTD/svg11.dtd">
<!-- Generated by graphviz version 2.43.0 (0)
 -->
<!-- Title: include/gempyre_graphics.h Pages: 1 -->
<svg width="1042pt" height="196pt"
 viewBox="0.00 0.00 1041.50 196.00" xmlns="http://www.w3.org/2000/svg" xmlns:xlink="http://www.w3.org/1999/xlink">
<g id="graph0" class="graph" transform="scale(1 1) rotate(0) translate(4 192)">
<title>include/gempyre_graphics.h</title>
<!-- Node1 -->
<g id="node1" class="node">
<title>Node1</title>
<g id="a_node1"><a xlink:title=" ">
<polygon fill="#bfbfbf" stroke="black" points="536,-168.5 536,-187.5 690,-187.5 690,-168.5 536,-168.5"/>
<text text-anchor="middle" x="613" y="-175.5" font-family="Helvetica,sans-Serif" font-size="10.00">include/gempyre_graphics.h</text>
</a>
</g>
</g>
<!-- Node2 -->
<g id="node2" class="node">
<title>Node2</title>
<g id="a_node2"><a xlink:href="gempyre_8h.html" target="_top" xlink:title=" ">
<polygon fill="none" stroke="black" points="531.5,-112.5 531.5,-131.5 600.5,-131.5 600.5,-112.5 531.5,-112.5"/>
<text text-anchor="middle" x="566" y="-119.5" font-family="Helvetica,sans-Serif" font-size="10.00">gempyre.h</text>
</a>
</g>
</g>
<!-- Node1&#45;&gt;Node2 -->
<g id="edge1" class="edge">
<title>Node1&#45;&gt;Node2</title>
<path fill="none" stroke="midnightblue" d="M605.24,-168.08C598.46,-160.3 588.46,-148.8 580.24,-139.37"/>
<polygon fill="midnightblue" stroke="midnightblue" points="582.82,-137 573.62,-131.75 577.54,-141.59 582.82,-137"/>
</g>
<!-- Node16 -->
<g id="node16" class="node">
<title>Node16</title>
<g id="a_node16"><a xlink:href="gempyre__bitmap_8h.html" target="_top" xlink:title=" ">
<polygon fill="none" stroke="black" points="146.5,-112.5 146.5,-131.5 255.5,-131.5 255.5,-112.5 146.5,-112.5"/>
<text text-anchor="middle" x="201" y="-119.5" font-family="Helvetica,sans-Serif" font-size="10.00">gempyre_bitmap.h</text>
</a>
</g>
</g>
<!-- Node1&#45;&gt;Node16 -->
<g id="edge16" class="edge">
<title>Node1&#45;&gt;Node16</title>
<path fill="none" stroke="midnightblue" d="M547.72,-168.44C470.52,-158.33 342.82,-141.59 265.82,-131.5"/>
<polygon fill="midnightblue" stroke="midnightblue" points="266.14,-128.01 255.77,-130.18 265.23,-134.95 266.14,-128.01"/>
</g>
<!-- Node19 -->
<g id="node19" class="node">
<title>Node19</title>
<g id="a_node19"><a xlink:title=" ">
<polygon fill="none" stroke="#bfbfbf" points="618.5,-112.5 618.5,-131.5 701.5,-131.5 701.5,-112.5 618.5,-112.5"/>
<text text-anchor="middle" x="660" y="-119.5" font-family="Helvetica,sans-Serif" font-size="10.00">initializer_list</text>
</a>
</g>
</g>
<!-- Node1&#45;&gt;Node19 -->
<g id="edge21" class="edge">
<title>Node1&#45;&gt;Node19</title>
<path fill="none" stroke="midnightblue" d="M620.76,-168.08C627.54,-160.3 637.54,-148.8 645.76,-139.37"/>
<polygon fill="midnightblue" stroke="midnightblue" points="648.46,-141.59 652.38,-131.75 643.18,-137 648.46,-141.59"/>
</g>
<!-- Node20 -->
<g id="node20" class="node">
<title>Node20</title>
<g id="a_node20"><a xlink:title=" ">
<polygon fill="none" stroke="#bfbfbf" points="719.5,-112.5 719.5,-131.5 770.5,-131.5 770.5,-112.5 719.5,-112.5"/>
<text text-anchor="middle" x="745" y="-119.5" font-family="Helvetica,sans-Serif" font-size="10.00">variant</text>
</a>
</g>
</g>
<!-- Node1&#45;&gt;Node20 -->
<g id="edge22" class="edge">
<title>Node1&#45;&gt;Node20</title>
<path fill="none" stroke="midnightblue" d="M633.92,-168.44C655.74,-159.52 690.15,-145.44 714.89,-135.32"/>
<polygon fill="midnightblue" stroke="midnightblue" points="716.25,-138.54 724.18,-131.52 713.6,-132.06 716.25,-138.54"/>
</g>
<!-- Node3 -->
<g id="node3" class="node">
<title>Node3</title>
<g id="a_node3"><a xlink:title=" ">
<polygon fill="none" stroke="#bfbfbf" points="270,-56.5 270,-75.5 314,-75.5 314,-56.5 270,-56.5"/>
<text text-anchor="middle" x="292" y="-63.5" font-family="Helvetica,sans-Serif" font-size="10.00">string</text>
</a>
</g>
</g>
<!-- Node2&#45;&gt;Node3 -->
<g id="edge2" class="edge">
<title>Node2&#45;&gt;Node3</title>
<path fill="none" stroke="midnightblue" d="M531.17,-115.67C485.72,-108.47 403.57,-94.62 324.42,-76.15"/>
<polygon fill="midnightblue" stroke="midnightblue" points="324.82,-72.65 314.28,-73.76 323.21,-79.46 324.82,-72.65"/>
</g>
<!-- Node4 -->
<g id="node4" class="node">
<title>Node4</title>
<g id="a_node4"><a xlink:title=" ">
<polygon fill="none" stroke="#bfbfbf" points="940.5,-56.5 940.5,-75.5 1033.5,-75.5 1033.5,-56.5 940.5,-56.5"/>
<text text-anchor="middle" x="987" y="-63.5" font-family="Helvetica,sans-Serif" font-size="10.00">unordered_map</text>
</a>
</g>
</g>
<!-- Node2&#45;&gt;Node4 -->
<g id="edge3" class="edge">
<title>Node2&#45;&gt;Node4</title>
<path fill="none" stroke="midnightblue" d="M600.53,-113.64C603.73,-113.05 606.92,-112.49 610,-112 749.6,-89.82 785.84,-94.32 926,-76 927.46,-75.81 928.94,-75.61 930.43,-75.41"/>
<polygon fill="midnightblue" stroke="midnightblue" points="930.97,-78.87 940.4,-74.04 930.01,-71.94 930.97,-78.87"/>
</g>
<!-- Node5 -->
<g id="node5" class="node">
<title>Node5</title>
<g id="a_node5"><a xlink:title=" ">
<polygon fill="none" stroke="#bfbfbf" points="332.5,-56.5 332.5,-75.5 397.5,-75.5 397.5,-56.5 332.5,-56.5"/>
<text text-anchor="middle" x="365" y="-63.5" font-family="Helvetica,sans-Serif" font-size="10.00">functional</text>
</a>
</g>
</g>
<!-- Node2&#45;&gt;Node5 -->
<g id="edge4" class="edge">
<title>Node2&#45;&gt;Node5</title>
<path fill="none" stroke="midnightblue" d="M534.15,-112.44C499.6,-103.16 444.32,-88.31 406.42,-78.13"/>
<polygon fill="midnightblue" stroke="midnightblue" points="407.27,-74.73 396.7,-75.52 405.45,-81.49 407.27,-74.73"/>
</g>
<!-- Node6 -->
<g id="node6" class="node">
<title>Node6</title>
<g id="a_node6"><a xlink:title=" ">
<polygon fill="none" stroke="#bfbfbf" points="563,-0.5 563,-19.5 621,-19.5 621,-0.5 563,-0.5"/>
<text text-anchor="middle" x="592" y="-7.5" font-family="Helvetica,sans-Serif" font-size="10.00">memory</text>
</a>
</g>
</g>
<!-- Node2&#45;&gt;Node6 -->
<g id="edge5" class="edge">
<title>Node2&#45;&gt;Node6</title>
<path fill="none" stroke="midnightblue" d="M600.54,-113.68C603.73,-113.08 606.92,-112.51 610,-112 672.54,-101.64 851.1,-123.57 893,-76 898.88,-69.33 898.8,-62.73 893,-56 859.68,-17.32 705.14,-11.4 631.39,-10.81"/>
<polygon fill="midnightblue" stroke="midnightblue" points="631.13,-7.31 621.11,-10.76 631.1,-14.31 631.13,-7.31"/>
</g>
<!-- Node7 -->
<g id="node7" class="node">
<title>Node7</title>
<g id="a_node7"><a xlink:title=" ">
<polygon fill="none" stroke="#bfbfbf" points="416,-56.5 416,-75.5 466,-75.5 466,-56.5 416,-56.5"/>
<text text-anchor="middle" x="441" y="-63.5" font-family="Helvetica,sans-Serif" font-size="10.00">chrono</text>
</a>
</g>
</g>
<!-- Node2&#45;&gt;Node7 -->
<g id="edge6" class="edge">
<title>Node2&#45;&gt;Node7</title>
<path fill="none" stroke="midnightblue" d="M546.19,-112.44C525.71,-103.6 493.52,-89.69 470.14,-79.59"/>
<polygon fill="midnightblue" stroke="midnightblue" points="471.28,-76.27 460.71,-75.52 468.51,-82.7 471.28,-76.27"/>
</g>
<!-- Node8 -->
<g id="node8" class="node">
<title>Node8</title>
<g id="a_node8"><a xlink:title=" ">
<polygon fill="none" stroke="#bfbfbf" points="484.5,-56.5 484.5,-75.5 519.5,-75.5 519.5,-56.5 484.5,-56.5"/>
<text text-anchor="middle" x="502" y="-63.5" font-family="Helvetica,sans-Serif" font-size="10.00">any</text>
</a>
</g>
</g>
<!-- Node2&#45;&gt;Node8 -->
<g id="edge7" class="edge">
<title>Node2&#45;&gt;Node8</title>
<path fill="none" stroke="midnightblue" d="M555.72,-112.32C546.16,-104.26 531.72,-92.08 520.22,-82.37"/>
<polygon fill="midnightblue" stroke="midnightblue" points="522.37,-79.61 512.47,-75.83 517.86,-84.96 522.37,-79.61"/>
</g>
<!-- Node9 -->
<g id="node9" class="node">
<title>Node9</title>
<g id="a_node9"><a xlink:title=" ">
<polygon fill="none" stroke="#bfbfbf" points="538,-56.5 538,-75.5 594,-75.5 594,-56.5 538,-56.5"/>
<text text-anchor="middle" x="566" y="-63.5" font-family="Helvetica,sans-Serif" font-size="10.00">optional</text>
</a>
</g>
</g>
<!-- Node2&#45;&gt;Node9 -->
<g id="edge8" class="edge">
<title>Node2&#45;&gt;Node9</title>
<path fill="none" stroke="midnightblue" d="M566,-112.08C566,-105.01 566,-94.86 566,-85.99"/>
<polygon fill="midnightblue" stroke="midnightblue" points="569.5,-85.75 566,-75.75 562.5,-85.75 569.5,-85.75"/>
</g>
<!-- Node10 -->
<g id="node10" class="node">
<title>Node10</title>
<g id="a_node10"><a xlink:title=" ">
<polygon fill="none" stroke="#bfbfbf" points="612.5,-56.5 612.5,-75.5 659.5,-75.5 659.5,-56.5 612.5,-56.5"/>
<text text-anchor="middle" x="636" y="-63.5" font-family="Helvetica,sans-Serif" font-size="10.00">vector</text>
</a>
</g>
</g>
<!-- Node2&#45;&gt;Node10 -->
<g id="edge9" class="edge">
<title>Node2&#45;&gt;Node10</title>
<path fill="none" stroke="midnightblue" d="M577.25,-112.32C587.8,-104.18 603.8,-91.84 616.44,-82.09"/>
<polygon fill="midnightblue" stroke="midnightblue" points="618.77,-84.71 624.55,-75.83 614.49,-79.17 618.77,-84.71"/>
</g>
<!-- Node11 -->
<g id="node11" class="node">
<title>Node11</title>
<g id="a_node11"><a xlink:title=" ">
<polygon fill="none" stroke="#bfbfbf" points="677.5,-56.5 677.5,-75.5 718.5,-75.5 718.5,-56.5 677.5,-56.5"/>
<text text-anchor="middle" x="698" y="-63.5" font-family="Helvetica,sans-Serif" font-size="10.00">tuple</text>
</a>
</g>
</g>
<!-- Node2&#45;&gt;Node11 -->
<g id="edge10" class="edge">
<title>Node2&#45;&gt;Node11</title>
<path fill="none" stroke="midnightblue" d="M586.92,-112.44C608.74,-103.52 643.15,-89.44 667.89,-79.32"/>
<polygon fill="midnightblue" stroke="midnightblue" points="669.25,-82.54 677.18,-75.52 666.6,-76.06 669.25,-82.54"/>
</g>
<!-- Node12 -->
<g id="node12" class="node">
<title>Node12</title>
<g id="a_node12"><a xlink:title=" ">
<polygon fill="none" stroke="#bfbfbf" points="736.5,-56.5 736.5,-75.5 809.5,-75.5 809.5,-56.5 736.5,-56.5"/>
<text text-anchor="middle" x="773" y="-63.5" font-family="Helvetica,sans-Serif" font-size="10.00">string_view</text>
</a>
</g>
</g>
<!-- Node2&#45;&gt;Node12 -->
<g id="edge11" class="edge">
<title>Node2&#45;&gt;Node12</title>
<path fill="none" stroke="midnightblue" d="M598.8,-112.44C634.38,-103.16 691.31,-88.31 730.35,-78.13"/>
<polygon fill="midnightblue" stroke="midnightblue" points="731.56,-81.43 740.35,-75.52 729.79,-74.65 731.56,-81.43"/>
</g>
<!-- Node13 -->
<g id="node13" class="node">
<title>Node13</title>
<g id="a_node13"><a xlink:title=" ">
<polygon fill="none" stroke="#bfbfbf" points="828,-56.5 828,-75.5 884,-75.5 884,-56.5 828,-56.5"/>
<text text-anchor="middle" x="856" y="-63.5" font-family="Helvetica,sans-Serif" font-size="10.00">sstream</text>
</a>
</g>
</g>
<!-- Node2&#45;&gt;Node13 -->
<g id="edge12" class="edge">
<title>Node2&#45;&gt;Node13</title>
<path fill="none" stroke="midnightblue" d="M600.57,-113.82C603.75,-113.19 606.94,-112.58 610,-112 699.55,-95.13 725.03,-95.13 817.95,-76.11"/>
<polygon fill="midnightblue" stroke="midnightblue" points="818.68,-79.53 827.76,-74.08 817.26,-72.67 818.68,-79.53"/>
</g>
<!-- Node14 -->
<g id="node14" class="node">
<title>Node14</title>
<g id="a_node14"><a xlink:href="gempyre__types_8h_source.html" target="_top" xlink:title=" ">
<polygon fill="none" stroke="black" points="150.5,-56.5 150.5,-75.5 251.5,-75.5 251.5,-56.5 150.5,-56.5"/>
<text text-anchor="middle" x="201" y="-63.5" font-family="Helvetica,sans-Serif" font-size="10.00">gempyre_types.h</text>
</a>
</g>
</g>
<!-- Node2&#45;&gt;Node14 -->
<g id="edge13" class="edge">
<title>Node2&#45;&gt;Node14</title>
<path fill="none" stroke="midnightblue" d="M531.23,-115.9C476.38,-107.84 366.11,-91.63 261.81,-76.12"/>
<polygon fill="midnightblue" stroke="midnightblue" points="262.14,-72.63 251.74,-74.62 261.11,-79.55 262.14,-72.63"/>
</g>
<!-- Node14&#45;&gt;Node6 -->
<g id="edge15" class="edge">
<title>Node14&#45;&gt;Node6</title>
<path fill="none" stroke="midnightblue" d="M251.73,-57.34C254.87,-56.88 257.98,-56.43 261,-56 366.28,-40.95 490.59,-24.37 552.63,-16.17"/>
<polygon fill="midnightblue" stroke="midnightblue" points="553.3,-19.62 562.76,-14.84 552.39,-12.68 553.3,-19.62"/>
</g>
<!-- Node15 -->
<g id="node15" class="node">
<title>Node15</title>
<g id="a_node15"><a xlink:title=" ">
<polygon fill="none" stroke="#bfbfbf" points="176,-0.5 176,-19.5 226,-19.5 226,-0.5 176,-0.5"/>
<text text-anchor="middle" x="201" y="-7.5" font-family="Helvetica,sans-Serif" font-size="10.00">cstdint</text>
</a>
</g>
</g>
<!-- Node14&#45;&gt;Node15 -->
<g id="edge14" class="edge">
<title>Node14&#45;&gt;Node15</title>
<path fill="none" stroke="midnightblue" d="M201,-56.08C201,-49.01 201,-38.86 201,-29.99"/>
<polygon fill="midnightblue" stroke="midnightblue" points="204.5,-29.75 201,-19.75 197.5,-29.75 204.5,-29.75"/>
</g>
<!-- Node16&#45;&gt;Node3 -->
<g id="edge17" class="edge">
<title>Node16&#45;&gt;Node3</title>
<path fill="none" stroke="midnightblue" d="M215.62,-112.32C229.95,-103.82 252.01,-90.73 268.75,-80.8"/>
<polygon fill="midnightblue" stroke="midnightblue" points="270.6,-83.77 277.42,-75.65 267.03,-77.75 270.6,-83.77"/>
</g>
<!-- Node16&#45;&gt;Node14 -->
<g id="edge20" class="edge">
<title>Node16&#45;&gt;Node14</title>
<path fill="none" stroke="midnightblue" d="M201,-112.08C201,-105.01 201,-94.86 201,-85.99"/>
<polygon fill="midnightblue" stroke="midnightblue" points="204.5,-85.75 201,-75.75 197.5,-85.75 204.5,-85.75"/>
</g>
<!-- Node17 -->
<g id="node17" class="node">
<title>Node17</title>
<g id="a_node17"><a xlink:title=" ">
<polygon fill="none" stroke="#bfbfbf" points="0,-56.5 0,-75.5 64,-75.5 64,-56.5 0,-56.5"/>
<text text-anchor="middle" x="32" y="-63.5" font-family="Helvetica,sans-Serif" font-size="10.00">algorithm</text>
</a>
</g>
</g>
<!-- Node16&#45;&gt;Node17 -->
<g id="edge18" class="edge">
<title>Node16&#45;&gt;Node17</title>
<path fill="none" stroke="midnightblue" d="M174.22,-112.44C145.67,-103.32 100.27,-88.81 68.46,-78.65"/>
<polygon fill="midnightblue" stroke="midnightblue" points="69.24,-75.23 58.65,-75.52 67.11,-81.89 69.24,-75.23"/>
</g>
<!-- Node18 -->
<g id="node18" class="node">
<title>Node18</title>
<g id="a_node18"><a xlink:title=" ">
<polygon fill="none" stroke="#bfbfbf" points="82,-56.5 82,-75.5 132,-75.5 132,-56.5 82,-56.5"/>
<text text-anchor="middle" x="107" y="-63.5" font-family="Helvetica,sans-Serif" font-size="10.00">cstring</text>
</a>
</g>
</g>
<!-- Node16&#45;&gt;Node18 -->
<g id="edge19" class="edge">
<title>Node16&#45;&gt;Node18</title>
<path fill="none" stroke="midnightblue" d="M185.9,-112.32C171.1,-103.82 148.31,-90.73 131.02,-80.8"/>
<polygon fill="midnightblue" stroke="midnightblue" points="132.48,-77.6 122.07,-75.65 128.99,-83.67 132.48,-77.6"/>
</g>
</g>
</svg>
