<?xml version="1.0" encoding="UTF-8" standalone="no"?>
<!DOCTYPE svg PUBLIC "-//W3C//DTD SVG 1.1//EN"
 "http://www.w3.org/Graphics/SVG/1.1/DTD/svg11.dtd">
<!-- Generated by graphviz version 2.43.0 (0)
 -->
<!-- Title: include/gempyre_graphics.h Pages: 1 -->
<svg width="1190pt" height="192pt"
 viewBox="0.00 0.00 1189.50 192.00" xmlns="http://www.w3.org/2000/svg" xmlns:xlink="http://www.w3.org/1999/xlink">
<g id="graph0" class="graph" transform="scale(1 1) rotate(0) translate(4 188)">
<title>include/gempyre_graphics.h</title>
<!-- Node1 -->
<g id="Node000001" class="node">
<title>Node1</title>
<g id="a_Node000001"><a xlink:title=" ">
<polygon fill="#999999" stroke="#666666" points="668.5,-184 514.5,-184 514.5,-165 668.5,-165 668.5,-184"/>
<text text-anchor="middle" x="591.5" y="-172" font-family="Helvetica,sans-Serif" font-size="10.00">include/gempyre_graphics.h</text>
</a>
</g>
</g>
<!-- Node2 -->
<g id="Node000002" class="node">
<title>Node2</title>
<g id="a_Node000002"><a xlink:title=" ">
<polygon fill="#e0e0e0" stroke="#999999" points="379,-129 296,-129 296,-110 379,-110 379,-129"/>
<text text-anchor="middle" x="337.5" y="-117" font-family="Helvetica,sans-Serif" font-size="10.00">initializer_list</text>
</a>
</g>
</g>
<!-- Node1&#45;&gt;Node2 -->
<g id="edge1_Node000001_Node000002" class="edge">
<title>Node1&#45;&gt;Node2</title>
<g id="a_edge1_Node000001_Node000002"><a xlink:title=" ">
<path fill="none" stroke="#63b8ff" d="M550.69,-164.98C506.57,-155.78 436.17,-141.09 388.45,-131.13"/>
<polygon fill="#63b8ff" stroke="#63b8ff" points="389.13,-127.7 378.63,-129.08 387.7,-134.55 389.13,-127.7"/>
</a>
</g>
</g>
<!-- Node3 -->
<g id="Node000003" class="node">
<title>Node3</title>
<g id="a_Node000003"><a xlink:title=" ">
<polygon fill="#e0e0e0" stroke="#999999" points="448,-129 397,-129 397,-110 448,-110 448,-129"/>
<text text-anchor="middle" x="422.5" y="-117" font-family="Helvetica,sans-Serif" font-size="10.00">variant</text>
</a>
</g>
</g>
<!-- Node1&#45;&gt;Node3 -->
<g id="edge2_Node000001_Node000003" class="edge">
<title>Node1&#45;&gt;Node3</title>
<g id="a_edge2_Node000001_Node000003"><a xlink:title=" ">
<path fill="none" stroke="#63b8ff" d="M564.35,-164.98C535.47,-155.93 489.67,-141.57 457.96,-131.62"/>
<polygon fill="#63b8ff" stroke="#63b8ff" points="458.79,-128.21 448.2,-128.56 456.69,-134.89 458.79,-128.21"/>
</a>
</g>
</g>
<!-- Node4 -->
<g id="Node000004" class="node">
<title>Node4</title>
<g id="a_Node000004"><a xlink:title=" ">
<polygon fill="#e0e0e0" stroke="#999999" points="1181.5,-74 1139.5,-74 1139.5,-55 1181.5,-55 1181.5,-74"/>
<text text-anchor="middle" x="1160.5" y="-62" font-family="Helvetica,sans-Serif" font-size="10.00">array</text>
</a>
</g>
</g>
<!-- Node1&#45;&gt;Node4 -->
<g id="edge3_Node000001_Node000004" class="edge">
<title>Node1&#45;&gt;Node4</title>
<g id="a_edge3_Node000001_Node000004"><a xlink:title=" ">
<path fill="none" stroke="#63b8ff" d="M668.65,-166.71C738.52,-159.8 844.04,-147.46 934.5,-129 1005.3,-114.55 1086.42,-89.66 1129.62,-75.72"/>
<polygon fill="#63b8ff" stroke="#63b8ff" points="1130.82,-79.01 1139.25,-72.59 1128.66,-72.35 1130.82,-79.01"/>
</a>
</g>
</g>
<!-- Node5 -->
<g id="Node000005" class="node">
<title>Node5</title>
<g id="a_Node000005"><a xlink:title=" ">
<polygon fill="#e0e0e0" stroke="#999999" points="681,-74 608,-74 608,-55 681,-55 681,-74"/>
<text text-anchor="middle" x="644.5" y="-62" font-family="Helvetica,sans-Serif" font-size="10.00">string_view</text>
</a>
</g>
</g>
<!-- Node1&#45;&gt;Node5 -->
<g id="edge4_Node000001_Node000005" class="edge">
<title>Node1&#45;&gt;Node5</title>
<g id="a_edge4_Node000001_Node000005"><a xlink:title=" ">
<path fill="none" stroke="#63b8ff" d="M595.84,-164.66C604.54,-146.93 624.27,-106.73 635.76,-83.32"/>
<polygon fill="#63b8ff" stroke="#63b8ff" points="638.99,-84.68 640.25,-74.16 632.7,-81.59 638.99,-84.68"/>
</a>
</g>
</g>
<!-- Node6 -->
<g id="Node000006" class="node">
<title>Node6</title>
<g id="a_Node000006"><a xlink:title=" ">
<polygon fill="#e0e0e0" stroke="#999999" points="65,-74 0,-74 0,-55 65,-55 65,-74"/>
<text text-anchor="middle" x="32.5" y="-62" font-family="Helvetica,sans-Serif" font-size="10.00">functional</text>
</a>
</g>
</g>
<!-- Node1&#45;&gt;Node6 -->
<g id="edge5_Node000001_Node000006" class="edge">
<title>Node1&#45;&gt;Node6</title>
<g id="a_edge5_Node000001_Node000006"><a xlink:title=" ">
<path fill="none" stroke="#63b8ff" d="M572.89,-164.89C553.71,-155.98 522.96,-141.64 496.5,-129 479.1,-120.69 476.06,-115.21 457.5,-110 296.02,-64.69 245.55,-97.68 75.5,-73.96"/>
<polygon fill="#63b8ff" stroke="#63b8ff" points="75.85,-70.48 65.46,-72.51 74.86,-77.4 75.85,-70.48"/>
</a>
</g>
</g>
<!-- Node7 -->
<g id="Node000007" class="node">
<title>Node7</title>
<g id="a_Node000007"><a xlink:title=" ">
<polygon fill="#e0e0e0" stroke="#999999" points="1053,-74 1006,-74 1006,-55 1053,-55 1053,-74"/>
<text text-anchor="middle" x="1029.5" y="-62" font-family="Helvetica,sans-Serif" font-size="10.00">vector</text>
</a>
</g>
</g>
<!-- Node1&#45;&gt;Node7 -->
<g id="edge6_Node000001_Node000007" class="edge">
<title>Node1&#45;&gt;Node7</title>
<g id="a_edge6_Node000001_Node000007"><a xlink:title=" ">
<path fill="none" stroke="#63b8ff" d="M668.73,-168.67C731.24,-163.24 820.98,-151.96 896.5,-129 937.05,-116.67 980.81,-93.71 1006.65,-79.04"/>
<polygon fill="#63b8ff" stroke="#63b8ff" points="1008.4,-82.07 1015.32,-74.04 1004.91,-76 1008.4,-82.07"/>
</a>
</g>
</g>
<!-- Node8 -->
<g id="Node000008" class="node">
<title>Node8</title>
<g id="a_Node000008"><a xlink:href="gempyre_8h.html" target="_top" xlink:title=" ">
<polygon fill="white" stroke="#666666" points="574,-129 505,-129 505,-110 574,-110 574,-129"/>
<text text-anchor="middle" x="539.5" y="-117" font-family="Helvetica,sans-Serif" font-size="10.00">gempyre.h</text>
</a>
</g>
</g>
<!-- Node1&#45;&gt;Node8 -->
<g id="edge7_Node000001_Node000008" class="edge">
<title>Node1&#45;&gt;Node8</title>
<g id="a_edge7_Node000001_Node000008"><a xlink:title=" ">
<path fill="none" stroke="#63b8ff" d="M582.91,-164.75C575.34,-157.03 564.12,-145.6 554.99,-136.28"/>
<polygon fill="#63b8ff" stroke="#63b8ff" points="557.43,-133.78 547.93,-129.09 552.43,-138.68 557.43,-133.78"/>
</a>
</g>
</g>
<!-- Node19 -->
<g id="Node000019" class="node">
<title>Node19</title>
<g id="a_Node000019"><a xlink:href="gempyre__bitmap_8h.html" target="_top" xlink:title=" ">
<polygon fill="white" stroke="#666666" points="887,-129 778,-129 778,-110 887,-110 887,-129"/>
<text text-anchor="middle" x="832.5" y="-117" font-family="Helvetica,sans-Serif" font-size="10.00">gempyre_bitmap.h</text>
</a>
</g>
</g>
<!-- Node1&#45;&gt;Node19 -->
<g id="edge22_Node000001_Node000019" class="edge">
<title>Node1&#45;&gt;Node19</title>
<g id="a_edge22_Node000001_Node000019"><a xlink:title=" ">
<path fill="none" stroke="#63b8ff" d="M630.22,-164.98C671.91,-155.82 738.32,-141.21 783.59,-131.26"/>
<polygon fill="#63b8ff" stroke="#63b8ff" points="784.46,-134.65 793.48,-129.08 782.96,-127.81 784.46,-134.65"/>
</a>
</g>
</g>
<!-- Node8&#45;&gt;Node5 -->
<g id="edge17_Node000008_Node000005" class="edge">
<title>Node8&#45;&gt;Node5</title>
<g id="a_edge17_Node000008_Node000005"><a xlink:title=" ">
<path fill="none" stroke="#63b8ff" d="M556.37,-109.98C573.11,-101.54 599,-88.47 618.39,-78.68"/>
<polygon fill="#63b8ff" stroke="#63b8ff" points="619.97,-81.8 627.32,-74.17 616.82,-75.55 619.97,-81.8"/>
</a>
</g>
</g>
<!-- Node8&#45;&gt;Node6 -->
<g id="edge10_Node000008_Node000006" class="edge">
<title>Node8&#45;&gt;Node6</title>
<g id="a_edge10_Node000008_Node000006"><a xlink:title=" ">
<path fill="none" stroke="#63b8ff" d="M504.76,-112.1C499.98,-111.33 495.12,-110.6 490.5,-110 309.7,-86.54 259.92,-99.96 75.48,-73.97"/>
<polygon fill="#63b8ff" stroke="#63b8ff" points="75.85,-70.49 65.45,-72.54 74.86,-77.42 75.85,-70.49"/>
</a>
</g>
</g>
<!-- Node8&#45;&gt;Node7 -->
<g id="edge15_Node000008_Node000007" class="edge">
<title>Node8&#45;&gt;Node7</title>
<g id="a_edge15_Node000008_Node000007"><a xlink:title=" ">
<path fill="none" stroke="#63b8ff" d="M574.14,-116.96C649.21,-113.24 832.55,-102.03 995.59,-73.86"/>
<polygon fill="#63b8ff" stroke="#63b8ff" points="996.56,-77.25 1005.8,-72.07 995.35,-70.35 996.56,-77.25"/>
</a>
</g>
</g>
<!-- Node9 -->
<g id="Node000009" class="node">
<title>Node9</title>
<g id="a_Node000009"><a xlink:title=" ">
<polygon fill="#e0e0e0" stroke="#999999" points="817.5,-74 773.5,-74 773.5,-55 817.5,-55 817.5,-74"/>
<text text-anchor="middle" x="795.5" y="-62" font-family="Helvetica,sans-Serif" font-size="10.00">string</text>
</a>
</g>
</g>
<!-- Node8&#45;&gt;Node9 -->
<g id="edge8_Node000008_Node000009" class="edge">
<title>Node8&#45;&gt;Node9</title>
<g id="a_edge8_Node000008_Node000009"><a xlink:title=" ">
<path fill="none" stroke="#63b8ff" d="M574.36,-112.41C616.82,-104.82 690.93,-91.01 763.44,-74.12"/>
<polygon fill="#63b8ff" stroke="#63b8ff" points="764.26,-77.52 773.2,-71.82 762.66,-70.7 764.26,-77.52"/>
</a>
</g>
</g>
<!-- Node10 -->
<g id="Node000010" class="node">
<title>Node10</title>
<g id="a_Node000010"><a xlink:title=" ">
<polygon fill="#e0e0e0" stroke="#999999" points="432,-74 339,-74 339,-55 432,-55 432,-74"/>
<text text-anchor="middle" x="385.5" y="-62" font-family="Helvetica,sans-Serif" font-size="10.00">unordered_map</text>
</a>
</g>
</g>
<!-- Node8&#45;&gt;Node10 -->
<g id="edge9_Node000008_Node000010" class="edge">
<title>Node8&#45;&gt;Node10</title>
<g id="a_edge9_Node000008_Node000010"><a xlink:title=" ">
<path fill="none" stroke="#63b8ff" d="M514.76,-109.98C489.13,-101.16 448.87,-87.31 420.09,-77.41"/>
<polygon fill="#63b8ff" stroke="#63b8ff" points="421.03,-74.03 410.44,-74.08 418.75,-80.65 421.03,-74.03"/>
</a>
</g>
</g>
<!-- Node11 -->
<g id="Node000011" class="node">
<title>Node11</title>
<g id="a_Node000011"><a xlink:title=" ">
<polygon fill="#e0e0e0" stroke="#999999" points="493.5,-19 435.5,-19 435.5,0 493.5,0 493.5,-19"/>
<text text-anchor="middle" x="464.5" y="-7" font-family="Helvetica,sans-Serif" font-size="10.00">memory</text>
</a>
</g>
</g>
<!-- Node8&#45;&gt;Node11 -->
<g id="edge11_Node000008_Node000011" class="edge">
<title>Node8&#45;&gt;Node11</title>
<g id="a_edge11_Node000008_Node000011"><a xlink:title=" ">
<path fill="none" stroke="#63b8ff" d="M522.46,-109.87C509.08,-102.22 491,-89.82 480.5,-74 471.56,-60.53 467.62,-42.43 465.88,-29.01"/>
<polygon fill="#63b8ff" stroke="#63b8ff" points="469.36,-28.63 464.87,-19.03 462.39,-29.33 469.36,-28.63"/>
</a>
</g>
</g>
<!-- Node12 -->
<g id="Node000012" class="node">
<title>Node12</title>
<g id="a_Node000012"><a xlink:title=" ">
<polygon fill="#e0e0e0" stroke="#999999" points="133.5,-74 83.5,-74 83.5,-55 133.5,-55 133.5,-74"/>
<text text-anchor="middle" x="108.5" y="-62" font-family="Helvetica,sans-Serif" font-size="10.00">chrono</text>
</a>
</g>
</g>
<!-- Node8&#45;&gt;Node12 -->
<g id="edge12_Node000008_Node000012" class="edge">
<title>Node8&#45;&gt;Node12</title>
<g id="a_edge12_Node000008_Node000012"><a xlink:title=" ">
<path fill="none" stroke="#63b8ff" d="M504.75,-112.17C499.97,-111.39 495.12,-110.64 490.5,-110 336.91,-88.74 296.29,-100.36 143.5,-74 143.4,-73.98 143.3,-73.97 143.2,-73.95"/>
<polygon fill="#63b8ff" stroke="#63b8ff" points="144.14,-70.57 133.65,-72.04 142.77,-77.43 144.14,-70.57"/>
</a>
</g>
</g>
<!-- Node13 -->
<g id="Node000013" class="node">
<title>Node13</title>
<g id="a_Node000013"><a xlink:title=" ">
<polygon fill="#e0e0e0" stroke="#999999" points="187,-74 152,-74 152,-55 187,-55 187,-74"/>
<text text-anchor="middle" x="169.5" y="-62" font-family="Helvetica,sans-Serif" font-size="10.00">any</text>
</a>
</g>
</g>
<!-- Node8&#45;&gt;Node13 -->
<g id="edge13_Node000008_Node000013" class="edge">
<title>Node8&#45;&gt;Node13</title>
<g id="a_edge13_Node000008_Node000013"><a xlink:title=" ">
<path fill="none" stroke="#63b8ff" d="M504.74,-112.25C499.96,-111.45 495.11,-110.68 490.5,-110 363.45,-91.21 326.93,-101.36 197.02,-73.7"/>
<polygon fill="#63b8ff" stroke="#63b8ff" points="197.61,-70.24 187.09,-71.55 196.13,-77.08 197.61,-70.24"/>
</a>
</g>
</g>
<!-- Node14 -->
<g id="Node000014" class="node">
<title>Node14</title>
<g id="a_Node000014"><a xlink:title=" ">
<polygon fill="#e0e0e0" stroke="#999999" points="755.5,-74 699.5,-74 699.5,-55 755.5,-55 755.5,-74"/>
<text text-anchor="middle" x="727.5" y="-62" font-family="Helvetica,sans-Serif" font-size="10.00">optional</text>
</a>
</g>
</g>
<!-- Node8&#45;&gt;Node14 -->
<g id="edge14_Node000008_Node000014" class="edge">
<title>Node8&#45;&gt;Node14</title>
<g id="a_edge14_Node000008_Node000014"><a xlink:title=" ">
<path fill="none" stroke="#63b8ff" d="M569.71,-109.98C602.2,-100.82 653.96,-86.23 689.27,-76.28"/>
<polygon fill="#63b8ff" stroke="#63b8ff" points="690.54,-79.56 699.21,-73.47 688.64,-72.82 690.54,-79.56"/>
</a>
</g>
</g>
<!-- Node15 -->
<g id="Node000015" class="node">
<title>Node15</title>
<g id="a_Node000015"><a xlink:title=" ">
<polygon fill="#e0e0e0" stroke="#999999" points="246,-74 205,-74 205,-55 246,-55 246,-74"/>
<text text-anchor="middle" x="225.5" y="-62" font-family="Helvetica,sans-Serif" font-size="10.00">tuple</text>
</a>
</g>
</g>
<!-- Node8&#45;&gt;Node15 -->
<g id="edge16_Node000008_Node000015" class="edge">
<title>Node8&#45;&gt;Node15</title>
<g id="a_edge16_Node000008_Node000015"><a xlink:title=" ">
<path fill="none" stroke="#63b8ff" d="M504.98,-112.42C500.12,-111.59 495.19,-110.77 490.5,-110 389.38,-93.48 360.48,-96.25 256.08,-73.86"/>
<polygon fill="#63b8ff" stroke="#63b8ff" points="256.59,-70.39 246.07,-71.69 255.1,-77.23 256.59,-70.39"/>
</a>
</g>
</g>
<!-- Node16 -->
<g id="Node000016" class="node">
<title>Node16</title>
<g id="a_Node000016"><a xlink:title=" ">
<polygon fill="#e0e0e0" stroke="#999999" points="320.5,-74 264.5,-74 264.5,-55 320.5,-55 320.5,-74"/>
<text text-anchor="middle" x="292.5" y="-62" font-family="Helvetica,sans-Serif" font-size="10.00">sstream</text>
</a>
</g>
</g>
<!-- Node8&#45;&gt;Node16 -->
<g id="edge18_Node000008_Node000016" class="edge">
<title>Node8&#45;&gt;Node16</title>
<g id="a_edge18_Node000008_Node000016"><a xlink:title=" ">
<path fill="none" stroke="#63b8ff" d="M504.71,-111.21C463.22,-102.48 391.75,-87.37 330.5,-74 330.4,-73.98 330.3,-73.96 330.2,-73.94"/>
<polygon fill="#63b8ff" stroke="#63b8ff" points="331.23,-70.58 320.71,-71.84 329.73,-77.41 331.23,-70.58"/>
</a>
</g>
</g>
<!-- Node17 -->
<g id="Node000017" class="node">
<title>Node17</title>
<g id="a_Node000017"><a xlink:href="gempyre__types_8h_source.html" target="_top" xlink:title=" ">
<polygon fill="white" stroke="#666666" points="590,-74 489,-74 489,-55 590,-55 590,-74"/>
<text text-anchor="middle" x="539.5" y="-62" font-family="Helvetica,sans-Serif" font-size="10.00">gempyre_types.h</text>
</a>
</g>
</g>
<!-- Node8&#45;&gt;Node17 -->
<g id="edge19_Node000008_Node000017" class="edge">
<title>Node8&#45;&gt;Node17</title>
<g id="a_edge19_Node000008_Node000017"><a xlink:title=" ">
<path fill="none" stroke="#63b8ff" d="M539.5,-109.75C539.5,-102.8 539.5,-92.85 539.5,-84.13"/>
<polygon fill="#63b8ff" stroke="#63b8ff" points="543,-84.09 539.5,-74.09 536,-84.09 543,-84.09"/>
</a>
</g>
</g>
<!-- Node17&#45;&gt;Node11 -->
<g id="edge21_Node000017_Node000011" class="edge">
<title>Node17&#45;&gt;Node11</title>
<g id="a_edge21_Node000017_Node000011"><a xlink:title=" ">
<path fill="none" stroke="#63b8ff" d="M527.45,-54.98C516.04,-46.92 498.67,-34.65 485.07,-25.03"/>
<polygon fill="#63b8ff" stroke="#63b8ff" points="486.96,-22.08 476.77,-19.17 482.92,-27.8 486.96,-22.08"/>
</a>
</g>
</g>
<!-- Node18 -->
<g id="Node000018" class="node">
<title>Node18</title>
<g id="a_Node000018"><a xlink:title=" ">
<polygon fill="#e0e0e0" stroke="#999999" points="564.5,-19 514.5,-19 514.5,0 564.5,0 564.5,-19"/>
<text text-anchor="middle" x="539.5" y="-7" font-family="Helvetica,sans-Serif" font-size="10.00">cstdint</text>
</a>
</g>
</g>
<!-- Node17&#45;&gt;Node18 -->
<g id="edge20_Node000017_Node000018" class="edge">
<title>Node17&#45;&gt;Node18</title>
<g id="a_edge20_Node000017_Node000018"><a xlink:title=" ">
<path fill="none" stroke="#63b8ff" d="M539.5,-54.75C539.5,-47.8 539.5,-37.85 539.5,-29.13"/>
<polygon fill="#63b8ff" stroke="#63b8ff" points="543,-29.09 539.5,-19.09 536,-29.09 543,-29.09"/>
</a>
</g>
</g>
<!-- Node19&#45;&gt;Node4 -->
<g id="edge27_Node000019_Node000004" class="edge">
<title>Node19&#45;&gt;Node4</title>
<g id="a_edge27_Node000019_Node000004"><a xlink:title=" ">
<path fill="none" stroke="#63b8ff" d="M887.26,-112.45C945.21,-105.58 1039.46,-93.04 1129.46,-73.98"/>
<polygon fill="#63b8ff" stroke="#63b8ff" points="1130.24,-77.4 1139.28,-71.88 1128.77,-70.55 1130.24,-77.4"/>
</a>
</g>
</g>
<!-- Node19&#45;&gt;Node5 -->
<g id="edge29_Node000019_Node000005" class="edge">
<title>Node19&#45;&gt;Node5</title>
<g id="a_edge29_Node000019_Node000005"><a xlink:title=" ">
<path fill="none" stroke="#63b8ff" d="M802.29,-109.98C770.46,-101.01 720.14,-86.82 684.9,-76.89"/>
<polygon fill="#63b8ff" stroke="#63b8ff" points="685.52,-73.43 674.94,-74.08 683.62,-80.16 685.52,-73.43"/>
</a>
</g>
</g>
<!-- Node19&#45;&gt;Node7 -->
<g id="edge30_Node000019_Node000007" class="edge">
<title>Node19&#45;&gt;Node7</title>
<g id="a_edge30_Node000019_Node000007"><a xlink:title=" ">
<path fill="none" stroke="#63b8ff" d="M864.15,-109.98C900.34,-100.25 959.32,-84.38 996.19,-74.46"/>
<polygon fill="#63b8ff" stroke="#63b8ff" points="997.22,-77.81 1005.96,-71.83 995.4,-71.05 997.22,-77.81"/>
</a>
</g>
</g>
<!-- Node19&#45;&gt;Node9 -->
<g id="edge23_Node000019_Node000009" class="edge">
<title>Node19&#45;&gt;Node9</title>
<g id="a_edge23_Node000019_Node000009"><a xlink:title=" ">
<path fill="none" stroke="#63b8ff" d="M826.39,-109.75C821.22,-102.34 813.65,-91.5 807.31,-82.41"/>
<polygon fill="#63b8ff" stroke="#63b8ff" points="810.09,-80.29 801.5,-74.09 804.35,-84.29 810.09,-80.29"/>
</a>
</g>
</g>
<!-- Node19&#45;&gt;Node14 -->
<g id="edge28_Node000019_Node000014" class="edge">
<title>Node19&#45;&gt;Node14</title>
<g id="a_edge28_Node000019_Node000014"><a xlink:title=" ">
<path fill="none" stroke="#63b8ff" d="M815.63,-109.98C798.89,-101.54 773,-88.47 753.61,-78.68"/>
<polygon fill="#63b8ff" stroke="#63b8ff" points="755.18,-75.55 744.68,-74.17 752.03,-81.8 755.18,-75.55"/>
</a>
</g>
</g>
<!-- Node19&#45;&gt;Node17 -->
<g id="edge26_Node000019_Node000017" class="edge">
<title>Node19&#45;&gt;Node17</title>
<g id="a_edge26_Node000019_Node000017"><a xlink:title=" ">
<path fill="none" stroke="#63b8ff" d="M785.42,-109.98C734.1,-100.7 651.96,-85.84 596.9,-75.88"/>
<polygon fill="#63b8ff" stroke="#63b8ff" points="597.41,-72.42 586.94,-74.08 596.16,-79.31 597.41,-72.42"/>
</a>
</g>
</g>
<!-- Node20 -->
<g id="Node000020" class="node">
<title>Node20</title>
<g id="a_Node000020"><a xlink:title=" ">
<polygon fill="#e0e0e0" stroke="#999999" points="987.5,-74 923.5,-74 923.5,-55 987.5,-55 987.5,-74"/>
<text text-anchor="middle" x="955.5" y="-62" font-family="Helvetica,sans-Serif" font-size="10.00">algorithm</text>
</a>
</g>
</g>
<!-- Node19&#45;&gt;Node20 -->
<g id="edge24_Node000019_Node000020" class="edge">
<title>Node19&#45;&gt;Node20</title>
<g id="a_edge24_Node000019_Node000020"><a xlink:title=" ">
<path fill="none" stroke="#63b8ff" d="M852.26,-109.98C872.23,-101.38 903.3,-87.99 926.15,-78.15"/>
<polygon fill="#63b8ff" stroke="#63b8ff" points="927.58,-81.34 935.38,-74.17 924.81,-74.91 927.58,-81.34"/>
</a>
</g>
</g>
<!-- Node21 -->
<g id="Node000021" class="node">
<title>Node21</title>
<g id="a_Node000021"><a xlink:title=" ">
<polygon fill="#e0e0e0" stroke="#999999" points="1121.5,-74 1071.5,-74 1071.5,-55 1121.5,-55 1121.5,-74"/>
<text text-anchor="middle" x="1096.5" y="-62" font-family="Helvetica,sans-Serif" font-size="10.00">cstring</text>
</a>
</g>
</g>
<!-- Node19&#45;&gt;Node21 -->
<g id="edge25_Node000019_Node000021" class="edge">
<title>Node19&#45;&gt;Node21</title>
<g id="a_edge25_Node000019_Node000021"><a xlink:title=" ">
<path fill="none" stroke="#63b8ff" d="M880.67,-109.96C925.13,-101.9 993.21,-89.13 1061.25,-74.18"/>
<polygon fill="#63b8ff" stroke="#63b8ff" points="1062.28,-77.54 1071.28,-71.96 1060.76,-70.71 1062.28,-77.54"/>
</a>
</g>
</g>
<!-- Node22 -->
<g id="Node000022" class="node">
<title>Node22</title>
<g id="a_Node000022"><a xlink:title=" ">
<polygon fill="#e0e0e0" stroke="#999999" points="905,-74 836,-74 836,-55 905,-55 905,-74"/>
<text text-anchor="middle" x="870.5" y="-62" font-family="Helvetica,sans-Serif" font-size="10.00">type_traits</text>
</a>
</g>
</g>
<!-- Node19&#45;&gt;Node22 -->
<g id="edge31_Node000019_Node000022" class="edge">
<title>Node19&#45;&gt;Node22</title>
<g id="a_edge31_Node000019_Node000022"><a xlink:title=" ">
<path fill="none" stroke="#63b8ff" d="M838.77,-109.75C844.09,-102.34 851.86,-91.5 858.38,-82.41"/>
<polygon fill="#63b8ff" stroke="#63b8ff" points="861.36,-84.26 864.34,-74.09 855.67,-80.18 861.36,-84.26"/>
</a>
</g>
</g>
</g>
</svg>
