<?xml version="1.0" encoding="UTF-8" standalone="no"?>
<!DOCTYPE svg PUBLIC "-//W3C//DTD SVG 1.1//EN"
 "http://www.w3.org/Graphics/SVG/1.1/DTD/svg11.dtd">
<!-- Generated by graphviz version 2.43.0 (0)
 -->
<!-- Title: include/gempyre_graphics.h Pages: 1 -->
<svg width="973pt" height="196pt"
 viewBox="0.00 0.00 972.50 196.00" xmlns="http://www.w3.org/2000/svg" xmlns:xlink="http://www.w3.org/1999/xlink">
<g id="graph0" class="graph" transform="scale(1 1) rotate(0) translate(4 192)">
<title>include/gempyre_graphics.h</title>
<!-- Node1 -->
<g id="node1" class="node">
<title>Node1</title>
<g id="a_node1"><a xlink:title=" ">
<polygon fill="#bfbfbf" stroke="black" points="490,-168.5 490,-187.5 644,-187.5 644,-168.5 490,-168.5"/>
<text text-anchor="middle" x="567" y="-175.5" font-family="Helvetica,sans-Serif" font-size="10.00">include/gempyre_graphics.h</text>
</a>
</g>
</g>
<!-- Node2 -->
<g id="node2" class="node">
<title>Node2</title>
<g id="a_node2"><a xlink:href="gempyre_8h.html" target="_top" xlink:title=" ">
<polygon fill="none" stroke="black" points="485.5,-112.5 485.5,-131.5 554.5,-131.5 554.5,-112.5 485.5,-112.5"/>
<text text-anchor="middle" x="520" y="-119.5" font-family="Helvetica,sans-Serif" font-size="10.00">gempyre.h</text>
</a>
</g>
</g>
<!-- Node1&#45;&gt;Node2 -->
<g id="edge1" class="edge">
<title>Node1&#45;&gt;Node2</title>
<path fill="none" stroke="midnightblue" d="M559.24,-168.08C552.46,-160.3 542.46,-148.8 534.24,-139.37"/>
<polygon fill="midnightblue" stroke="midnightblue" points="536.82,-137 527.62,-131.75 531.54,-141.59 536.82,-137"/>
</g>
<!-- Node16 -->
<g id="node16" class="node">
<title>Node16</title>
<g id="a_node16"><a xlink:href="gempyre__bitmap_8h.html" target="_top" xlink:title=" ">
<polygon fill="none" stroke="black" points="95.5,-112.5 95.5,-131.5 204.5,-131.5 204.5,-112.5 95.5,-112.5"/>
<text text-anchor="middle" x="150" y="-119.5" font-family="Helvetica,sans-Serif" font-size="10.00">gempyre_bitmap.h</text>
</a>
</g>
</g>
<!-- Node1&#45;&gt;Node16 -->
<g id="edge16" class="edge">
<title>Node1&#45;&gt;Node16</title>
<path fill="none" stroke="midnightblue" d="M500.93,-168.44C422.57,-158.3 292.81,-141.49 214.95,-131.41"/>
<polygon fill="midnightblue" stroke="midnightblue" points="215.16,-127.91 204.79,-130.1 214.26,-134.85 215.16,-127.91"/>
</g>
<!-- Node18 -->
<g id="node18" class="node">
<title>Node18</title>
<g id="a_node18"><a xlink:title=" ">
<polygon fill="none" stroke="#bfbfbf" points="572.5,-112.5 572.5,-131.5 655.5,-131.5 655.5,-112.5 572.5,-112.5"/>
<text text-anchor="middle" x="614" y="-119.5" font-family="Helvetica,sans-Serif" font-size="10.00">initializer_list</text>
</a>
</g>
</g>
<!-- Node1&#45;&gt;Node18 -->
<g id="edge20" class="edge">
<title>Node1&#45;&gt;Node18</title>
<path fill="none" stroke="midnightblue" d="M574.76,-168.08C581.54,-160.3 591.54,-148.8 599.76,-139.37"/>
<polygon fill="midnightblue" stroke="midnightblue" points="602.46,-141.59 606.38,-131.75 597.18,-137 602.46,-141.59"/>
</g>
<!-- Node19 -->
<g id="node19" class="node">
<title>Node19</title>
<g id="a_node19"><a xlink:title=" ">
<polygon fill="none" stroke="#bfbfbf" points="673.5,-112.5 673.5,-131.5 724.5,-131.5 724.5,-112.5 673.5,-112.5"/>
<text text-anchor="middle" x="699" y="-119.5" font-family="Helvetica,sans-Serif" font-size="10.00">variant</text>
</a>
</g>
</g>
<!-- Node1&#45;&gt;Node19 -->
<g id="edge21" class="edge">
<title>Node1&#45;&gt;Node19</title>
<path fill="none" stroke="midnightblue" d="M587.92,-168.44C609.74,-159.52 644.15,-145.44 668.89,-135.32"/>
<polygon fill="midnightblue" stroke="midnightblue" points="670.25,-138.54 678.18,-131.52 667.6,-132.06 670.25,-138.54"/>
</g>
<!-- Node3 -->
<g id="node3" class="node">
<title>Node3</title>
<g id="a_node3"><a xlink:title=" ">
<polygon fill="none" stroke="#bfbfbf" points="82,-56.5 82,-75.5 126,-75.5 126,-56.5 82,-56.5"/>
<text text-anchor="middle" x="104" y="-63.5" font-family="Helvetica,sans-Serif" font-size="10.00">string</text>
</a>
</g>
</g>
<!-- Node2&#45;&gt;Node3 -->
<g id="edge2" class="edge">
<title>Node2&#45;&gt;Node3</title>
<path fill="none" stroke="midnightblue" d="M485.45,-118.89C419.34,-114.45 270.31,-102.44 136.27,-75.95"/>
<polygon fill="midnightblue" stroke="midnightblue" points="136.73,-72.48 126.24,-73.94 135.36,-79.34 136.73,-72.48"/>
</g>
<!-- Node4 -->
<g id="node4" class="node">
<title>Node4</title>
<g id="a_node4"><a xlink:title=" ">
<polygon fill="none" stroke="#bfbfbf" points="376.5,-56.5 376.5,-75.5 469.5,-75.5 469.5,-56.5 376.5,-56.5"/>
<text text-anchor="middle" x="423" y="-63.5" font-family="Helvetica,sans-Serif" font-size="10.00">unordered_map</text>
</a>
</g>
</g>
<!-- Node2&#45;&gt;Node4 -->
<g id="edge3" class="edge">
<title>Node2&#45;&gt;Node4</title>
<path fill="none" stroke="midnightblue" d="M504.42,-112.32C489,-103.74 465.19,-90.49 447.29,-80.52"/>
<polygon fill="midnightblue" stroke="midnightblue" points="448.99,-77.46 438.55,-75.65 445.58,-83.58 448.99,-77.46"/>
</g>
<!-- Node5 -->
<g id="node5" class="node">
<title>Node5</title>
<g id="a_node5"><a xlink:title=" ">
<polygon fill="none" stroke="#bfbfbf" points="487.5,-56.5 487.5,-75.5 552.5,-75.5 552.5,-56.5 487.5,-56.5"/>
<text text-anchor="middle" x="520" y="-63.5" font-family="Helvetica,sans-Serif" font-size="10.00">functional</text>
</a>
</g>
</g>
<!-- Node2&#45;&gt;Node5 -->
<g id="edge4" class="edge">
<title>Node2&#45;&gt;Node5</title>
<path fill="none" stroke="midnightblue" d="M520,-112.08C520,-105.01 520,-94.86 520,-85.99"/>
<polygon fill="midnightblue" stroke="midnightblue" points="523.5,-85.75 520,-75.75 516.5,-85.75 523.5,-85.75"/>
</g>
<!-- Node6 -->
<g id="node6" class="node">
<title>Node6</title>
<g id="a_node6"><a xlink:title=" ">
<polygon fill="none" stroke="#bfbfbf" points="278,-0.5 278,-19.5 336,-19.5 336,-0.5 278,-0.5"/>
<text text-anchor="middle" x="307" y="-7.5" font-family="Helvetica,sans-Serif" font-size="10.00">memory</text>
</a>
</g>
</g>
<!-- Node2&#45;&gt;Node6 -->
<g id="edge5" class="edge">
<title>Node2&#45;&gt;Node6</title>
<path fill="none" stroke="midnightblue" d="M485.27,-116.08C452.99,-110.31 404.55,-98.53 368,-76 347.71,-63.49 329.75,-42.5 318.67,-27.77"/>
<polygon fill="midnightblue" stroke="midnightblue" points="321.4,-25.57 312.69,-19.53 315.73,-29.68 321.4,-25.57"/>
</g>
<!-- Node7 -->
<g id="node7" class="node">
<title>Node7</title>
<g id="a_node7"><a xlink:title=" ">
<polygon fill="none" stroke="#bfbfbf" points="571,-56.5 571,-75.5 621,-75.5 621,-56.5 571,-56.5"/>
<text text-anchor="middle" x="596" y="-63.5" font-family="Helvetica,sans-Serif" font-size="10.00">chrono</text>
</a>
</g>
</g>
<!-- Node2&#45;&gt;Node7 -->
<g id="edge6" class="edge">
<title>Node2&#45;&gt;Node7</title>
<path fill="none" stroke="midnightblue" d="M532.21,-112.32C543.78,-104.11 561.38,-91.6 575.16,-81.81"/>
<polygon fill="midnightblue" stroke="midnightblue" points="577.44,-84.48 583.57,-75.83 573.39,-78.77 577.44,-84.48"/>
</g>
<!-- Node8 -->
<g id="node8" class="node">
<title>Node8</title>
<g id="a_node8"><a xlink:title=" ">
<polygon fill="none" stroke="#bfbfbf" points="639.5,-56.5 639.5,-75.5 674.5,-75.5 674.5,-56.5 639.5,-56.5"/>
<text text-anchor="middle" x="657" y="-63.5" font-family="Helvetica,sans-Serif" font-size="10.00">any</text>
</a>
</g>
</g>
<!-- Node2&#45;&gt;Node8 -->
<g id="edge7" class="edge">
<title>Node2&#45;&gt;Node8</title>
<path fill="none" stroke="midnightblue" d="M541.71,-112.44C565.55,-103.04 603.89,-87.93 629.74,-77.74"/>
<polygon fill="midnightblue" stroke="midnightblue" points="631.29,-80.89 639.31,-73.97 628.73,-74.38 631.29,-80.89"/>
</g>
<!-- Node9 -->
<g id="node9" class="node">
<title>Node9</title>
<g id="a_node9"><a xlink:title=" ">
<polygon fill="none" stroke="#bfbfbf" points="693,-56.5 693,-75.5 749,-75.5 749,-56.5 693,-56.5"/>
<text text-anchor="middle" x="721" y="-63.5" font-family="Helvetica,sans-Serif" font-size="10.00">optional</text>
</a>
</g>
</g>
<!-- Node2&#45;&gt;Node9 -->
<g id="edge8" class="edge">
<title>Node2&#45;&gt;Node9</title>
<path fill="none" stroke="midnightblue" d="M551.85,-112.44C587.52,-102.86 645.28,-87.34 683.21,-77.15"/>
<polygon fill="midnightblue" stroke="midnightblue" points="684.12,-80.53 692.87,-74.56 682.3,-73.77 684.12,-80.53"/>
</g>
<!-- Node10 -->
<g id="node10" class="node">
<title>Node10</title>
<g id="a_node10"><a xlink:title=" ">
<polygon fill="none" stroke="#bfbfbf" points="767.5,-56.5 767.5,-75.5 814.5,-75.5 814.5,-56.5 767.5,-56.5"/>
<text text-anchor="middle" x="791" y="-63.5" font-family="Helvetica,sans-Serif" font-size="10.00">vector</text>
</a>
</g>
</g>
<!-- Node2&#45;&gt;Node10 -->
<g id="edge9" class="edge">
<title>Node2&#45;&gt;Node10</title>
<path fill="none" stroke="midnightblue" d="M554.58,-113.87C557.76,-113.23 560.94,-112.6 564,-112 646.96,-95.82 670.81,-95.55 757.27,-76.01"/>
<polygon fill="midnightblue" stroke="midnightblue" points="758.3,-79.36 767.27,-73.73 756.74,-72.54 758.3,-79.36"/>
</g>
<!-- Node11 -->
<g id="node11" class="node">
<title>Node11</title>
<g id="a_node11"><a xlink:title=" ">
<polygon fill="none" stroke="#bfbfbf" points="832.5,-56.5 832.5,-75.5 873.5,-75.5 873.5,-56.5 832.5,-56.5"/>
<text text-anchor="middle" x="853" y="-63.5" font-family="Helvetica,sans-Serif" font-size="10.00">tuple</text>
</a>
</g>
</g>
<!-- Node2&#45;&gt;Node11 -->
<g id="edge10" class="edge">
<title>Node2&#45;&gt;Node11</title>
<path fill="none" stroke="midnightblue" d="M554.55,-113.72C557.74,-113.11 560.93,-112.53 564,-112 675.84,-92.84 708.37,-100.9 822.39,-76.07"/>
<polygon fill="midnightblue" stroke="midnightblue" points="823.19,-79.48 832.2,-73.9 821.68,-72.65 823.19,-79.48"/>
</g>
<!-- Node12 -->
<g id="node12" class="node">
<title>Node12</title>
<g id="a_node12"><a xlink:title=" ">
<polygon fill="none" stroke="#bfbfbf" points="891.5,-56.5 891.5,-75.5 964.5,-75.5 964.5,-56.5 891.5,-56.5"/>
<text text-anchor="middle" x="928" y="-63.5" font-family="Helvetica,sans-Serif" font-size="10.00">string_view</text>
</a>
</g>
</g>
<!-- Node2&#45;&gt;Node12 -->
<g id="edge11" class="edge">
<title>Node2&#45;&gt;Node12</title>
<path fill="none" stroke="midnightblue" d="M554.53,-113.63C557.73,-113.04 560.92,-112.49 564,-112 701.76,-90.18 740.31,-97.65 881.32,-76.15"/>
<polygon fill="midnightblue" stroke="midnightblue" points="881.86,-79.61 891.21,-74.62 880.79,-72.69 881.86,-79.61"/>
</g>
<!-- Node13 -->
<g id="node13" class="node">
<title>Node13</title>
<g id="a_node13"><a xlink:title=" ">
<polygon fill="none" stroke="#bfbfbf" points="264,-56.5 264,-75.5 320,-75.5 320,-56.5 264,-56.5"/>
<text text-anchor="middle" x="292" y="-63.5" font-family="Helvetica,sans-Serif" font-size="10.00">sstream</text>
</a>
</g>
</g>
<!-- Node2&#45;&gt;Node13 -->
<g id="edge12" class="edge">
<title>Node2&#45;&gt;Node13</title>
<path fill="none" stroke="midnightblue" d="M485.37,-112.8C443.51,-102.88 373.29,-86.25 329.98,-76"/>
<polygon fill="midnightblue" stroke="midnightblue" points="330.65,-72.56 320.11,-73.66 329.03,-79.37 330.65,-72.56"/>
</g>
<!-- Node14 -->
<g id="node14" class="node">
<title>Node14</title>
<g id="a_node14"><a xlink:href="gempyre__types_8h_source.html" target="_top" xlink:title=" ">
<polygon fill="none" stroke="black" points="144.5,-56.5 144.5,-75.5 245.5,-75.5 245.5,-56.5 144.5,-56.5"/>
<text text-anchor="middle" x="195" y="-63.5" font-family="Helvetica,sans-Serif" font-size="10.00">gempyre_types.h</text>
</a>
</g>
</g>
<!-- Node2&#45;&gt;Node14 -->
<g id="edge13" class="edge">
<title>Node2&#45;&gt;Node14</title>
<path fill="none" stroke="midnightblue" d="M485.22,-115.22C430.47,-106.12 323.47,-88.35 255.81,-77.1"/>
<polygon fill="midnightblue" stroke="midnightblue" points="256.15,-73.61 245.71,-75.43 255,-80.52 256.15,-73.61"/>
</g>
<!-- Node14&#45;&gt;Node6 -->
<g id="edge15" class="edge">
<title>Node14&#45;&gt;Node6</title>
<path fill="none" stroke="midnightblue" d="M212.99,-56.32C231.04,-47.62 259.05,-34.12 279.8,-24.11"/>
<polygon fill="midnightblue" stroke="midnightblue" points="281.56,-27.15 289.05,-19.65 278.52,-20.84 281.56,-27.15"/>
</g>
<!-- Node15 -->
<g id="node15" class="node">
<title>Node15</title>
<g id="a_node15"><a xlink:title=" ">
<polygon fill="none" stroke="#bfbfbf" points="170,-0.5 170,-19.5 220,-19.5 220,-0.5 170,-0.5"/>
<text text-anchor="middle" x="195" y="-7.5" font-family="Helvetica,sans-Serif" font-size="10.00">cstdint</text>
</a>
</g>
</g>
<!-- Node14&#45;&gt;Node15 -->
<g id="edge14" class="edge">
<title>Node14&#45;&gt;Node15</title>
<path fill="none" stroke="midnightblue" d="M195,-56.08C195,-49.01 195,-38.86 195,-29.99"/>
<polygon fill="midnightblue" stroke="midnightblue" points="198.5,-29.75 195,-19.75 191.5,-29.75 198.5,-29.75"/>
</g>
<!-- Node16&#45;&gt;Node3 -->
<g id="edge17" class="edge">
<title>Node16&#45;&gt;Node3</title>
<path fill="none" stroke="midnightblue" d="M142.4,-112.08C135.77,-104.3 125.98,-92.8 117.94,-83.37"/>
<polygon fill="midnightblue" stroke="midnightblue" points="120.6,-81.09 111.45,-75.75 115.27,-85.63 120.6,-81.09"/>
</g>
<!-- Node16&#45;&gt;Node14 -->
<g id="edge19" class="edge">
<title>Node16&#45;&gt;Node14</title>
<path fill="none" stroke="midnightblue" d="M157.43,-112.08C163.85,-104.38 173.31,-93.03 181.12,-83.65"/>
<polygon fill="midnightblue" stroke="midnightblue" points="183.99,-85.67 187.71,-75.75 178.62,-81.19 183.99,-85.67"/>
</g>
<!-- Node17 -->
<g id="node17" class="node">
<title>Node17</title>
<g id="a_node17"><a xlink:title=" ">
<polygon fill="none" stroke="#bfbfbf" points="0,-56.5 0,-75.5 64,-75.5 64,-56.5 0,-56.5"/>
<text text-anchor="middle" x="32" y="-63.5" font-family="Helvetica,sans-Serif" font-size="10.00">algorithm</text>
</a>
</g>
</g>
<!-- Node16&#45;&gt;Node17 -->
<g id="edge18" class="edge">
<title>Node16&#45;&gt;Node17</title>
<path fill="none" stroke="midnightblue" d="M131.3,-112.44C112.06,-103.64 81.85,-89.81 59.8,-79.72"/>
<polygon fill="midnightblue" stroke="midnightblue" points="61.16,-76.5 50.61,-75.52 58.25,-82.86 61.16,-76.5"/>
</g>
</g>
</svg>
