<?xml version="1.0" encoding="UTF-8" standalone="no"?>
<!DOCTYPE svg PUBLIC "-//W3C//DTD SVG 1.1//EN"
 "http://www.w3.org/Graphics/SVG/1.1/DTD/svg11.dtd">
<!-- Generated by graphviz version 2.43.0 (0)
 -->
<!-- Title: include/gempyre_graphics.h Pages: 1 -->
<svg width="782pt" height="196pt"
 viewBox="0.00 0.00 782.32 196.00" xmlns="http://www.w3.org/2000/svg" xmlns:xlink="http://www.w3.org/1999/xlink">
<g id="graph0" class="graph" transform="scale(1 1) rotate(0) translate(4 192)">
<title>include/gempyre_graphics.h</title>
<!-- Node1 -->
<g id="node1" class="node">
<title>Node1</title>
<g id="a_node1"><a xlink:title=" ">
<polygon fill="#bfbfbf" stroke="black" points="453,-168.5 453,-187.5 607,-187.5 607,-168.5 453,-168.5"/>
<text text-anchor="middle" x="530" y="-175.5" font-family="Helvetica,sans-Serif" font-size="10.00">include/gempyre_graphics.h</text>
</a>
</g>
</g>
<!-- Node2 -->
<g id="node2" class="node">
<title>Node2</title>
<g id="a_node2"><a xlink:href="gempyre_8h.html" target="_top" xlink:title=" ">
<polygon fill="none" stroke="black" points="448.5,-112.5 448.5,-131.5 517.5,-131.5 517.5,-112.5 448.5,-112.5"/>
<text text-anchor="middle" x="483" y="-119.5" font-family="Helvetica,sans-Serif" font-size="10.00">gempyre.h</text>
</a>
</g>
</g>
<!-- Node1&#45;&gt;Node2 -->
<g id="edge1" class="edge">
<title>Node1&#45;&gt;Node2</title>
<path fill="none" stroke="midnightblue" d="M522.24,-168.08C515.46,-160.3 505.46,-148.8 497.24,-139.37"/>
<polygon fill="midnightblue" stroke="midnightblue" points="499.82,-137 490.62,-131.75 494.54,-141.59 499.82,-137"/>
</g>
<!-- Node14 -->
<g id="node14" class="node">
<title>Node14</title>
<g id="a_node14"><a xlink:href="gempyre__bitmap_8h.html" target="_top" xlink:title=" ">
<polygon fill="none" stroke="black" points="95.5,-112.5 95.5,-131.5 204.5,-131.5 204.5,-112.5 95.5,-112.5"/>
<text text-anchor="middle" x="150" y="-119.5" font-family="Helvetica,sans-Serif" font-size="10.00">gempyre_bitmap.h</text>
</a>
</g>
</g>
<!-- Node1&#45;&gt;Node14 -->
<g id="edge14" class="edge">
<title>Node1&#45;&gt;Node14</title>
<path fill="none" stroke="midnightblue" d="M469.79,-168.44C400.27,-158.57 286.36,-142.38 214.91,-132.22"/>
<polygon fill="midnightblue" stroke="midnightblue" points="215.08,-128.71 204.69,-130.77 214.1,-135.64 215.08,-128.71"/>
</g>
<!-- Node16 -->
<g id="node16" class="node">
<title>Node16</title>
<g id="a_node16"><a xlink:title=" ">
<polygon fill="none" stroke="#bfbfbf" points="535.5,-112.5 535.5,-131.5 618.5,-131.5 618.5,-112.5 535.5,-112.5"/>
<text text-anchor="middle" x="577" y="-119.5" font-family="Helvetica,sans-Serif" font-size="10.00">initializer_list</text>
</a>
</g>
</g>
<!-- Node1&#45;&gt;Node16 -->
<g id="edge18" class="edge">
<title>Node1&#45;&gt;Node16</title>
<path fill="none" stroke="midnightblue" d="M537.76,-168.08C544.54,-160.3 554.54,-148.8 562.76,-139.37"/>
<polygon fill="midnightblue" stroke="midnightblue" points="565.46,-141.59 569.38,-131.75 560.18,-137 565.46,-141.59"/>
</g>
<!-- Node17 -->
<g id="node17" class="node">
<title>Node17</title>
<g id="a_node17"><a xlink:title=" ">
<polygon fill="none" stroke="#bfbfbf" points="636.5,-112.5 636.5,-131.5 687.5,-131.5 687.5,-112.5 636.5,-112.5"/>
<text text-anchor="middle" x="662" y="-119.5" font-family="Helvetica,sans-Serif" font-size="10.00">variant</text>
</a>
</g>
</g>
<!-- Node1&#45;&gt;Node17 -->
<g id="edge19" class="edge">
<title>Node1&#45;&gt;Node17</title>
<path fill="none" stroke="midnightblue" d="M550.92,-168.44C572.74,-159.52 607.15,-145.44 631.89,-135.32"/>
<polygon fill="midnightblue" stroke="midnightblue" points="633.25,-138.54 641.18,-131.52 630.6,-132.06 633.25,-138.54"/>
</g>
<!-- Node3 -->
<g id="node3" class="node">
<title>Node3</title>
<g id="a_node3"><a xlink:title=" ">
<polygon fill="none" stroke="#bfbfbf" points="82,-56.5 82,-75.5 126,-75.5 126,-56.5 82,-56.5"/>
<text text-anchor="middle" x="104" y="-63.5" font-family="Helvetica,sans-Serif" font-size="10.00">string</text>
</a>
</g>
</g>
<!-- Node2&#45;&gt;Node3 -->
<g id="edge2" class="edge">
<title>Node2&#45;&gt;Node3</title>
<path fill="none" stroke="midnightblue" d="M448.13,-118.28C386.84,-113.12 255.74,-100.35 136.29,-75.99"/>
<polygon fill="midnightblue" stroke="midnightblue" points="136.75,-72.51 126.25,-73.9 135.33,-79.36 136.75,-72.51"/>
</g>
<!-- Node4 -->
<g id="node4" class="node">
<title>Node4</title>
<g id="a_node4"><a xlink:title=" ">
<polygon fill="none" stroke="#bfbfbf" points="263.5,-56.5 263.5,-75.5 356.5,-75.5 356.5,-56.5 263.5,-56.5"/>
<text text-anchor="middle" x="310" y="-63.5" font-family="Helvetica,sans-Serif" font-size="10.00">unordered_map</text>
</a>
</g>
</g>
<!-- Node2&#45;&gt;Node4 -->
<g id="edge3" class="edge">
<title>Node2&#45;&gt;Node4</title>
<path fill="none" stroke="midnightblue" d="M455.59,-112.44C426.23,-103.28 379.48,-88.69 346.9,-78.52"/>
<polygon fill="midnightblue" stroke="midnightblue" points="347.87,-75.16 337.28,-75.52 345.79,-81.84 347.87,-75.16"/>
</g>
<!-- Node5 -->
<g id="node5" class="node">
<title>Node5</title>
<g id="a_node5"><a xlink:title=" ">
<polygon fill="none" stroke="#bfbfbf" points="374.5,-56.5 374.5,-75.5 439.5,-75.5 439.5,-56.5 374.5,-56.5"/>
<text text-anchor="middle" x="407" y="-63.5" font-family="Helvetica,sans-Serif" font-size="10.00">functional</text>
</a>
</g>
</g>
<!-- Node2&#45;&gt;Node5 -->
<g id="edge4" class="edge">
<title>Node2&#45;&gt;Node5</title>
<path fill="none" stroke="midnightblue" d="M470.79,-112.32C459.22,-104.11 441.62,-91.6 427.84,-81.81"/>
<polygon fill="midnightblue" stroke="midnightblue" points="429.61,-78.77 419.43,-75.83 425.56,-84.48 429.61,-78.77"/>
</g>
<!-- Node6 -->
<g id="node6" class="node">
<title>Node6</title>
<g id="a_node6"><a xlink:title=" ">
<polygon fill="none" stroke="#bfbfbf" points="499,-0.5 499,-19.5 557,-19.5 557,-0.5 499,-0.5"/>
<text text-anchor="middle" x="528" y="-7.5" font-family="Helvetica,sans-Serif" font-size="10.00">memory</text>
</a>
</g>
</g>
<!-- Node2&#45;&gt;Node6 -->
<g id="edge5" class="edge">
<title>Node2&#45;&gt;Node6</title>
<path fill="none" stroke="midnightblue" d="M517.55,-113.75C520.74,-113.13 523.93,-112.54 527,-112 580.76,-102.53 734.34,-117.33 770,-76 775.81,-69.27 775.68,-62.84 770,-56 744.69,-25.55 629.25,-15.61 567.41,-12.43"/>
<polygon fill="midnightblue" stroke="midnightblue" points="567.39,-8.93 557.24,-11.95 567.06,-15.92 567.39,-8.93"/>
</g>
<!-- Node7 -->
<g id="node7" class="node">
<title>Node7</title>
<g id="a_node7"><a xlink:title=" ">
<polygon fill="none" stroke="#bfbfbf" points="458,-56.5 458,-75.5 508,-75.5 508,-56.5 458,-56.5"/>
<text text-anchor="middle" x="483" y="-63.5" font-family="Helvetica,sans-Serif" font-size="10.00">chrono</text>
</a>
</g>
</g>
<!-- Node2&#45;&gt;Node7 -->
<g id="edge6" class="edge">
<title>Node2&#45;&gt;Node7</title>
<path fill="none" stroke="midnightblue" d="M483,-112.08C483,-105.01 483,-94.86 483,-85.99"/>
<polygon fill="midnightblue" stroke="midnightblue" points="486.5,-85.75 483,-75.75 479.5,-85.75 486.5,-85.75"/>
</g>
<!-- Node8 -->
<g id="node8" class="node">
<title>Node8</title>
<g id="a_node8"><a xlink:title=" ">
<polygon fill="none" stroke="#bfbfbf" points="526.5,-56.5 526.5,-75.5 561.5,-75.5 561.5,-56.5 526.5,-56.5"/>
<text text-anchor="middle" x="544" y="-63.5" font-family="Helvetica,sans-Serif" font-size="10.00">any</text>
</a>
</g>
</g>
<!-- Node2&#45;&gt;Node8 -->
<g id="edge7" class="edge">
<title>Node2&#45;&gt;Node8</title>
<path fill="none" stroke="midnightblue" d="M492.8,-112.32C501.82,-104.34 515.41,-92.31 526.32,-82.65"/>
<polygon fill="midnightblue" stroke="midnightblue" points="528.85,-85.08 534.02,-75.83 524.21,-79.84 528.85,-85.08"/>
</g>
<!-- Node9 -->
<g id="node9" class="node">
<title>Node9</title>
<g id="a_node9"><a xlink:title=" ">
<polygon fill="none" stroke="#bfbfbf" points="580,-56.5 580,-75.5 636,-75.5 636,-56.5 580,-56.5"/>
<text text-anchor="middle" x="608" y="-63.5" font-family="Helvetica,sans-Serif" font-size="10.00">optional</text>
</a>
</g>
</g>
<!-- Node2&#45;&gt;Node9 -->
<g id="edge8" class="edge">
<title>Node2&#45;&gt;Node9</title>
<path fill="none" stroke="midnightblue" d="M502.81,-112.44C523.29,-103.6 555.48,-89.69 578.86,-79.59"/>
<polygon fill="midnightblue" stroke="midnightblue" points="580.49,-82.7 588.29,-75.52 577.72,-76.27 580.49,-82.7"/>
</g>
<!-- Node10 -->
<g id="node10" class="node">
<title>Node10</title>
<g id="a_node10"><a xlink:title=" ">
<polygon fill="none" stroke="#bfbfbf" points="654.5,-56.5 654.5,-75.5 701.5,-75.5 701.5,-56.5 654.5,-56.5"/>
<text text-anchor="middle" x="678" y="-63.5" font-family="Helvetica,sans-Serif" font-size="10.00">vector</text>
</a>
</g>
</g>
<!-- Node2&#45;&gt;Node10 -->
<g id="edge9" class="edge">
<title>Node2&#45;&gt;Node10</title>
<path fill="none" stroke="midnightblue" d="M513.9,-112.44C549.53,-102.58 607.9,-86.41 644.57,-76.26"/>
<polygon fill="midnightblue" stroke="midnightblue" points="645.6,-79.6 654.3,-73.56 643.73,-72.86 645.6,-79.6"/>
</g>
<!-- Node11 -->
<g id="node11" class="node">
<title>Node11</title>
<g id="a_node11"><a xlink:title=" ">
<polygon fill="none" stroke="#bfbfbf" points="719.5,-56.5 719.5,-75.5 760.5,-75.5 760.5,-56.5 719.5,-56.5"/>
<text text-anchor="middle" x="740" y="-63.5" font-family="Helvetica,sans-Serif" font-size="10.00">tuple</text>
</a>
</g>
</g>
<!-- Node2&#45;&gt;Node11 -->
<g id="edge10" class="edge">
<title>Node2&#45;&gt;Node11</title>
<path fill="none" stroke="midnightblue" d="M517.58,-113.9C520.77,-113.25 523.94,-112.61 527,-112 605.52,-96.29 628.43,-96.35 709.32,-76.22"/>
<polygon fill="midnightblue" stroke="midnightblue" points="710.64,-79.5 719.48,-73.67 708.93,-72.71 710.64,-79.5"/>
</g>
<!-- Node12 -->
<g id="node12" class="node">
<title>Node12</title>
<g id="a_node12"><a xlink:href="gempyre__types_8h_source.html" target="_top" xlink:title=" ">
<polygon fill="none" stroke="black" points="144.5,-56.5 144.5,-75.5 245.5,-75.5 245.5,-56.5 144.5,-56.5"/>
<text text-anchor="middle" x="195" y="-63.5" font-family="Helvetica,sans-Serif" font-size="10.00">gempyre_types.h</text>
</a>
</g>
</g>
<!-- Node2&#45;&gt;Node12 -->
<g id="edge11" class="edge">
<title>Node2&#45;&gt;Node12</title>
<path fill="none" stroke="midnightblue" d="M448.26,-114.49C399.29,-105.3 309.41,-88.45 250.95,-77.49"/>
<polygon fill="midnightblue" stroke="midnightblue" points="251.25,-73.99 240.78,-75.58 249.96,-80.87 251.25,-73.99"/>
</g>
<!-- Node12&#45;&gt;Node6 -->
<g id="edge13" class="edge">
<title>Node12&#45;&gt;Node6</title>
<path fill="none" stroke="midnightblue" d="M245.58,-56.8C312.31,-45.98 428.37,-27.16 488.83,-17.35"/>
<polygon fill="midnightblue" stroke="midnightblue" points="489.44,-20.8 498.75,-15.74 488.32,-13.89 489.44,-20.8"/>
</g>
<!-- Node13 -->
<g id="node13" class="node">
<title>Node13</title>
<g id="a_node13"><a xlink:title=" ">
<polygon fill="none" stroke="#bfbfbf" points="170,-0.5 170,-19.5 220,-19.5 220,-0.5 170,-0.5"/>
<text text-anchor="middle" x="195" y="-7.5" font-family="Helvetica,sans-Serif" font-size="10.00">cstdint</text>
</a>
</g>
</g>
<!-- Node12&#45;&gt;Node13 -->
<g id="edge12" class="edge">
<title>Node12&#45;&gt;Node13</title>
<path fill="none" stroke="midnightblue" d="M195,-56.08C195,-49.01 195,-38.86 195,-29.99"/>
<polygon fill="midnightblue" stroke="midnightblue" points="198.5,-29.75 195,-19.75 191.5,-29.75 198.5,-29.75"/>
</g>
<!-- Node14&#45;&gt;Node3 -->
<g id="edge15" class="edge">
<title>Node14&#45;&gt;Node3</title>
<path fill="none" stroke="midnightblue" d="M142.4,-112.08C135.77,-104.3 125.98,-92.8 117.94,-83.37"/>
<polygon fill="midnightblue" stroke="midnightblue" points="120.6,-81.09 111.45,-75.75 115.27,-85.63 120.6,-81.09"/>
</g>
<!-- Node14&#45;&gt;Node12 -->
<g id="edge17" class="edge">
<title>Node14&#45;&gt;Node12</title>
<path fill="none" stroke="midnightblue" d="M157.43,-112.08C163.85,-104.38 173.31,-93.03 181.12,-83.65"/>
<polygon fill="midnightblue" stroke="midnightblue" points="183.99,-85.67 187.71,-75.75 178.62,-81.19 183.99,-85.67"/>
</g>
<!-- Node15 -->
<g id="node15" class="node">
<title>Node15</title>
<g id="a_node15"><a xlink:title=" ">
<polygon fill="none" stroke="#bfbfbf" points="0,-56.5 0,-75.5 64,-75.5 64,-56.5 0,-56.5"/>
<text text-anchor="middle" x="32" y="-63.5" font-family="Helvetica,sans-Serif" font-size="10.00">algorithm</text>
</a>
</g>
</g>
<!-- Node14&#45;&gt;Node15 -->
<g id="edge16" class="edge">
<title>Node14&#45;&gt;Node15</title>
<path fill="none" stroke="midnightblue" d="M131.3,-112.44C112.06,-103.64 81.85,-89.81 59.8,-79.72"/>
<polygon fill="midnightblue" stroke="midnightblue" points="61.16,-76.5 50.61,-75.52 58.25,-82.86 61.16,-76.5"/>
</g>
</g>
</svg>
