<?xml version="1.0" encoding="UTF-8" standalone="no"?>
<!DOCTYPE svg PUBLIC "-//W3C//DTD SVG 1.1//EN"
 "http://www.w3.org/Graphics/SVG/1.1/DTD/svg11.dtd">
<!-- Generated by graphviz version 2.43.0 (0)
 -->
<!-- Title: include/gempyre.h Pages: 1 -->
<svg width="891pt" height="140pt"
 viewBox="0.00 0.00 890.50 140.00" xmlns="http://www.w3.org/2000/svg" xmlns:xlink="http://www.w3.org/1999/xlink">
<g id="graph0" class="graph" transform="scale(1 1) rotate(0) translate(4 136)">
<title>include/gempyre.h</title>
<!-- Node1 -->
<g id="node1" class="node">
<title>Node1</title>
<g id="a_node1"><a xlink:title=" ">
<polygon fill="#bfbfbf" stroke="black" points="359.5,-112.5 359.5,-131.5 466.5,-131.5 466.5,-112.5 359.5,-112.5"/>
<text text-anchor="middle" x="413" y="-119.5" font-family="Helvetica,sans-Serif" font-size="10.00">include/gempyre.h</text>
</a>
</g>
</g>
<!-- Node2 -->
<g id="node2" class="node">
<title>Node2</title>
<g id="a_node2"><a xlink:title=" ">
<polygon fill="none" stroke="#bfbfbf" points="0,-56.5 0,-75.5 44,-75.5 44,-56.5 0,-56.5"/>
<text text-anchor="middle" x="22" y="-63.5" font-family="Helvetica,sans-Serif" font-size="10.00">string</text>
</a>
</g>
</g>
<!-- Node1&#45;&gt;Node2 -->
<g id="edge1" class="edge">
<title>Node1&#45;&gt;Node2</title>
<path fill="none" stroke="midnightblue" d="M359.2,-116.95C290.44,-111.18 167.69,-98.9 54.15,-75.95"/>
<polygon fill="midnightblue" stroke="midnightblue" points="54.75,-72.5 44.25,-73.92 53.34,-79.36 54.75,-72.5"/>
</g>
<!-- Node3 -->
<g id="node3" class="node">
<title>Node3</title>
<g id="a_node3"><a xlink:title=" ">
<polygon fill="none" stroke="#bfbfbf" points="62.5,-56.5 62.5,-75.5 155.5,-75.5 155.5,-56.5 62.5,-56.5"/>
<text text-anchor="middle" x="109" y="-63.5" font-family="Helvetica,sans-Serif" font-size="10.00">unordered_map</text>
</a>
</g>
</g>
<!-- Node1&#45;&gt;Node3 -->
<g id="edge2" class="edge">
<title>Node1&#45;&gt;Node3</title>
<path fill="none" stroke="midnightblue" d="M364.83,-112.44C310.82,-102.85 223.29,-87.3 165.94,-77.11"/>
<polygon fill="midnightblue" stroke="midnightblue" points="166.4,-73.64 155.95,-75.34 165.18,-80.53 166.4,-73.64"/>
</g>
<!-- Node4 -->
<g id="node4" class="node">
<title>Node4</title>
<g id="a_node4"><a xlink:title=" ">
<polygon fill="none" stroke="#bfbfbf" points="173.5,-56.5 173.5,-75.5 238.5,-75.5 238.5,-56.5 173.5,-56.5"/>
<text text-anchor="middle" x="206" y="-63.5" font-family="Helvetica,sans-Serif" font-size="10.00">functional</text>
</a>
</g>
</g>
<!-- Node1&#45;&gt;Node4 -->
<g id="edge3" class="edge">
<title>Node1&#45;&gt;Node4</title>
<path fill="none" stroke="midnightblue" d="M380.2,-112.44C344.62,-103.16 287.69,-88.31 248.65,-78.13"/>
<polygon fill="midnightblue" stroke="midnightblue" points="249.21,-74.65 238.65,-75.52 247.44,-81.43 249.21,-74.65"/>
</g>
<!-- Node5 -->
<g id="node5" class="node">
<title>Node5</title>
<g id="a_node5"><a xlink:title=" ">
<polygon fill="none" stroke="#bfbfbf" points="485,-0.5 485,-19.5 543,-19.5 543,-0.5 485,-0.5"/>
<text text-anchor="middle" x="514" y="-7.5" font-family="Helvetica,sans-Serif" font-size="10.00">memory</text>
</a>
</g>
</g>
<!-- Node1&#45;&gt;Node5 -->
<g id="edge4" class="edge">
<title>Node1&#45;&gt;Node5</title>
<path fill="none" stroke="midnightblue" d="M359.2,-112.75C314.33,-103.57 261.39,-85.95 286,-56 309.44,-27.48 415.89,-16.74 474.68,-12.93"/>
<polygon fill="midnightblue" stroke="midnightblue" points="474.96,-16.42 484.73,-12.32 474.54,-9.44 474.96,-16.42"/>
</g>
<!-- Node6 -->
<g id="node6" class="node">
<title>Node6</title>
<g id="a_node6"><a xlink:title=" ">
<polygon fill="none" stroke="#bfbfbf" points="295,-56.5 295,-75.5 345,-75.5 345,-56.5 295,-56.5"/>
<text text-anchor="middle" x="320" y="-63.5" font-family="Helvetica,sans-Serif" font-size="10.00">chrono</text>
</a>
</g>
</g>
<!-- Node1&#45;&gt;Node6 -->
<g id="edge5" class="edge">
<title>Node1&#45;&gt;Node6</title>
<path fill="none" stroke="midnightblue" d="M398.06,-112.32C383.41,-103.82 360.87,-90.73 343.76,-80.8"/>
<polygon fill="midnightblue" stroke="midnightblue" points="345.31,-77.65 334.9,-75.65 341.8,-83.7 345.31,-77.65"/>
</g>
<!-- Node7 -->
<g id="node7" class="node">
<title>Node7</title>
<g id="a_node7"><a xlink:title=" ">
<polygon fill="none" stroke="#bfbfbf" points="363.5,-56.5 363.5,-75.5 398.5,-75.5 398.5,-56.5 363.5,-56.5"/>
<text text-anchor="middle" x="381" y="-63.5" font-family="Helvetica,sans-Serif" font-size="10.00">any</text>
</a>
</g>
</g>
<!-- Node1&#45;&gt;Node7 -->
<g id="edge6" class="edge">
<title>Node1&#45;&gt;Node7</title>
<path fill="none" stroke="midnightblue" d="M407.72,-112.08C403.29,-104.61 396.84,-93.72 391.38,-84.52"/>
<polygon fill="midnightblue" stroke="midnightblue" points="394.29,-82.57 386.19,-75.75 388.27,-86.14 394.29,-82.57"/>
</g>
<!-- Node8 -->
<g id="node8" class="node">
<title>Node8</title>
<g id="a_node8"><a xlink:title=" ">
<polygon fill="none" stroke="#bfbfbf" points="417,-56.5 417,-75.5 473,-75.5 473,-56.5 417,-56.5"/>
<text text-anchor="middle" x="445" y="-63.5" font-family="Helvetica,sans-Serif" font-size="10.00">optional</text>
</a>
</g>
</g>
<!-- Node1&#45;&gt;Node8 -->
<g id="edge7" class="edge">
<title>Node1&#45;&gt;Node8</title>
<path fill="none" stroke="midnightblue" d="M418.28,-112.08C422.71,-104.61 429.16,-93.72 434.62,-84.52"/>
<polygon fill="midnightblue" stroke="midnightblue" points="437.73,-86.14 439.81,-75.75 431.71,-82.57 437.73,-86.14"/>
</g>
<!-- Node9 -->
<g id="node9" class="node">
<title>Node9</title>
<g id="a_node9"><a xlink:title=" ">
<polygon fill="none" stroke="#bfbfbf" points="491.5,-56.5 491.5,-75.5 538.5,-75.5 538.5,-56.5 491.5,-56.5"/>
<text text-anchor="middle" x="515" y="-63.5" font-family="Helvetica,sans-Serif" font-size="10.00">vector</text>
</a>
</g>
</g>
<!-- Node1&#45;&gt;Node9 -->
<g id="edge8" class="edge">
<title>Node1&#45;&gt;Node9</title>
<path fill="none" stroke="midnightblue" d="M429.39,-112.32C445.67,-103.7 470.87,-90.36 489.72,-80.39"/>
<polygon fill="midnightblue" stroke="midnightblue" points="491.45,-83.43 498.65,-75.65 488.18,-77.24 491.45,-83.43"/>
</g>
<!-- Node10 -->
<g id="node10" class="node">
<title>Node10</title>
<g id="a_node10"><a xlink:title=" ">
<polygon fill="none" stroke="#bfbfbf" points="556.5,-56.5 556.5,-75.5 597.5,-75.5 597.5,-56.5 556.5,-56.5"/>
<text text-anchor="middle" x="577" y="-63.5" font-family="Helvetica,sans-Serif" font-size="10.00">tuple</text>
</a>
</g>
</g>
<!-- Node1&#45;&gt;Node10 -->
<g id="edge9" class="edge">
<title>Node1&#45;&gt;Node10</title>
<path fill="none" stroke="midnightblue" d="M438.99,-112.44C468.2,-102.82 515.58,-87.22 546.52,-77.04"/>
<polygon fill="midnightblue" stroke="midnightblue" points="547.92,-80.26 556.33,-73.81 545.73,-73.61 547.92,-80.26"/>
</g>
<!-- Node11 -->
<g id="node11" class="node">
<title>Node11</title>
<g id="a_node11"><a xlink:title=" ">
<polygon fill="none" stroke="#bfbfbf" points="615.5,-56.5 615.5,-75.5 688.5,-75.5 688.5,-56.5 615.5,-56.5"/>
<text text-anchor="middle" x="652" y="-63.5" font-family="Helvetica,sans-Serif" font-size="10.00">string_view</text>
</a>
</g>
</g>
<!-- Node1&#45;&gt;Node11 -->
<g id="edge10" class="edge">
<title>Node1&#45;&gt;Node11</title>
<path fill="none" stroke="midnightblue" d="M450.87,-112.44C492.84,-102.96 560.55,-87.66 605.66,-77.47"/>
<polygon fill="midnightblue" stroke="midnightblue" points="606.5,-80.87 615.48,-75.25 604.96,-74.04 606.5,-80.87"/>
</g>
<!-- Node12 -->
<g id="node12" class="node">
<title>Node12</title>
<g id="a_node12"><a xlink:title=" ">
<polygon fill="none" stroke="#bfbfbf" points="707,-56.5 707,-75.5 763,-75.5 763,-56.5 707,-56.5"/>
<text text-anchor="middle" x="735" y="-63.5" font-family="Helvetica,sans-Serif" font-size="10.00">sstream</text>
</a>
</g>
</g>
<!-- Node1&#45;&gt;Node12 -->
<g id="edge11" class="edge">
<title>Node1&#45;&gt;Node12</title>
<path fill="none" stroke="midnightblue" d="M466.6,-113.74C523.86,-105.69 617.17,-91.75 697,-76 697.1,-75.98 697.2,-75.96 697.3,-75.94"/>
<polygon fill="midnightblue" stroke="midnightblue" points="697.77,-79.42 706.83,-73.92 696.32,-72.57 697.77,-79.42"/>
</g>
<!-- Node13 -->
<g id="node13" class="node">
<title>Node13</title>
<g id="a_node13"><a xlink:href="gempyre__types_8h_source.html" target="_top" xlink:title=" ">
<polygon fill="none" stroke="black" points="781.5,-56.5 781.5,-75.5 882.5,-75.5 882.5,-56.5 781.5,-56.5"/>
<text text-anchor="middle" x="832" y="-63.5" font-family="Helvetica,sans-Serif" font-size="10.00">gempyre_types.h</text>
</a>
</g>
</g>
<!-- Node1&#45;&gt;Node13 -->
<g id="edge12" class="edge">
<title>Node1&#45;&gt;Node13</title>
<path fill="none" stroke="midnightblue" d="M466.58,-114.69C534.8,-106.57 656.58,-91.77 771.27,-76.07"/>
<polygon fill="midnightblue" stroke="midnightblue" points="771.84,-79.53 781.27,-74.7 770.89,-72.59 771.84,-79.53"/>
</g>
<!-- Node13&#45;&gt;Node5 -->
<g id="edge14" class="edge">
<title>Node13&#45;&gt;Node5</title>
<path fill="none" stroke="midnightblue" d="M781.61,-56.44C718.3,-45.69 610.98,-27.47 553.36,-17.68"/>
<polygon fill="midnightblue" stroke="midnightblue" points="553.65,-14.18 543.2,-15.96 552.48,-21.08 553.65,-14.18"/>
</g>
<!-- Node14 -->
<g id="node14" class="node">
<title>Node14</title>
<g id="a_node14"><a xlink:title=" ">
<polygon fill="none" stroke="#bfbfbf" points="807,-0.5 807,-19.5 857,-19.5 857,-0.5 807,-0.5"/>
<text text-anchor="middle" x="832" y="-7.5" font-family="Helvetica,sans-Serif" font-size="10.00">cstdint</text>
</a>
</g>
</g>
<!-- Node13&#45;&gt;Node14 -->
<g id="edge13" class="edge">
<title>Node13&#45;&gt;Node14</title>
<path fill="none" stroke="midnightblue" d="M832,-56.08C832,-49.01 832,-38.86 832,-29.99"/>
<polygon fill="midnightblue" stroke="midnightblue" points="835.5,-29.75 832,-19.75 828.5,-29.75 835.5,-29.75"/>
</g>
</g>
</svg>
