<?xml version="1.0" encoding="UTF-8" standalone="no"?>
<!DOCTYPE svg PUBLIC "-//W3C//DTD SVG 1.1//EN"
 "http://www.w3.org/Graphics/SVG/1.1/DTD/svg11.dtd">
<!-- Generated by graphviz version 2.43.0 (0)
 -->
<!-- Title: include/gempyre.h Pages: 1 -->
<svg width="891pt" height="137pt"
 viewBox="0.00 0.00 890.50 137.00" xmlns="http://www.w3.org/2000/svg" xmlns:xlink="http://www.w3.org/1999/xlink">
<g id="graph0" class="graph" transform="scale(1 1) rotate(0) translate(4 133)">
<title>include/gempyre.h</title>
<!-- Node1 -->
<g id="Node000001" class="node">
<title>Node1</title>
<g id="a_Node000001"><a xlink:title=" ">
<polygon fill="#999999" stroke="#666666" points="466.5,-129 359.5,-129 359.5,-110 466.5,-110 466.5,-129"/>
<text text-anchor="middle" x="413" y="-117" font-family="Helvetica,sans-Serif" font-size="10.00">include/gempyre.h</text>
</a>
</g>
</g>
<!-- Node2 -->
<g id="Node000002" class="node">
<title>Node2</title>
<g id="a_Node000002"><a xlink:title=" ">
<polygon fill="#e0e0e0" stroke="#999999" points="44,-74 0,-74 0,-55 44,-55 44,-74"/>
<text text-anchor="middle" x="22" y="-62" font-family="Helvetica,sans-Serif" font-size="10.00">string</text>
</a>
</g>
</g>
<!-- Node1&#45;&gt;Node2 -->
<g id="edge1_Node000001_Node000002" class="edge">
<title>Node1&#45;&gt;Node2</title>
<g id="a_edge1_Node000001_Node000002"><a xlink:title=" ">
<path fill="none" stroke="#63b8ff" d="M359.25,-114.3C290.54,-108.39 167.85,-96.02 54.17,-73.97"/>
<polygon fill="#63b8ff" stroke="#63b8ff" points="54.75,-70.52 44.26,-72.02 53.39,-77.38 54.75,-70.52"/>
</a>
</g>
</g>
<!-- Node3 -->
<g id="Node000003" class="node">
<title>Node3</title>
<g id="a_Node000003"><a xlink:title=" ">
<polygon fill="#e0e0e0" stroke="#999999" points="155.5,-74 62.5,-74 62.5,-55 155.5,-55 155.5,-74"/>
<text text-anchor="middle" x="109" y="-62" font-family="Helvetica,sans-Serif" font-size="10.00">unordered_map</text>
</a>
</g>
</g>
<!-- Node1&#45;&gt;Node3 -->
<g id="edge2_Node000001_Node000003" class="edge">
<title>Node1&#45;&gt;Node3</title>
<g id="a_edge2_Node000001_Node000003"><a xlink:title=" ">
<path fill="none" stroke="#63b8ff" d="M364.16,-109.98C310.01,-100.54 222.79,-85.34 165.67,-75.38"/>
<polygon fill="#63b8ff" stroke="#63b8ff" points="166.18,-71.92 155.72,-73.65 164.98,-78.81 166.18,-71.92"/>
</a>
</g>
</g>
<!-- Node4 -->
<g id="Node000004" class="node">
<title>Node4</title>
<g id="a_Node000004"><a xlink:title=" ">
<polygon fill="#e0e0e0" stroke="#999999" points="238.5,-74 173.5,-74 173.5,-55 238.5,-55 238.5,-74"/>
<text text-anchor="middle" x="206" y="-62" font-family="Helvetica,sans-Serif" font-size="10.00">functional</text>
</a>
</g>
</g>
<!-- Node1&#45;&gt;Node4 -->
<g id="edge3_Node000001_Node000004" class="edge">
<title>Node1&#45;&gt;Node4</title>
<g id="a_edge3_Node000001_Node000004"><a xlink:title=" ">
<path fill="none" stroke="#63b8ff" d="M379.74,-109.98C344.18,-100.88 287.66,-86.41 248.8,-76.46"/>
<polygon fill="#63b8ff" stroke="#63b8ff" points="249.39,-73 238.83,-73.91 247.65,-79.78 249.39,-73"/>
</a>
</g>
</g>
<!-- Node5 -->
<g id="Node000005" class="node">
<title>Node5</title>
<g id="a_Node000005"><a xlink:title=" ">
<polygon fill="#e0e0e0" stroke="#999999" points="543,-19 485,-19 485,0 543,0 543,-19"/>
<text text-anchor="middle" x="514" y="-7" font-family="Helvetica,sans-Serif" font-size="10.00">memory</text>
</a>
</g>
</g>
<!-- Node1&#45;&gt;Node5 -->
<g id="edge4_Node000001_Node000005" class="edge">
<title>Node1&#45;&gt;Node5</title>
<g id="a_edge4_Node000001_Node000005"><a xlink:title=" ">
<path fill="none" stroke="#63b8ff" d="M359.24,-110.67C314.4,-101.88 261.47,-84.78 286,-55 309.46,-26.51 415.9,-16.01 474.69,-12.34"/>
<polygon fill="#63b8ff" stroke="#63b8ff" points="474.96,-15.83 484.73,-11.75 474.55,-8.85 474.96,-15.83"/>
</a>
</g>
</g>
<!-- Node6 -->
<g id="Node000006" class="node">
<title>Node6</title>
<g id="a_Node000006"><a xlink:title=" ">
<polygon fill="#e0e0e0" stroke="#999999" points="345,-74 295,-74 295,-55 345,-55 345,-74"/>
<text text-anchor="middle" x="320" y="-62" font-family="Helvetica,sans-Serif" font-size="10.00">chrono</text>
</a>
</g>
</g>
<!-- Node1&#45;&gt;Node6 -->
<g id="edge5_Node000001_Node000006" class="edge">
<title>Node1&#45;&gt;Node6</title>
<g id="a_edge5_Node000001_Node000006"><a xlink:title=" ">
<path fill="none" stroke="#63b8ff" d="M398.06,-109.98C383.5,-101.69 361.13,-88.94 344.07,-79.22"/>
<polygon fill="#63b8ff" stroke="#63b8ff" points="345.64,-76.08 335.21,-74.17 342.17,-82.16 345.64,-76.08"/>
</a>
</g>
</g>
<!-- Node7 -->
<g id="Node000007" class="node">
<title>Node7</title>
<g id="a_Node000007"><a xlink:title=" ">
<polygon fill="#e0e0e0" stroke="#999999" points="398.5,-74 363.5,-74 363.5,-55 398.5,-55 398.5,-74"/>
<text text-anchor="middle" x="381" y="-62" font-family="Helvetica,sans-Serif" font-size="10.00">any</text>
</a>
</g>
</g>
<!-- Node1&#45;&gt;Node7 -->
<g id="edge6_Node000001_Node000007" class="edge">
<title>Node1&#45;&gt;Node7</title>
<g id="a_edge6_Node000001_Node000007"><a xlink:title=" ">
<path fill="none" stroke="#63b8ff" d="M407.72,-109.75C403.29,-102.42 396.84,-91.73 391.38,-82.7"/>
<polygon fill="#63b8ff" stroke="#63b8ff" points="394.35,-80.84 386.19,-74.09 388.36,-84.46 394.35,-80.84"/>
</a>
</g>
</g>
<!-- Node8 -->
<g id="Node000008" class="node">
<title>Node8</title>
<g id="a_Node000008"><a xlink:title=" ">
<polygon fill="#e0e0e0" stroke="#999999" points="473,-74 417,-74 417,-55 473,-55 473,-74"/>
<text text-anchor="middle" x="445" y="-62" font-family="Helvetica,sans-Serif" font-size="10.00">optional</text>
</a>
</g>
</g>
<!-- Node1&#45;&gt;Node8 -->
<g id="edge7_Node000001_Node000008" class="edge">
<title>Node1&#45;&gt;Node8</title>
<g id="a_edge7_Node000001_Node000008"><a xlink:title=" ">
<path fill="none" stroke="#63b8ff" d="M418.28,-109.75C422.71,-102.42 429.16,-91.73 434.62,-82.7"/>
<polygon fill="#63b8ff" stroke="#63b8ff" points="437.64,-84.46 439.81,-74.09 431.65,-80.84 437.64,-84.46"/>
</a>
</g>
</g>
<!-- Node9 -->
<g id="Node000009" class="node">
<title>Node9</title>
<g id="a_Node000009"><a xlink:title=" ">
<polygon fill="#e0e0e0" stroke="#999999" points="538.5,-74 491.5,-74 491.5,-55 538.5,-55 538.5,-74"/>
<text text-anchor="middle" x="515" y="-62" font-family="Helvetica,sans-Serif" font-size="10.00">vector</text>
</a>
</g>
</g>
<!-- Node1&#45;&gt;Node9 -->
<g id="edge8_Node000001_Node000009" class="edge">
<title>Node1&#45;&gt;Node9</title>
<g id="a_edge8_Node000001_Node000009"><a xlink:title=" ">
<path fill="none" stroke="#63b8ff" d="M429.39,-109.98C445.57,-101.57 470.57,-88.59 489.38,-78.81"/>
<polygon fill="#63b8ff" stroke="#63b8ff" points="491.05,-81.89 498.31,-74.17 487.83,-75.68 491.05,-81.89"/>
</a>
</g>
</g>
<!-- Node10 -->
<g id="Node000010" class="node">
<title>Node10</title>
<g id="a_Node000010"><a xlink:title=" ">
<polygon fill="#e0e0e0" stroke="#999999" points="597.5,-74 556.5,-74 556.5,-55 597.5,-55 597.5,-74"/>
<text text-anchor="middle" x="577" y="-62" font-family="Helvetica,sans-Serif" font-size="10.00">tuple</text>
</a>
</g>
</g>
<!-- Node1&#45;&gt;Node10 -->
<g id="edge9_Node000001_Node000010" class="edge">
<title>Node1&#45;&gt;Node10</title>
<g id="a_edge9_Node000001_Node000010"><a xlink:title=" ">
<path fill="none" stroke="#63b8ff" d="M439.35,-109.98C468.64,-100.52 515.85,-85.26 546.66,-75.31"/>
<polygon fill="#63b8ff" stroke="#63b8ff" points="547.99,-78.55 556.43,-72.15 545.83,-71.89 547.99,-78.55"/>
</a>
</g>
</g>
<!-- Node11 -->
<g id="Node000011" class="node">
<title>Node11</title>
<g id="a_Node000011"><a xlink:title=" ">
<polygon fill="#e0e0e0" stroke="#999999" points="688.5,-74 615.5,-74 615.5,-55 688.5,-55 688.5,-74"/>
<text text-anchor="middle" x="652" y="-62" font-family="Helvetica,sans-Serif" font-size="10.00">string_view</text>
</a>
</g>
</g>
<!-- Node1&#45;&gt;Node11 -->
<g id="edge10_Node000001_Node000011" class="edge">
<title>Node1&#45;&gt;Node11</title>
<g id="a_edge10_Node000001_Node000011"><a xlink:title=" ">
<path fill="none" stroke="#63b8ff" d="M451.4,-109.98C493.35,-100.68 560.56,-85.78 605.48,-75.82"/>
<polygon fill="#63b8ff" stroke="#63b8ff" points="606.26,-79.23 615.27,-73.65 604.75,-72.39 606.26,-79.23"/>
</a>
</g>
</g>
<!-- Node12 -->
<g id="Node000012" class="node">
<title>Node12</title>
<g id="a_Node000012"><a xlink:title=" ">
<polygon fill="#e0e0e0" stroke="#999999" points="763,-74 707,-74 707,-55 763,-55 763,-74"/>
<text text-anchor="middle" x="735" y="-62" font-family="Helvetica,sans-Serif" font-size="10.00">sstream</text>
</a>
</g>
</g>
<!-- Node1&#45;&gt;Node12 -->
<g id="edge11_Node000001_Node000012" class="edge">
<title>Node1&#45;&gt;Node12</title>
<g id="a_edge11_Node000001_Node000012"><a xlink:title=" ">
<path fill="none" stroke="#63b8ff" d="M466.57,-111.16C523.8,-103.07 617.08,-89.18 697,-74 697.1,-73.98 697.2,-73.96 697.3,-73.94"/>
<polygon fill="#63b8ff" stroke="#63b8ff" points="697.71,-77.43 706.82,-72.02 696.32,-70.57 697.71,-77.43"/>
</a>
</g>
</g>
<!-- Node13 -->
<g id="Node000013" class="node">
<title>Node13</title>
<g id="a_Node000013"><a xlink:href="gempyre__types_8h_source.html" target="_top" xlink:title=" ">
<polygon fill="white" stroke="#666666" points="882.5,-74 781.5,-74 781.5,-55 882.5,-55 882.5,-74"/>
<text text-anchor="middle" x="832" y="-62" font-family="Helvetica,sans-Serif" font-size="10.00">gempyre_types.h</text>
</a>
</g>
</g>
<!-- Node1&#45;&gt;Node13 -->
<g id="edge12_Node000001_Node000013" class="edge">
<title>Node1&#45;&gt;Node13</title>
<g id="a_edge12_Node000001_Node000013"><a xlink:title=" ">
<path fill="none" stroke="#63b8ff" d="M466.56,-112.16C534.77,-104.01 656.53,-89.25 771.26,-74.08"/>
<polygon fill="#63b8ff" stroke="#63b8ff" points="771.82,-77.53 781.27,-72.75 770.9,-70.6 771.82,-77.53"/>
</a>
</g>
</g>
<!-- Node13&#45;&gt;Node5 -->
<g id="edge14_Node000013_Node000005" class="edge">
<title>Node13&#45;&gt;Node5</title>
<g id="a_edge14_Node000013_Node000005"><a xlink:title=" ">
<path fill="none" stroke="#63b8ff" d="M781.26,-55.04C717.87,-44.48 610.76,-26.63 553.27,-17.04"/>
<polygon fill="#63b8ff" stroke="#63b8ff" points="553.57,-13.55 543.13,-15.36 552.42,-20.45 553.57,-13.55"/>
</a>
</g>
</g>
<!-- Node14 -->
<g id="Node000014" class="node">
<title>Node14</title>
<g id="a_Node000014"><a xlink:title=" ">
<polygon fill="#e0e0e0" stroke="#999999" points="857,-19 807,-19 807,0 857,0 857,-19"/>
<text text-anchor="middle" x="832" y="-7" font-family="Helvetica,sans-Serif" font-size="10.00">cstdint</text>
</a>
</g>
</g>
<!-- Node13&#45;&gt;Node14 -->
<g id="edge13_Node000013_Node000014" class="edge">
<title>Node13&#45;&gt;Node14</title>
<g id="a_edge13_Node000013_Node000014"><a xlink:title=" ">
<path fill="none" stroke="#63b8ff" d="M832,-54.75C832,-47.8 832,-37.85 832,-29.13"/>
<polygon fill="#63b8ff" stroke="#63b8ff" points="835.5,-29.09 832,-19.09 828.5,-29.09 835.5,-29.09"/>
</a>
</g>
</g>
</g>
</svg>
