<?xml version="1.0" encoding="UTF-8" standalone="no"?>
<!DOCTYPE svg PUBLIC "-//W3C//DTD SVG 1.1//EN"
 "http://www.w3.org/Graphics/SVG/1.1/DTD/svg11.dtd">
<!-- Generated by graphviz version 2.43.0 (0)
 -->
<!-- Title: include/gempyre.h Pages: 1 -->
<svg width="725pt" height="140pt"
 viewBox="0.00 0.00 724.50 140.00" xmlns="http://www.w3.org/2000/svg" xmlns:xlink="http://www.w3.org/1999/xlink">
<g id="graph0" class="graph" transform="scale(1 1) rotate(0) translate(4 136)">
<title>include/gempyre.h</title>
<!-- Node1 -->
<g id="node1" class="node">
<title>Node1</title>
<g id="a_node1"><a xlink:title=" ">
<polygon fill="#bfbfbf" stroke="black" points="296.5,-112.5 296.5,-131.5 403.5,-131.5 403.5,-112.5 296.5,-112.5"/>
<text text-anchor="middle" x="350" y="-119.5" font-family="Helvetica,sans-Serif" font-size="10.00">include/gempyre.h</text>
</a>
</g>
</g>
<!-- Node2 -->
<g id="node2" class="node">
<title>Node2</title>
<g id="a_node2"><a xlink:title=" ">
<polygon fill="none" stroke="#bfbfbf" points="0,-56.5 0,-75.5 44,-75.5 44,-56.5 0,-56.5"/>
<text text-anchor="middle" x="22" y="-63.5" font-family="Helvetica,sans-Serif" font-size="10.00">string</text>
</a>
</g>
</g>
<!-- Node1&#45;&gt;Node2 -->
<g id="edge1" class="edge">
<title>Node1&#45;&gt;Node2</title>
<path fill="none" stroke="midnightblue" d="M296.5,-115.05C238.83,-108.16 144.24,-95.47 54.09,-76"/>
<polygon fill="midnightblue" stroke="midnightblue" points="54.78,-72.57 44.26,-73.84 53.28,-79.4 54.78,-72.57"/>
</g>
<!-- Node3 -->
<g id="node3" class="node">
<title>Node3</title>
<g id="a_node3"><a xlink:title=" ">
<polygon fill="none" stroke="#bfbfbf" points="62.5,-56.5 62.5,-75.5 155.5,-75.5 155.5,-56.5 62.5,-56.5"/>
<text text-anchor="middle" x="109" y="-63.5" font-family="Helvetica,sans-Serif" font-size="10.00">unordered_map</text>
</a>
</g>
</g>
<!-- Node1&#45;&gt;Node3 -->
<g id="edge2" class="edge">
<title>Node1&#45;&gt;Node3</title>
<path fill="none" stroke="midnightblue" d="M311.81,-112.44C269.86,-103.04 202.41,-87.93 156.93,-77.74"/>
<polygon fill="midnightblue" stroke="midnightblue" points="157.53,-74.29 147.01,-75.52 156,-81.12 157.53,-74.29"/>
</g>
<!-- Node4 -->
<g id="node4" class="node">
<title>Node4</title>
<g id="a_node4"><a xlink:title=" ">
<polygon fill="none" stroke="#bfbfbf" points="173.5,-56.5 173.5,-75.5 238.5,-75.5 238.5,-56.5 173.5,-56.5"/>
<text text-anchor="middle" x="206" y="-63.5" font-family="Helvetica,sans-Serif" font-size="10.00">functional</text>
</a>
</g>
</g>
<!-- Node1&#45;&gt;Node4 -->
<g id="edge3" class="edge">
<title>Node1&#45;&gt;Node4</title>
<path fill="none" stroke="midnightblue" d="M327.18,-112.44C303.17,-103.44 265.17,-89.19 238.13,-79.05"/>
<polygon fill="midnightblue" stroke="midnightblue" points="239.3,-75.75 228.71,-75.52 236.84,-82.3 239.3,-75.75"/>
</g>
<!-- Node5 -->
<g id="node5" class="node">
<title>Node5</title>
<g id="a_node5"><a xlink:title=" ">
<polygon fill="none" stroke="#bfbfbf" points="402,-0.5 402,-19.5 460,-19.5 460,-0.5 402,-0.5"/>
<text text-anchor="middle" x="431" y="-7.5" font-family="Helvetica,sans-Serif" font-size="10.00">memory</text>
</a>
</g>
</g>
<!-- Node1&#45;&gt;Node5 -->
<g id="edge4" class="edge">
<title>Node1&#45;&gt;Node5</title>
<path fill="none" stroke="midnightblue" d="M330.31,-112.5C305.92,-100.75 269.47,-78.44 286,-56 310.09,-23.31 357.7,-13.67 391.79,-11.17"/>
<polygon fill="midnightblue" stroke="midnightblue" points="392.11,-14.66 401.9,-10.61 391.72,-7.67 392.11,-14.66"/>
</g>
<!-- Node6 -->
<g id="node6" class="node">
<title>Node6</title>
<g id="a_node6"><a xlink:title=" ">
<polygon fill="none" stroke="#bfbfbf" points="295,-56.5 295,-75.5 345,-75.5 345,-56.5 295,-56.5"/>
<text text-anchor="middle" x="320" y="-63.5" font-family="Helvetica,sans-Serif" font-size="10.00">chrono</text>
</a>
</g>
</g>
<!-- Node1&#45;&gt;Node6 -->
<g id="edge5" class="edge">
<title>Node1&#45;&gt;Node6</title>
<path fill="none" stroke="midnightblue" d="M345.05,-112.08C340.9,-104.61 334.85,-93.72 329.73,-84.52"/>
<polygon fill="midnightblue" stroke="midnightblue" points="332.78,-82.79 324.86,-75.75 326.66,-86.19 332.78,-82.79"/>
</g>
<!-- Node7 -->
<g id="node7" class="node">
<title>Node7</title>
<g id="a_node7"><a xlink:title=" ">
<polygon fill="none" stroke="#bfbfbf" points="363.5,-56.5 363.5,-75.5 398.5,-75.5 398.5,-56.5 363.5,-56.5"/>
<text text-anchor="middle" x="381" y="-63.5" font-family="Helvetica,sans-Serif" font-size="10.00">any</text>
</a>
</g>
</g>
<!-- Node1&#45;&gt;Node7 -->
<g id="edge6" class="edge">
<title>Node1&#45;&gt;Node7</title>
<path fill="none" stroke="midnightblue" d="M355.12,-112.08C359.41,-104.61 365.66,-93.72 370.94,-84.52"/>
<polygon fill="midnightblue" stroke="midnightblue" points="374.03,-86.17 375.98,-75.75 367.96,-82.68 374.03,-86.17"/>
</g>
<!-- Node8 -->
<g id="node8" class="node">
<title>Node8</title>
<g id="a_node8"><a xlink:title=" ">
<polygon fill="none" stroke="#bfbfbf" points="417,-56.5 417,-75.5 473,-75.5 473,-56.5 417,-56.5"/>
<text text-anchor="middle" x="445" y="-63.5" font-family="Helvetica,sans-Serif" font-size="10.00">optional</text>
</a>
</g>
</g>
<!-- Node1&#45;&gt;Node8 -->
<g id="edge7" class="edge">
<title>Node1&#45;&gt;Node8</title>
<path fill="none" stroke="midnightblue" d="M365.26,-112.32C380.22,-103.82 403.25,-90.73 420.73,-80.8"/>
<polygon fill="midnightblue" stroke="midnightblue" points="422.81,-83.64 429.77,-75.65 419.35,-77.55 422.81,-83.64"/>
</g>
<!-- Node9 -->
<g id="node9" class="node">
<title>Node9</title>
<g id="a_node9"><a xlink:title=" ">
<polygon fill="none" stroke="#bfbfbf" points="491.5,-56.5 491.5,-75.5 538.5,-75.5 538.5,-56.5 491.5,-56.5"/>
<text text-anchor="middle" x="515" y="-63.5" font-family="Helvetica,sans-Serif" font-size="10.00">vector</text>
</a>
</g>
</g>
<!-- Node1&#45;&gt;Node9 -->
<g id="edge8" class="edge">
<title>Node1&#45;&gt;Node9</title>
<path fill="none" stroke="midnightblue" d="M376.14,-112.44C404.76,-103.08 450.71,-88.04 481.84,-77.85"/>
<polygon fill="midnightblue" stroke="midnightblue" points="482.97,-81.17 491.38,-74.73 480.79,-74.51 482.97,-81.17"/>
</g>
<!-- Node10 -->
<g id="node10" class="node">
<title>Node10</title>
<g id="a_node10"><a xlink:title=" ">
<polygon fill="none" stroke="#bfbfbf" points="556.5,-56.5 556.5,-75.5 597.5,-75.5 597.5,-56.5 556.5,-56.5"/>
<text text-anchor="middle" x="577" y="-63.5" font-family="Helvetica,sans-Serif" font-size="10.00">tuple</text>
</a>
</g>
</g>
<!-- Node1&#45;&gt;Node10 -->
<g id="edge9" class="edge">
<title>Node1&#45;&gt;Node10</title>
<path fill="none" stroke="midnightblue" d="M390.94,-112.48C428.82,-104.42 486.88,-91.59 546.44,-76.01"/>
<polygon fill="midnightblue" stroke="midnightblue" points="547.62,-79.31 556.39,-73.38 545.83,-72.55 547.62,-79.31"/>
</g>
<!-- Node11 -->
<g id="node11" class="node">
<title>Node11</title>
<g id="a_node11"><a xlink:href="gempyre__types_8h_source.html" target="_top" xlink:title=" ">
<polygon fill="none" stroke="black" points="615.5,-56.5 615.5,-75.5 716.5,-75.5 716.5,-56.5 615.5,-56.5"/>
<text text-anchor="middle" x="666" y="-63.5" font-family="Helvetica,sans-Serif" font-size="10.00">gempyre_types.h</text>
</a>
</g>
</g>
<!-- Node1&#45;&gt;Node11 -->
<g id="edge10" class="edge">
<title>Node1&#45;&gt;Node11</title>
<path fill="none" stroke="midnightblue" d="M400.07,-112.44C456.01,-102.89 546.51,-87.42 606.14,-77.23"/>
<polygon fill="midnightblue" stroke="midnightblue" points="606.9,-80.65 616.16,-75.52 605.72,-73.75 606.9,-80.65"/>
</g>
<!-- Node11&#45;&gt;Node5 -->
<g id="edge12" class="edge">
<title>Node11&#45;&gt;Node5</title>
<path fill="none" stroke="midnightblue" d="M628.76,-56.44C585.42,-46.48 514.16,-30.11 470.05,-19.97"/>
<polygon fill="midnightblue" stroke="midnightblue" points="470.8,-16.55 460.27,-17.73 469.23,-23.38 470.8,-16.55"/>
</g>
<!-- Node12 -->
<g id="node12" class="node">
<title>Node12</title>
<g id="a_node12"><a xlink:title=" ">
<polygon fill="none" stroke="#bfbfbf" points="641,-0.5 641,-19.5 691,-19.5 691,-0.5 641,-0.5"/>
<text text-anchor="middle" x="666" y="-7.5" font-family="Helvetica,sans-Serif" font-size="10.00">cstdint</text>
</a>
</g>
</g>
<!-- Node11&#45;&gt;Node12 -->
<g id="edge11" class="edge">
<title>Node11&#45;&gt;Node12</title>
<path fill="none" stroke="midnightblue" d="M666,-56.08C666,-49.01 666,-38.86 666,-29.99"/>
<polygon fill="midnightblue" stroke="midnightblue" points="669.5,-29.75 666,-19.75 662.5,-29.75 669.5,-29.75"/>
</g>
</g>
</svg>
