<?xml version="1.0" encoding="UTF-8" standalone="no"?>
<!DOCTYPE svg PUBLIC "-//W3C//DTD SVG 1.1//EN"
 "http://www.w3.org/Graphics/SVG/1.1/DTD/svg11.dtd">
<!-- Generated by graphviz version 2.43.0 (0)
 -->
<!-- Title: include/gempyre_bitmap.h Pages: 1 -->
<svg width="700pt" height="137pt"
 viewBox="0.00 0.00 699.50 137.00" xmlns="http://www.w3.org/2000/svg" xmlns:xlink="http://www.w3.org/1999/xlink">
<g id="graph0" class="graph" transform="scale(1 1) rotate(0) translate(4 133)">
<title>include/gempyre_bitmap.h</title>
<!-- Node1 -->
<g id="Node000001" class="node">
<title>Node1</title>
<g id="a_Node000001"><a xlink:title=" ">
<polygon fill="#999999" stroke="#666666" points="426.5,-129 279.5,-129 279.5,-110 426.5,-110 426.5,-129"/>
<text text-anchor="middle" x="353" y="-117" font-family="Helvetica,sans-Serif" font-size="10.00">include/gempyre_bitmap.h</text>
</a>
</g>
</g>
<!-- Node2 -->
<g id="Node000002" class="node">
<title>Node2</title>
<g id="a_Node000002"><a xlink:title=" ">
<polygon fill="#e0e0e0" stroke="#999999" points="44,-74 0,-74 0,-55 44,-55 44,-74"/>
<text text-anchor="middle" x="22" y="-62" font-family="Helvetica,sans-Serif" font-size="10.00">string</text>
</a>
</g>
</g>
<!-- Node1&#45;&gt;Node2 -->
<g id="edge1_Node000001_Node000002" class="edge">
<title>Node1&#45;&gt;Node2</title>
<g id="a_edge1_Node000001_Node000002"><a xlink:title=" ">
<path fill="none" stroke="#63b8ff" d="M279.2,-110.07C220.59,-102.79 136.4,-91.06 54.28,-74.05"/>
<polygon fill="#63b8ff" stroke="#63b8ff" points="54.78,-70.58 44.27,-71.95 53.34,-77.43 54.78,-70.58"/>
</a>
</g>
</g>
<!-- Node3 -->
<g id="Node000003" class="node">
<title>Node3</title>
<g id="a_Node000003"><a xlink:title=" ">
<polygon fill="#e0e0e0" stroke="#999999" points="126,-74 62,-74 62,-55 126,-55 126,-74"/>
<text text-anchor="middle" x="94" y="-62" font-family="Helvetica,sans-Serif" font-size="10.00">algorithm</text>
</a>
</g>
</g>
<!-- Node1&#45;&gt;Node3 -->
<g id="edge2_Node000001_Node000003" class="edge">
<title>Node1&#45;&gt;Node3</title>
<g id="a_edge2_Node000001_Node000003"><a xlink:title=" ">
<path fill="none" stroke="#63b8ff" d="M310.79,-109.92C268.93,-101.41 202.68,-87.91 136.06,-74.21"/>
<polygon fill="#63b8ff" stroke="#63b8ff" points="136.73,-70.78 126.23,-72.19 135.32,-77.63 136.73,-70.78"/>
</a>
</g>
</g>
<!-- Node4 -->
<g id="Node000004" class="node">
<title>Node4</title>
<g id="a_Node000004"><a xlink:title=" ">
<polygon fill="#e0e0e0" stroke="#999999" points="194,-74 144,-74 144,-55 194,-55 194,-74"/>
<text text-anchor="middle" x="169" y="-62" font-family="Helvetica,sans-Serif" font-size="10.00">cstring</text>
</a>
</g>
</g>
<!-- Node1&#45;&gt;Node4 -->
<g id="edge3_Node000001_Node000004" class="edge">
<title>Node1&#45;&gt;Node4</title>
<g id="a_edge3_Node000001_Node000004"><a xlink:title=" ">
<path fill="none" stroke="#63b8ff" d="M323.44,-109.98C290.8,-100.58 238.31,-85.46 203.73,-75.51"/>
<polygon fill="#63b8ff" stroke="#63b8ff" points="204.63,-72.12 194.06,-72.72 202.7,-78.85 204.63,-72.12"/>
</a>
</g>
</g>
<!-- Node5 -->
<g id="Node000005" class="node">
<title>Node5</title>
<g id="a_Node000005"><a xlink:href="gempyre__types_8h_source.html" target="_top" xlink:title=" ">
<polygon fill="white" stroke="#666666" points="313.5,-74 212.5,-74 212.5,-55 313.5,-55 313.5,-74"/>
<text text-anchor="middle" x="263" y="-62" font-family="Helvetica,sans-Serif" font-size="10.00">gempyre_types.h</text>
</a>
</g>
</g>
<!-- Node1&#45;&gt;Node5 -->
<g id="edge4_Node000001_Node000005" class="edge">
<title>Node1&#45;&gt;Node5</title>
<g id="a_edge4_Node000001_Node000005"><a xlink:title=" ">
<path fill="none" stroke="#63b8ff" d="M338.54,-109.98C324.58,-101.77 303.21,-89.18 286.75,-79.49"/>
<polygon fill="#63b8ff" stroke="#63b8ff" points="288.12,-76.23 277.72,-74.17 284.56,-82.26 288.12,-76.23"/>
</a>
</g>
</g>
<!-- Node8 -->
<g id="Node000008" class="node">
<title>Node8</title>
<g id="a_Node000008"><a xlink:title=" ">
<polygon fill="#e0e0e0" stroke="#999999" points="374,-74 332,-74 332,-55 374,-55 374,-74"/>
<text text-anchor="middle" x="353" y="-62" font-family="Helvetica,sans-Serif" font-size="10.00">array</text>
</a>
</g>
</g>
<!-- Node1&#45;&gt;Node8 -->
<g id="edge7_Node000001_Node000008" class="edge">
<title>Node1&#45;&gt;Node8</title>
<g id="a_edge7_Node000001_Node000008"><a xlink:title=" ">
<path fill="none" stroke="#63b8ff" d="M353,-109.75C353,-102.8 353,-92.85 353,-84.13"/>
<polygon fill="#63b8ff" stroke="#63b8ff" points="356.5,-84.09 353,-74.09 349.5,-84.09 356.5,-84.09"/>
</a>
</g>
</g>
<!-- Node9 -->
<g id="Node000009" class="node">
<title>Node9</title>
<g id="a_Node000009"><a xlink:title=" ">
<polygon fill="#e0e0e0" stroke="#999999" points="448,-74 392,-74 392,-55 448,-55 448,-74"/>
<text text-anchor="middle" x="420" y="-62" font-family="Helvetica,sans-Serif" font-size="10.00">optional</text>
</a>
</g>
</g>
<!-- Node1&#45;&gt;Node9 -->
<g id="edge8_Node000001_Node000009" class="edge">
<title>Node1&#45;&gt;Node9</title>
<g id="a_edge8_Node000001_Node000009"><a xlink:title=" ">
<path fill="none" stroke="#63b8ff" d="M363.76,-109.98C373.77,-102.07 388.89,-90.11 400.93,-80.58"/>
<polygon fill="#63b8ff" stroke="#63b8ff" points="403.37,-83.12 409.04,-74.17 399.03,-77.63 403.37,-83.12"/>
</a>
</g>
</g>
<!-- Node10 -->
<g id="Node000010" class="node">
<title>Node10</title>
<g id="a_Node000010"><a xlink:title=" ">
<polygon fill="#e0e0e0" stroke="#999999" points="539.5,-74 466.5,-74 466.5,-55 539.5,-55 539.5,-74"/>
<text text-anchor="middle" x="503" y="-62" font-family="Helvetica,sans-Serif" font-size="10.00">string_view</text>
</a>
</g>
</g>
<!-- Node1&#45;&gt;Node10 -->
<g id="edge9_Node000001_Node000010" class="edge">
<title>Node1&#45;&gt;Node10</title>
<g id="a_edge9_Node000001_Node000010"><a xlink:title=" ">
<path fill="none" stroke="#63b8ff" d="M377.1,-109.98C401.88,-101.23 440.7,-87.51 468.69,-77.62"/>
<polygon fill="#63b8ff" stroke="#63b8ff" points="470.2,-80.8 478.46,-74.17 467.87,-74.2 470.2,-80.8"/>
</a>
</g>
</g>
<!-- Node11 -->
<g id="Node000011" class="node">
<title>Node11</title>
<g id="a_Node000011"><a xlink:title=" ">
<polygon fill="#e0e0e0" stroke="#999999" points="604.5,-74 557.5,-74 557.5,-55 604.5,-55 604.5,-74"/>
<text text-anchor="middle" x="581" y="-62" font-family="Helvetica,sans-Serif" font-size="10.00">vector</text>
</a>
</g>
</g>
<!-- Node1&#45;&gt;Node11 -->
<g id="edge10_Node000001_Node000011" class="edge">
<title>Node1&#45;&gt;Node11</title>
<g id="a_edge10_Node000001_Node000011"><a xlink:title=" ">
<path fill="none" stroke="#63b8ff" d="M392.52,-109.97C430.08,-101.76 488.4,-88.77 547.4,-74.33"/>
<polygon fill="#63b8ff" stroke="#63b8ff" points="548.38,-77.7 557.26,-71.91 546.71,-70.9 548.38,-77.7"/>
</a>
</g>
</g>
<!-- Node12 -->
<g id="Node000012" class="node">
<title>Node12</title>
<g id="a_Node000012"><a xlink:title=" ">
<polygon fill="#e0e0e0" stroke="#999999" points="691.5,-74 622.5,-74 622.5,-55 691.5,-55 691.5,-74"/>
<text text-anchor="middle" x="657" y="-62" font-family="Helvetica,sans-Serif" font-size="10.00">type_traits</text>
</a>
</g>
</g>
<!-- Node1&#45;&gt;Node12 -->
<g id="edge11_Node000001_Node000012" class="edge">
<title>Node1&#45;&gt;Node12</title>
<g id="a_edge11_Node000001_Node000012"><a xlink:title=" ">
<path fill="none" stroke="#63b8ff" d="M405.56,-109.95C456.16,-101.64 535.09,-88.41 612.38,-74.26"/>
<polygon fill="#63b8ff" stroke="#63b8ff" points="613.08,-77.69 622.28,-72.44 611.81,-70.81 613.08,-77.69"/>
</a>
</g>
</g>
<!-- Node6 -->
<g id="Node000006" class="node">
<title>Node6</title>
<g id="a_Node000006"><a xlink:title=" ">
<polygon fill="#e0e0e0" stroke="#999999" points="252,-19 202,-19 202,0 252,0 252,-19"/>
<text text-anchor="middle" x="227" y="-7" font-family="Helvetica,sans-Serif" font-size="10.00">cstdint</text>
</a>
</g>
</g>
<!-- Node5&#45;&gt;Node6 -->
<g id="edge5_Node000005_Node000006" class="edge">
<title>Node5&#45;&gt;Node6</title>
<g id="a_edge5_Node000005_Node000006"><a xlink:title=" ">
<path fill="none" stroke="#63b8ff" d="M257.06,-54.75C252.02,-47.34 244.66,-36.5 238.49,-27.41"/>
<polygon fill="#63b8ff" stroke="#63b8ff" points="241.35,-25.39 232.83,-19.09 235.56,-29.33 241.35,-25.39"/>
</a>
</g>
</g>
<!-- Node7 -->
<g id="Node000007" class="node">
<title>Node7</title>
<g id="a_Node000007"><a xlink:title=" ">
<polygon fill="#e0e0e0" stroke="#999999" points="328,-19 270,-19 270,0 328,0 328,-19"/>
<text text-anchor="middle" x="299" y="-7" font-family="Helvetica,sans-Serif" font-size="10.00">memory</text>
</a>
</g>
</g>
<!-- Node5&#45;&gt;Node7 -->
<g id="edge6_Node000005_Node000007" class="edge">
<title>Node5&#45;&gt;Node7</title>
<g id="a_edge6_Node000005_Node000007"><a xlink:title=" ">
<path fill="none" stroke="#63b8ff" d="M268.94,-54.75C273.98,-47.34 281.34,-36.5 287.51,-27.41"/>
<polygon fill="#63b8ff" stroke="#63b8ff" points="290.44,-29.33 293.17,-19.09 284.65,-25.39 290.44,-29.33"/>
</a>
</g>
</g>
</g>
</svg>
