<?xml version="1.0" encoding="UTF-8" standalone="no"?>
<!DOCTYPE svg PUBLIC "-//W3C//DTD SVG 1.1//EN"
 "http://www.w3.org/Graphics/SVG/1.1/DTD/svg11.dtd">
<!-- Generated by graphviz version 2.43.0 (0)
 -->
<!-- Title: Gempyre::Event Pages: 1 -->
<svg width="248pt" height="263pt"
 viewBox="0.00 0.00 248.00 263.00" xmlns="http://www.w3.org/2000/svg" xmlns:xlink="http://www.w3.org/1999/xlink">
<g id="graph0" class="graph" transform="scale(1 1) rotate(0) translate(4 259)">
<title>Gempyre::Event</title>
<!-- Node1 -->
<g id="node1" class="node">
<title>Node1</title>
<g id="a_node1"><a xlink:title="Event received.">
<polygon fill="#bfbfbf" stroke="black" points="55.5,-0.5 55.5,-19.5 150.5,-19.5 150.5,-0.5 55.5,-0.5"/>
<text text-anchor="middle" x="103" y="-7.5" font-family="Helvetica,sans-Serif" font-size="10.00">Gempyre::Event</text>
</a>
</g>
</g>
<!-- Node2 -->
<g id="node2" class="node">
<title>Node2</title>
<g id="a_node2"><a xlink:href="classGempyre_1_1Element.html" target="_top" xlink:title="Represents all HTML elements on UI.">
<polygon fill="none" stroke="black" points="0,-78.5 0,-97.5 108,-97.5 108,-78.5 0,-78.5"/>
<text text-anchor="middle" x="54" y="-85.5" font-family="Helvetica,sans-Serif" font-size="10.00">Gempyre::Element</text>
</a>
</g>
</g>
<!-- Node2&#45;&gt;Node1 -->
<g id="edge1" class="edge">
<title>Node2&#45;&gt;Node1</title>
<path fill="none" stroke="#9a32cd" stroke-dasharray="5,2" d="M65.24,-69.57C75.31,-53.95 89.65,-31.7 97.44,-19.62"/>
<polygon fill="#9a32cd" stroke="#9a32cd" points="62.1,-67.98 59.62,-78.28 67.98,-71.77 62.1,-67.98"/>
<text text-anchor="middle" x="106" y="-41" font-family="Helvetica,sans-Serif" font-size="10.00"> element</text>
</g>
<!-- Node3 -->
<g id="node3" class="node">
<title>Node3</title>
<g id="a_node3"><a xlink:title=" ">
<polygon fill="none" stroke="#bfbfbf" points="126,-67.5 126,-108.5 240,-108.5 240,-67.5 126,-67.5"/>
<text text-anchor="start" x="134" y="-96.5" font-family="Helvetica,sans-Serif" font-size="10.00">std::unordered_map</text>
<text text-anchor="start" x="134" y="-85.5" font-family="Helvetica,sans-Serif" font-size="10.00">&lt; std::string, std::</text>
<text text-anchor="middle" x="183" y="-74.5" font-family="Helvetica,sans-Serif" font-size="10.00">string &gt;</text>
</a>
</g>
</g>
<!-- Node3&#45;&gt;Node1 -->
<g id="edge2" class="edge">
<title>Node3&#45;&gt;Node1</title>
<path fill="none" stroke="#9a32cd" stroke-dasharray="5,2" d="M154.82,-60.23C139.8,-45.96 122.34,-29.37 112,-19.55"/>
<polygon fill="#9a32cd" stroke="#9a32cd" points="152.74,-63.08 162.4,-67.43 157.56,-58 152.74,-63.08"/>
<text text-anchor="middle" x="169.5" y="-41" font-family="Helvetica,sans-Serif" font-size="10.00"> properties</text>
</g>
<!-- Node4 -->
<g id="node4" class="node">
<title>Node4</title>
<g id="a_node4"><a xlink:title=" ">
<polygon fill="none" stroke="#bfbfbf" points="150.5,-167.5 150.5,-186.5 215.5,-186.5 215.5,-167.5 150.5,-167.5"/>
<text text-anchor="middle" x="183" y="-174.5" font-family="Helvetica,sans-Serif" font-size="10.00">std::string</text>
</a>
</g>
</g>
<!-- Node4&#45;&gt;Node3 -->
<g id="edge3" class="edge">
<title>Node4&#45;&gt;Node3</title>
<path fill="none" stroke="#9a32cd" stroke-dasharray="5,2" d="M183,-157.2C183,-142.88 183,-123.21 183,-108.68"/>
<polygon fill="#9a32cd" stroke="#9a32cd" points="179.5,-157.34 183,-167.34 186.5,-157.34 179.5,-157.34"/>
<text text-anchor="middle" x="207.5" y="-141" font-family="Helvetica,sans-Serif" font-size="10.00"> elements</text>
<text text-anchor="middle" x="207.5" y="-130" font-family="Helvetica,sans-Serif" font-size="10.00">keys</text>
</g>
<!-- Node5 -->
<g id="node5" class="node">
<title>Node5</title>
<g id="a_node5"><a xlink:title=" ">
<polygon fill="none" stroke="#bfbfbf" points="131,-224.5 131,-254.5 235,-254.5 235,-224.5 131,-224.5"/>
<text text-anchor="start" x="139" y="-242.5" font-family="Helvetica,sans-Serif" font-size="10.00">std::basic_string&lt;</text>
<text text-anchor="middle" x="183" y="-231.5" font-family="Helvetica,sans-Serif" font-size="10.00"> Char &gt;</text>
</a>
</g>
</g>
<!-- Node5&#45;&gt;Node4 -->
<g id="edge4" class="edge">
<title>Node5&#45;&gt;Node4</title>
<path fill="none" stroke="midnightblue" d="M183,-214.35C183,-204.51 183,-193.78 183,-186.54"/>
<polygon fill="midnightblue" stroke="midnightblue" points="179.5,-214.47 183,-224.47 186.5,-214.47 179.5,-214.47"/>
</g>
</g>
</svg>
