<?xml version="1.0" encoding="UTF-8" standalone="no"?>
<!DOCTYPE svg PUBLIC "-//W3C//DTD SVG 1.1//EN"
 "http://www.w3.org/Graphics/SVG/1.1/DTD/svg11.dtd">
<!-- Generated by graphviz version 2.43.0 (0)
 -->
<!-- Title: Gempyre::Event Pages: 1 -->
<svg width="248pt" height="259pt"
 viewBox="0.00 0.00 248.00 259.00" xmlns="http://www.w3.org/2000/svg" xmlns:xlink="http://www.w3.org/1999/xlink">
<g id="graph0" class="graph" transform="scale(1 1) rotate(0) translate(4 255)">
<title>Gempyre::Event</title>
<!-- Node1 -->
<g id="Node000001" class="node">
<title>Node1</title>
<g id="a_Node000001"><a xlink:title="Event received.">
<polygon fill="#999999" stroke="#666666" points="150.5,-19 55.5,-19 55.5,0 150.5,0 150.5,-19"/>
<text text-anchor="middle" x="103" y="-7" font-family="Helvetica,sans-Serif" font-size="10.00">Gempyre::Event</text>
</a>
</g>
</g>
<!-- Node2 -->
<g id="Node000002" class="node">
<title>Node2</title>
<g id="a_Node000002"><a xlink:href="classGempyre_1_1Element.html" target="_top" xlink:title="Represents all HTML elements on UI.">
<polygon fill="white" stroke="#666666" points="108,-96 0,-96 0,-77 108,-77 108,-96"/>
<text text-anchor="middle" x="54" y="-84" font-family="Helvetica,sans-Serif" font-size="10.00">Gempyre::Element</text>
</a>
</g>
</g>
<!-- Node2&#45;&gt;Node1 -->
<g id="edge1_Node000001_Node000002" class="edge">
<title>Node2&#45;&gt;Node1</title>
<g id="a_edge1_Node000001_Node000002"><a xlink:title=" ">
<path fill="none" stroke="#9a32cd" stroke-dasharray="5,2" d="M65.24,-68.29C75.31,-52.88 89.65,-30.93 97.44,-19"/>
<polygon fill="#9a32cd" stroke="#9a32cd" points="62.16,-66.61 59.62,-76.9 68.02,-70.44 62.16,-66.61"/>
</a>
</g>
<text text-anchor="middle" x="106" y="-40" font-family="Helvetica,sans-Serif" font-size="10.00" fill="grey"> element</text>
</g>
<!-- Node3 -->
<g id="Node000003" class="node">
<title>Node3</title>
<g id="a_Node000003"><a xlink:title=" ">
<polygon fill="white" stroke="#666666" points="240,-107 126,-107 126,-66 240,-66 240,-107"/>
<text text-anchor="start" x="134" y="-95" font-family="Helvetica,sans-Serif" font-size="10.00">std::unordered_map</text>
<text text-anchor="start" x="134" y="-84" font-family="Helvetica,sans-Serif" font-size="10.00">&lt; std::string, std::</text>
<text text-anchor="middle" x="183" y="-73" font-family="Helvetica,sans-Serif" font-size="10.00">string &gt;</text>
</a>
</g>
</g>
<!-- Node3&#45;&gt;Node1 -->
<g id="edge2_Node000001_Node000003" class="edge">
<title>Node3&#45;&gt;Node1</title>
<g id="a_edge2_Node000001_Node000003"><a xlink:title=" ">
<path fill="none" stroke="#9a32cd" stroke-dasharray="5,2" d="M154.5,-58.78C139.71,-44.91 122.62,-28.89 112.32,-19.24"/>
<polygon fill="#9a32cd" stroke="#9a32cd" points="152.29,-61.51 161.98,-65.79 157.08,-56.4 152.29,-61.51"/>
</a>
</g>
<text text-anchor="middle" x="169.5" y="-40" font-family="Helvetica,sans-Serif" font-size="10.00" fill="grey"> properties</text>
</g>
<!-- Node4 -->
<g id="Node000004" class="node">
<title>Node4</title>
<g id="a_Node000004"><a xlink:title=" ">
<polygon fill="white" stroke="#666666" points="215.5,-184 150.5,-184 150.5,-165 215.5,-165 215.5,-184"/>
<text text-anchor="middle" x="183" y="-172" font-family="Helvetica,sans-Serif" font-size="10.00">std::string</text>
</a>
</g>
</g>
<!-- Node4&#45;&gt;Node3 -->
<g id="edge3_Node000003_Node000004" class="edge">
<title>Node4&#45;&gt;Node3</title>
<g id="a_edge3_Node000003_Node000004"><a xlink:title=" ">
<path fill="none" stroke="#9a32cd" stroke-dasharray="5,2" d="M183,-154.57C183,-140.56 183,-121.52 183,-107.3"/>
<polygon fill="#9a32cd" stroke="#9a32cd" points="179.5,-154.94 183,-164.94 186.5,-154.94 179.5,-154.94"/>
</a>
</g>
<text text-anchor="middle" x="207.5" y="-139" font-family="Helvetica,sans-Serif" font-size="10.00" fill="grey"> elements</text>
<text text-anchor="middle" x="207.5" y="-128" font-family="Helvetica,sans-Serif" font-size="10.00" fill="grey">keys</text>
</g>
<!-- Node5 -->
<g id="Node000005" class="node">
<title>Node5</title>
<g id="a_Node000005"><a xlink:title=" ">
<polygon fill="white" stroke="#666666" points="235,-251 131,-251 131,-221 235,-221 235,-251"/>
<text text-anchor="start" x="139" y="-239" font-family="Helvetica,sans-Serif" font-size="10.00">std::basic_string&lt;</text>
<text text-anchor="middle" x="183" y="-228" font-family="Helvetica,sans-Serif" font-size="10.00"> Char &gt;</text>
</a>
</g>
</g>
<!-- Node5&#45;&gt;Node4 -->
<g id="edge4_Node000004_Node000005" class="edge">
<title>Node5&#45;&gt;Node4</title>
<g id="a_edge4_Node000004_Node000005"><a xlink:title=" ">
<path fill="none" stroke="#63b8ff" d="M183,-210.79C183,-201.36 183,-191.15 183,-184.16"/>
<polygon fill="#63b8ff" stroke="#63b8ff" points="179.5,-210.9 183,-220.9 186.5,-210.9 179.5,-210.9"/>
</a>
</g>
</g>
</g>
</svg>
